{"glyphs":{"0":{"ha":1081,"x_min":72,"x_max":1008,"o":"m 540 989 q 780 932 674 989 q 947 762 886 875 q 1008 486 1008 649 q 947 210 1008 324 q 780 40 886 97 q 540 -17 674 -17 q 301 40 407 -17 q 133 210 194 97 q 72 486 72 324 q 133 762 72 649 q 301 932 194 875 q 540 989 407 989 m 540 24 q 667 138 632 24 q 701 486 701 253 q 667 834 701 719 q 540 949 632 949 q 414 834 449 949 q 379 486 379 719 q 414 138 379 253 q 540 24 449 24 z "},"1":{"ha":714,"x_min":83,"x_max":639,"o":"m 88 857 l 88 888 q 482 989 299 913 l 510 975 l 510 72 q 516 51 510 57 q 542 42 522 44 l 639 28 l 639 0 l 83 0 l 83 28 l 193 42 q 220 51 214 46 q 226 74 226 57 l 226 857 l 88 857 z "},"2":{"ha":917,"x_min":44,"x_max":836,"o":"m 808 714 q 674 426 808 550 q 349 203 540 303 l 767 203 q 788 209 782 203 q 797 236 793 215 l 808 288 l 836 288 l 836 0 l 57 0 l 44 28 q 407 381 297 200 q 517 724 517 561 q 477 868 517 817 q 358 919 438 919 q 219 896 283 919 q 83 825 156 872 l 67 851 q 486 989 257 989 q 733 917 657 989 q 808 714 808 844 z "},"3":{"ha":875,"x_min":44,"x_max":811,"o":"m 340 25 q 478 81 433 25 q 522 260 522 136 q 472 431 522 368 q 322 494 422 494 l 265 494 l 265 536 l 324 536 q 451 585 411 536 q 492 733 492 633 q 446 876 492 831 q 307 922 400 922 q 63 850 185 922 l 46 876 q 222 960 128 931 q 440 989 317 989 q 683 927 592 989 q 775 751 775 865 q 713 607 775 669 q 543 517 651 544 q 740 433 669 499 q 811 265 811 368 q 700 49 811 113 q 365 -14 589 -14 q 181 1 268 -14 q 44 43 94 17 l 64 274 l 96 274 q 146 143 119 194 q 219 58 172 92 q 340 25 265 25 z "},"4":{"ha":942,"x_min":28,"x_max":903,"o":"m 36 221 l 28 253 l 672 972 l 774 972 l 774 260 l 903 260 l 903 221 l 774 221 l 774 72 q 780 51 774 57 q 806 42 786 44 l 903 28 l 903 0 l 347 0 l 347 28 l 457 42 q 484 51 478 46 q 490 74 490 57 l 490 221 l 36 221 m 490 260 l 490 707 l 89 260 l 490 260 z "},"5":{"ha":881,"x_min":44,"x_max":814,"o":"m 363 -14 q 180 1 265 -14 q 44 43 94 17 l 64 274 l 96 274 q 145 143 119 194 q 217 58 171 92 q 335 25 263 25 q 478 94 431 25 q 525 283 525 163 q 476 480 525 410 q 300 550 426 550 q 138 528 218 550 l 99 528 l 132 972 l 733 972 l 733 769 l 161 769 l 146 567 q 251 588 204 582 q 364 593 299 593 q 712 515 610 593 q 814 296 814 436 q 699 59 814 132 q 363 -14 583 -14 z "},"6":{"ha":975,"x_min":78,"x_max":922,"o":"m 749 958 q 507 832 588 922 q 400 582 426 742 q 575 615 481 615 q 763 578 685 615 q 882 473 842 540 q 922 319 922 406 q 872 140 922 215 q 731 24 822 64 q 515 -17 639 -17 q 282 35 381 -17 q 131 180 183 88 q 78 392 78 272 q 147 669 78 543 q 365 881 217 796 q 738 990 513 967 l 749 958 m 504 561 q 393 536 446 561 q 383 335 383 453 q 410 105 383 190 q 519 19 438 19 q 629 90 593 19 q 665 290 665 160 q 631 491 665 421 q 504 561 596 561 z "},"7":{"ha":833,"x_min":50,"x_max":792,"o":"m 792 951 q 574 501 651 735 q 456 0 496 267 l 172 0 q 338 388 204 183 q 633 769 471 593 l 119 769 q 99 763 104 769 q 89 736 93 757 l 78 685 l 50 685 l 50 972 l 776 972 l 792 951 z "},"8":{"ha":947,"x_min":67,"x_max":881,"o":"m 67 211 q 126 358 67 294 q 293 447 186 421 q 148 568 192 500 q 104 718 104 636 q 202 919 104 849 q 465 989 300 989 q 722 932 621 989 q 822 768 822 875 q 757 639 822 688 q 586 567 692 590 l 643 540 q 826 415 771 481 q 881 258 881 350 q 759 52 881 121 q 456 -17 638 -17 q 172 40 276 -17 q 67 211 67 97 m 307 824 q 328 730 307 767 q 383 670 349 693 q 482 617 418 647 l 553 582 q 642 786 642 657 q 596 911 642 869 q 471 953 550 953 q 307 824 307 953 m 344 421 q 278 232 278 363 q 328 76 278 132 q 475 19 378 19 q 608 58 561 19 q 656 169 656 96 q 615 269 656 231 q 475 357 574 308 l 344 421 z "},"9":{"ha":975,"x_min":58,"x_max":903,"o":"m 232 14 q 474 140 393 50 q 581 390 554 231 q 406 357 500 357 q 217 394 296 357 q 99 499 139 432 q 58 653 58 567 q 108 833 58 757 q 250 949 158 908 q 465 989 342 989 q 699 937 600 989 q 850 792 797 885 q 903 581 903 700 q 833 303 903 429 q 616 91 764 176 q 243 -18 468 6 l 232 14 m 476 411 q 588 436 535 411 q 597 638 597 519 q 570 867 597 782 q 461 953 543 953 q 351 883 388 953 q 315 682 315 813 q 350 481 315 551 q 476 411 385 411 z "},"\r":{"ha":361,"x_min":0,"x_max":0,"o":""}," ":{"ha":403,"x_min":0,"x_max":0,"o":""},"\u0000":{"ha":694,"x_min":0,"x_max":0,"o":""},"!":{"ha":394,"x_min":67,"x_max":328,"o":"m 67 938 q 116 974 82 961 q 197 986 150 986 q 278 974 244 986 q 328 938 313 961 l 219 307 l 175 307 l 67 938 m 197 -11 q 115 22 149 -11 q 81 103 81 56 q 115 183 81 150 q 197 217 149 217 q 280 183 246 217 q 314 103 314 150 q 280 22 314 56 q 197 -11 246 -11 z "},"\"":{"ha":639,"x_min":72,"x_max":567,"o":"m 72 971 q 174 986 114 986 q 275 971 233 986 l 190 599 l 157 599 l 72 971 m 364 971 q 465 986 406 986 q 567 971 525 986 l 482 599 l 449 599 l 364 971 z "},"#":{"ha":900,"x_min":39,"x_max":861,"o":"m 303 669 l 346 972 l 390 972 l 346 669 l 631 674 l 674 972 l 718 972 l 675 674 l 861 676 l 861 624 l 668 625 l 628 346 l 814 349 l 814 296 l 621 297 l 579 0 l 535 0 l 576 299 l 294 301 l 251 0 l 207 0 l 250 303 l 39 306 l 39 339 l 256 342 l 297 631 l 86 633 l 86 667 l 303 669 m 583 346 l 624 626 l 340 629 l 300 342 l 583 346 z "},"$":{"ha":944,"x_min":78,"x_max":867,"o":"m 438 -17 q 246 3 349 -15 q 86 50 143 22 l 110 294 l 149 294 q 208 126 169 186 q 303 44 247 67 q 438 21 358 21 l 438 363 l 396 382 q 213 472 275 435 q 115 569 151 510 q 78 721 78 628 q 164 915 78 849 q 438 988 250 982 l 438 1111 l 479 1111 l 479 989 q 652 969 568 988 q 793 925 736 951 l 774 713 l 733 713 q 675 843 704 794 q 599 920 646 892 q 479 951 553 949 l 479 629 l 542 600 q 736 498 676 535 q 831 405 796 461 q 867 258 867 349 q 773 59 867 128 q 479 -15 679 -10 l 479 -139 l 438 -139 l 438 -17 m 275 832 q 310 734 275 771 q 438 650 344 697 l 438 950 q 275 832 275 943 m 631 156 q 596 260 631 218 q 479 343 561 301 l 479 22 q 590 64 550 29 q 631 156 631 99 z "},"%":{"ha":1136,"x_min":56,"x_max":1081,"o":"m 289 983 q 460 921 399 983 q 522 753 522 858 q 460 585 522 647 q 289 522 399 522 q 117 585 179 522 q 56 753 56 647 q 117 921 56 858 q 289 983 179 983 m 867 972 l 311 0 l 269 0 l 825 972 l 867 972 m 289 547 q 349 597 333 547 q 365 753 365 646 q 349 909 365 860 q 289 958 333 958 q 228 909 244 958 q 213 753 213 860 q 228 597 213 646 q 289 547 244 547 m 847 450 q 1019 388 957 450 q 1081 219 1081 325 q 1019 51 1081 114 q 847 -11 957 -11 q 676 51 738 -11 q 614 219 614 114 q 676 388 614 325 q 847 450 738 450 m 847 14 q 908 63 892 14 q 924 219 924 113 q 908 376 924 326 q 847 425 892 425 q 787 376 803 425 q 771 219 771 326 q 787 63 771 113 q 847 14 803 14 z "},"&":{"ha":1158,"x_min":69,"x_max":1136,"o":"m 574 951 q 451 850 451 951 q 482 744 451 803 q 558 631 513 685 l 826 311 l 978 522 l 910 522 l 910 553 l 1114 553 l 1114 525 l 1060 521 q 1028 513 1039 519 q 1004 490 1017 507 l 850 283 l 1032 67 q 1058 43 1046 51 q 1085 33 1069 35 l 1136 28 l 1136 0 l 747 0 l 679 81 q 553 3 615 24 q 406 -17 492 -17 q 156 49 243 -17 q 69 249 69 114 q 300 538 69 451 q 238 711 238 628 q 322 910 238 832 q 571 989 407 989 q 831 933 731 989 l 796 743 l 756 743 q 710 877 725 842 q 665 932 694 913 q 574 951 635 951 m 479 49 q 578 63 535 49 q 657 107 621 78 l 332 496 l 322 507 q 292 434 301 478 q 282 324 282 390 q 337 118 282 188 q 479 49 392 49 z "},"'":{"ha":347,"x_min":72,"x_max":275,"o":"m 72 971 q 174 986 114 986 q 275 971 233 986 l 190 599 l 157 599 l 72 971 z "},"(":{"ha":542,"x_min":92,"x_max":497,"o":"m 92 472 q 187 840 92 692 q 476 1103 282 988 l 497 1082 q 363 945 410 1024 q 299 756 317 867 q 282 472 282 646 q 299 188 282 299 q 363 -1 317 78 q 497 -137 410 -79 l 476 -158 q 187 105 282 -43 q 92 472 92 253 z "},")":{"ha":542,"x_min":44,"x_max":450,"o":"m 450 472 q 355 105 450 253 q 65 -158 260 -43 l 44 -137 q 178 -1 132 -79 q 242 188 225 78 q 260 472 260 299 q 242 756 260 646 q 178 945 225 867 q 44 1082 132 1024 l 65 1103 q 355 840 260 988 q 450 472 450 692 z "},"*":{"ha":767,"x_min":78,"x_max":689,"o":"m 667 844 q 689 756 689 807 q 686 726 689 746 l 401 726 l 614 538 q 576 492 603 514 q 524 463 550 471 l 383 708 l 243 463 q 190 492 217 471 q 153 538 164 514 l 364 726 l 81 726 q 78 756 78 746 q 100 844 78 807 l 371 750 l 324 1032 q 383 1042 347 1042 q 443 1032 419 1042 l 394 750 l 667 844 z "},"+":{"ha":792,"x_min":103,"x_max":689,"o":"m 417 436 l 417 163 l 375 163 l 375 436 l 103 436 l 103 475 l 375 475 l 375 749 l 417 749 l 417 475 l 689 475 l 689 436 l 417 436 z "},",":{"ha":372,"x_min":67,"x_max":306,"o":"m 200 3 q 174 1 190 1 q 94 31 121 1 q 67 106 67 61 q 98 185 67 153 q 183 217 129 217 q 272 185 239 217 q 306 94 306 154 q 257 -69 306 14 q 138 -207 208 -151 l 110 -178 q 200 3 200 -82 z "},"-":{"ha":433,"x_min":56,"x_max":378,"o":"m 56 367 l 56 406 l 378 406 l 378 367 l 56 367 z "},".":{"ha":372,"x_min":69,"x_max":303,"o":"m 186 -11 q 103 22 138 -11 q 69 103 69 56 q 103 183 69 150 q 186 217 138 217 q 269 183 235 217 q 303 103 303 150 q 269 22 303 56 q 186 -11 235 -11 z "},"/":{"ha":417,"x_min":42,"x_max":375,"o":"m 83 -17 l 42 -17 l 333 989 l 375 989 l 83 -17 z "},":":{"ha":406,"x_min":86,"x_max":319,"o":"m 203 464 q 120 497 154 464 q 86 578 86 531 q 120 658 86 625 q 203 692 154 692 q 285 658 251 692 q 319 578 319 625 q 285 497 319 531 q 203 464 251 464 m 203 -11 q 120 22 154 -11 q 86 103 86 56 q 120 183 86 150 q 203 217 154 217 q 285 183 251 217 q 319 103 319 150 q 285 22 319 56 q 203 -11 251 -11 z "},";":{"ha":406,"x_min":83,"x_max":322,"o":"m 203 464 q 120 497 154 464 q 86 578 86 531 q 120 658 86 625 q 203 692 154 692 q 285 658 251 692 q 319 578 319 625 q 285 497 319 531 q 203 464 251 464 m 217 3 q 190 1 207 1 q 110 31 138 1 q 83 106 83 61 q 115 185 83 153 q 200 217 146 217 q 289 185 256 217 q 322 94 322 154 q 274 -69 322 14 q 154 -207 225 -151 l 126 -178 q 217 3 217 -82 z "},"<":{"ha":792,"x_min":119,"x_max":653,"o":"m 631 708 l 653 671 l 171 386 l 653 101 l 631 64 l 119 372 l 119 400 l 631 708 z "},"=":{"ha":794,"x_min":103,"x_max":689,"o":"m 103 561 l 103 600 l 689 600 l 689 561 l 103 561 m 103 311 l 103 350 l 689 350 l 689 311 l 103 311 z "},">":{"ha":792,"x_min":139,"x_max":672,"o":"m 161 64 l 139 101 l 621 386 l 139 671 l 161 708 l 672 400 l 672 372 l 161 64 z "},"?":{"ha":786,"x_min":42,"x_max":728,"o":"m 336 489 q 464 758 464 590 q 306 919 464 919 q 176 900 229 919 q 58 836 122 881 l 42 863 q 214 956 126 924 q 433 989 301 989 q 652 934 576 989 q 728 771 728 879 q 638 577 728 642 q 408 489 549 513 l 390 307 l 351 307 l 336 489 m 371 -11 q 288 22 322 -11 q 254 103 254 56 q 288 183 254 150 q 371 217 322 217 q 453 183 419 217 q 488 103 488 150 q 453 22 488 56 q 371 -11 419 -11 z "},"@":{"ha":1457,"x_min":81,"x_max":1376,"o":"m 1111 188 q 1122 119 1111 133 q 1160 104 1132 104 q 1239 142 1199 104 q 1306 253 1279 181 q 1332 422 1332 325 q 1269 666 1332 571 q 1104 804 1207 761 q 878 847 1001 847 q 573 778 704 847 q 369 585 442 710 q 297 300 297 461 q 434 -53 297 60 q 817 -167 571 -167 q 1013 -134 915 -167 q 1183 -43 1110 -101 l 1206 -78 q 1008 -183 1121 -146 q 760 -219 894 -219 q 426 -164 581 -219 q 176 12 272 -108 q 81 317 81 132 q 174 641 81 501 q 432 857 268 781 q 801 933 596 933 q 1223 807 1069 933 q 1376 433 1376 681 q 1338 219 1376 311 q 1229 76 1300 126 q 1061 25 1158 25 q 921 47 964 25 q 864 115 878 69 q 632 25 771 25 q 506 62 551 25 q 461 174 461 99 q 506 294 461 250 q 636 356 550 338 q 864 378 722 374 l 864 468 q 838 566 864 538 q 744 594 813 594 q 642 579 689 594 q 543 533 594 564 l 526 558 q 667 625 585 600 q 853 650 749 650 q 1051 595 992 650 q 1111 438 1111 540 l 1111 188 m 769 104 q 817 117 796 104 q 864 156 838 129 l 864 344 q 760 322 794 339 q 715 274 726 304 q 704 190 704 244 q 719 124 704 143 q 769 104 733 104 z "},"A":{"ha":1067,"x_min":25,"x_max":1042,"o":"m 583 28 l 643 33 q 663 49 663 36 q 658 65 663 56 l 567 268 l 244 268 l 161 65 q 157 49 157 56 q 176 33 157 36 l 236 28 l 236 0 l 25 0 l 25 28 l 76 33 q 100 42 93 35 q 115 67 107 49 l 500 988 l 544 988 l 951 67 q 967 42 960 49 q 990 33 974 35 l 1042 28 l 1042 0 l 583 0 l 583 28 m 549 310 l 399 642 l 261 310 l 549 310 z "},"B":{"ha":1028,"x_min":36,"x_max":967,"o":"m 463 972 q 728 950 631 972 q 870 879 826 928 q 914 747 914 831 q 847 583 914 636 q 635 515 781 531 q 826 478 754 506 q 933 397 899 450 q 967 256 967 343 q 914 103 967 158 q 751 24 861 47 q 454 0 640 0 l 36 0 l 36 28 l 88 39 q 115 49 108 43 q 121 69 121 54 l 121 903 q 115 924 121 918 q 88 933 108 929 l 36 944 l 36 972 l 463 972 m 472 533 q 600 586 558 533 q 642 747 642 639 q 601 885 642 840 q 472 931 560 931 l 404 931 l 404 533 l 472 533 m 404 42 l 467 42 q 681 256 681 42 q 636 436 681 381 q 478 492 592 492 l 404 492 l 404 42 z "},"C":{"ha":1047,"x_min":78,"x_max":986,"o":"m 703 53 q 841 78 779 53 q 958 147 903 103 l 986 117 q 827 22 925 60 q 611 -17 729 -17 q 228 106 378 -17 q 78 500 78 229 q 227 870 78 751 q 618 989 376 989 q 810 971 715 989 q 958 926 904 953 l 939 688 l 900 688 q 795 877 861 806 q 619 949 729 949 q 438 845 493 949 q 383 536 383 742 q 454 173 383 293 q 703 53 525 53 z "},"D":{"ha":1136,"x_min":36,"x_max":1058,"o":"m 88 39 q 115 49 108 43 q 121 69 121 54 l 121 903 q 115 924 121 918 q 88 933 108 929 l 36 944 l 36 972 l 461 972 q 906 863 753 972 q 1058 486 1058 753 q 906 110 1058 219 q 461 0 753 0 l 36 0 l 36 28 l 88 39 m 404 42 l 461 42 q 639 83 576 42 q 726 218 701 124 q 751 486 751 313 q 726 754 751 660 q 639 890 701 849 q 461 931 576 931 l 404 931 l 404 42 z "},"E":{"ha":1000,"x_min":36,"x_max":911,"o":"m 88 39 q 115 49 108 43 q 121 69 121 54 l 121 903 q 115 924 121 918 q 88 933 108 929 l 36 944 l 36 972 l 892 972 l 892 701 l 857 701 q 802 838 828 792 q 731 907 776 883 q 601 931 685 931 l 404 931 l 404 518 l 763 518 l 763 476 l 404 476 l 404 42 l 615 42 q 744 67 697 42 q 819 139 792 92 q 875 276 846 186 l 911 276 l 911 0 l 36 0 l 36 28 l 88 39 z "},"F":{"ha":936,"x_min":36,"x_max":875,"o":"m 840 701 q 785 838 811 792 q 714 907 760 883 q 585 931 668 931 l 404 931 l 404 518 l 751 518 l 751 476 l 404 476 l 404 71 q 410 50 404 56 q 438 40 417 44 l 497 28 l 497 0 l 36 0 l 36 28 l 88 39 q 115 49 108 43 q 121 69 121 54 l 121 903 q 115 924 121 918 q 88 933 108 929 l 36 944 l 36 972 l 875 972 l 875 701 l 840 701 z "},"G":{"ha":1097,"x_min":78,"x_max":1003,"o":"m 383 536 q 415 251 383 358 q 520 93 447 143 q 717 43 593 43 l 761 43 l 761 385 l 624 385 l 624 426 l 1003 426 l 1003 61 q 930 45 972 56 q 865 29 888 35 q 719 -6 774 6 q 617 -17 664 -17 q 347 34 468 -17 q 152 200 226 85 q 78 500 78 315 q 229 870 78 751 q 628 989 381 989 q 827 971 731 989 q 978 926 924 953 l 958 688 l 919 688 q 813 877 881 806 q 629 949 746 949 q 440 845 497 949 q 383 536 383 742 z "},"H":{"ha":1172,"x_min":36,"x_max":1136,"o":"m 404 68 q 410 48 404 53 q 436 39 417 43 l 486 28 l 486 0 l 36 0 l 36 28 l 88 39 q 115 49 108 43 q 121 69 121 54 l 121 903 q 115 924 121 918 q 88 933 108 929 l 36 944 l 36 972 l 486 972 l 486 944 l 436 933 q 410 925 417 931 q 404 904 404 919 l 404 518 l 768 518 l 768 904 q 762 925 768 919 q 736 933 756 931 l 686 944 l 686 972 l 1136 972 l 1136 944 l 1085 933 q 1058 924 1064 929 q 1051 903 1051 918 l 1051 69 q 1058 49 1051 54 q 1085 39 1064 43 l 1136 28 l 1136 0 l 686 0 l 686 28 l 736 39 q 762 48 756 43 q 768 68 768 53 l 768 476 l 404 476 l 404 68 z "},"I":{"ha":536,"x_min":42,"x_max":494,"o":"m 126 903 q 120 924 126 918 q 93 933 114 929 l 42 944 l 42 972 l 494 972 l 494 944 l 443 933 q 416 924 422 929 q 410 903 410 918 l 410 69 q 416 49 410 54 q 443 39 422 43 l 494 28 l 494 0 l 42 0 l 42 28 l 93 39 q 120 49 114 43 q 126 69 126 54 l 126 903 z "},"J":{"ha":864,"x_min":72,"x_max":833,"o":"m 329 21 q 408 43 379 21 q 451 123 438 65 q 465 286 465 181 l 465 901 q 459 922 465 917 q 432 932 453 928 l 372 944 l 372 972 l 833 972 l 833 944 l 782 933 q 755 924 761 929 q 749 903 749 918 l 749 314 q 637 61 749 139 q 340 -17 525 -17 q 206 -1 282 -17 q 72 42 131 15 l 104 286 l 140 286 q 184 120 158 178 q 244 42 210 63 q 329 21 278 21 z "},"K":{"ha":1094,"x_min":36,"x_max":1078,"o":"m 593 624 q 634 597 617 614 q 671 553 651 581 l 975 68 q 994 45 986 51 q 1018 38 1003 39 l 1078 28 l 1078 0 l 785 0 q 726 12 747 0 q 690 47 706 24 l 431 483 l 404 460 l 404 68 q 410 48 404 53 q 436 39 417 43 l 486 28 l 486 0 l 36 0 l 36 28 l 88 39 q 115 49 108 43 q 121 69 121 54 l 121 903 q 115 924 121 918 q 88 933 108 929 l 36 944 l 36 972 l 486 972 l 486 944 l 436 933 q 410 925 417 931 q 404 904 404 919 l 404 510 l 863 907 q 874 928 874 917 q 858 940 874 938 l 799 946 l 799 972 l 1047 972 l 1047 944 l 989 940 q 952 931 965 939 q 918 906 939 924 l 593 624 z "},"L":{"ha":928,"x_min":36,"x_max":875,"o":"m 121 903 q 115 924 121 918 q 88 933 108 929 l 36 944 l 36 972 l 497 972 l 497 944 l 438 932 q 410 922 417 928 q 404 901 404 917 l 404 42 l 579 42 q 707 67 661 42 q 778 138 753 92 q 836 276 804 183 l 875 276 l 875 0 l 36 0 l 36 28 l 88 39 q 115 49 108 43 q 121 69 121 54 l 121 903 z "},"M":{"ha":1336,"x_min":36,"x_max":1300,"o":"m 165 68 q 172 48 165 53 q 197 39 178 43 l 247 28 l 247 0 l 36 0 l 36 28 l 88 39 q 115 49 108 43 q 121 69 121 54 l 121 903 q 115 924 121 918 q 88 933 108 929 l 36 944 l 36 972 l 392 972 l 678 354 l 933 972 l 1300 972 l 1300 944 l 1249 933 q 1222 924 1228 929 q 1215 903 1215 918 l 1215 69 q 1222 49 1215 54 q 1249 39 1228 43 l 1300 28 l 1300 0 l 850 0 l 850 28 l 900 39 q 926 48 919 43 q 932 68 932 53 l 932 854 l 579 0 l 538 0 l 165 818 l 165 68 z "},"N":{"ha":1033,"x_min":36,"x_max":997,"o":"m 121 903 q 115 924 121 918 q 88 933 108 929 l 36 944 l 36 972 l 421 972 l 868 408 l 868 904 q 862 924 868 919 q 836 933 856 929 l 786 944 l 786 972 l 997 972 l 997 944 l 946 933 q 919 924 925 929 q 913 903 913 918 l 913 0 l 863 0 l 165 882 l 165 68 q 172 48 165 53 q 197 39 178 43 l 247 28 l 247 0 l 36 0 l 36 28 l 88 39 q 115 49 108 43 q 121 69 121 54 l 121 903 z "},"O":{"ha":1186,"x_min":78,"x_max":1108,"o":"m 593 989 q 968 870 828 989 q 1108 486 1108 751 q 968 102 1108 221 q 593 -17 828 -17 q 218 102 358 -17 q 78 486 78 221 q 219 869 78 750 q 593 989 360 989 m 593 24 q 723 69 678 24 q 785 214 768 115 q 801 486 801 313 q 785 758 801 660 q 723 903 768 857 q 593 949 678 949 q 463 903 508 949 q 401 758 418 857 q 385 486 385 660 q 401 214 385 313 q 463 69 418 115 q 593 24 508 24 z "},"P":{"ha":1028,"x_min":36,"x_max":961,"o":"m 961 679 q 908 503 961 567 q 742 413 854 440 q 440 386 629 386 l 404 386 l 404 71 q 410 50 404 56 q 438 40 417 44 l 497 28 l 497 0 l 36 0 l 36 28 l 88 39 q 115 49 108 43 q 121 69 121 54 l 121 903 q 115 924 121 918 q 88 933 108 929 l 36 944 l 36 972 l 440 972 q 742 945 629 972 q 908 855 854 918 q 961 679 961 792 m 404 428 l 453 428 q 581 453 535 428 q 649 532 628 478 q 669 679 669 586 q 649 826 669 772 q 581 906 628 881 q 453 931 535 931 l 404 931 l 404 428 z "},"Q":{"ha":1189,"x_min":78,"x_max":1108,"o":"m 593 989 q 968 872 828 989 q 1108 492 1108 756 q 968 111 1108 228 q 593 -6 828 -6 q 218 111 358 -6 q 78 492 78 228 q 218 872 78 756 q 593 989 358 989 m 593 35 q 723 80 678 35 q 785 222 768 125 q 801 492 801 318 q 785 762 801 665 q 723 903 768 858 q 593 949 678 949 q 463 903 508 949 q 401 762 418 858 q 385 492 385 665 q 401 222 385 318 q 463 80 418 125 q 593 35 508 35 m 807 -312 q 710 -294 754 -312 q 600 -239 667 -276 q 457 -169 521 -193 q 308 -142 393 -144 l 308 -125 q 443 -56 360 -56 q 523 -65 481 -56 q 639 -94 565 -74 q 766 -127 713 -115 q 869 -139 819 -139 q 908 -128 893 -139 q 939 -96 922 -118 l 950 -81 l 981 -87 q 912 -257 951 -201 q 807 -312 872 -312 z "},"R":{"ha":1106,"x_min":36,"x_max":1092,"o":"m 622 321 q 597 416 611 389 q 550 452 582 443 q 444 461 518 461 l 404 461 l 404 71 q 410 50 404 56 q 438 40 417 44 l 497 28 l 497 0 l 36 0 l 36 28 l 88 39 q 115 49 108 43 q 121 69 121 54 l 121 903 q 115 924 121 918 q 88 933 108 929 l 36 944 l 36 972 l 444 972 q 740 948 631 972 q 900 868 850 924 q 950 717 950 813 q 886 552 950 610 q 679 474 822 494 q 810 447 761 468 q 888 381 860 426 q 931 257 915 336 l 946 174 q 962 93 957 114 q 976 61 967 72 q 1004 50 985 50 q 1063 101 1039 50 l 1092 76 q 1033 11 1072 36 q 904 -14 993 -14 q 764 6 815 -14 q 683 74 713 25 q 639 217 654 124 l 622 321 m 404 503 l 457 503 q 581 525 538 503 q 642 593 625 547 q 658 717 658 639 q 642 840 658 794 q 581 908 625 886 q 457 931 538 931 l 404 931 l 404 503 z "},"S":{"ha":942,"x_min":78,"x_max":867,"o":"m 438 21 q 578 56 528 21 q 628 156 628 90 q 605 243 628 208 q 535 307 582 278 q 396 376 488 336 q 215 467 279 428 q 115 567 151 507 q 78 721 78 628 q 172 922 78 854 q 472 989 267 989 q 649 971 564 989 q 793 925 735 953 l 760 713 l 722 713 q 667 847 696 797 q 590 924 639 897 q 461 951 542 951 q 278 832 278 951 q 300 751 278 783 q 367 694 322 719 q 514 618 411 668 l 542 606 q 733 504 671 543 q 831 408 794 465 q 867 258 867 350 q 765 53 867 122 q 444 -17 663 -17 q 251 3 357 -17 q 86 50 144 22 l 124 294 l 160 294 q 214 126 178 186 q 304 44 250 67 q 438 21 358 21 z "},"T":{"ha":1006,"x_min":36,"x_max":969,"o":"m 644 69 q 651 49 644 54 q 678 39 657 43 l 729 28 l 729 0 l 276 0 l 276 28 l 328 39 q 355 49 349 43 q 361 69 361 54 l 361 933 l 329 933 q 198 906 244 933 q 127 833 151 878 q 67 692 103 789 l 36 692 l 36 972 l 969 972 l 969 692 l 939 692 q 878 833 903 789 q 808 906 854 878 q 676 933 761 933 l 644 933 l 644 69 z "},"U":{"ha":1047,"x_min":28,"x_max":1019,"o":"m 938 361 q 843 85 935 186 q 547 -17 751 -17 q 219 74 325 -17 q 113 367 113 164 l 113 903 q 106 924 113 918 q 79 933 100 929 l 28 944 l 28 972 l 478 972 l 478 944 l 428 933 q 402 924 408 929 q 396 904 396 919 l 396 342 q 413 158 396 224 q 477 62 429 93 q 618 31 525 31 q 822 118 751 31 q 893 350 893 206 l 893 903 q 887 924 893 918 q 860 933 881 929 l 808 944 l 808 972 l 1019 972 l 1019 944 l 969 933 q 944 924 950 929 q 938 904 938 919 l 938 361 z "},"V":{"ha":1058,"x_min":25,"x_max":1033,"o":"m 483 944 l 426 939 q 406 918 406 936 q 410 901 406 910 l 663 332 l 897 907 q 901 924 901 918 q 882 939 901 936 l 822 944 l 822 972 l 1033 972 l 1033 944 l 982 939 q 958 931 965 938 q 943 906 951 924 l 563 -15 l 518 -15 l 115 906 q 100 931 107 924 q 76 939 93 938 l 25 944 l 25 972 l 483 972 l 483 944 z "},"W":{"ha":1592,"x_min":31,"x_max":1561,"o":"m 1088 -15 l 799 703 l 535 -15 l 490 -15 l 121 906 q 106 930 114 924 q 82 939 99 936 l 31 944 l 31 972 l 486 972 l 486 944 l 432 939 q 413 917 413 936 q 415 901 413 913 l 626 351 l 775 763 l 718 906 q 703 930 711 924 q 679 939 696 936 l 631 944 l 631 972 l 1086 972 l 1086 944 l 1029 939 q 1010 917 1010 936 q 1013 901 1010 913 l 1224 351 l 1425 907 q 1429 922 1429 918 q 1408 939 1429 938 l 1350 944 l 1350 972 l 1561 972 l 1561 944 l 1510 939 q 1486 931 1493 938 q 1471 906 1479 924 l 1132 -15 l 1088 -15 z "},"X":{"ha":1136,"x_min":28,"x_max":1108,"o":"m 861 907 q 868 922 868 917 q 863 934 868 929 q 847 940 857 939 l 786 946 l 786 972 l 1031 972 l 1031 944 l 978 940 q 944 932 954 939 q 917 906 933 925 l 658 586 l 1008 67 q 1029 42 1021 49 q 1053 33 1038 35 l 1108 28 l 1108 0 l 626 0 l 626 28 l 682 33 q 700 47 700 35 q 692 68 700 58 l 469 397 l 210 65 q 203 50 203 56 q 208 38 203 43 q 224 32 214 33 l 285 26 l 285 0 l 40 0 l 40 28 l 93 32 q 128 42 117 33 q 154 67 140 50 l 446 433 l 128 906 q 107 931 115 924 q 83 939 99 938 l 28 944 l 28 972 l 510 972 l 510 944 l 454 939 q 436 925 436 938 q 444 904 436 915 l 633 622 l 861 907 z "},"Y":{"ha":1000,"x_min":6,"x_max":997,"o":"m 857 907 q 860 917 860 915 q 851 933 860 926 q 832 940 843 939 l 767 946 l 767 972 l 997 972 l 997 944 l 954 940 q 924 931 932 939 q 904 906 915 924 l 639 450 l 639 69 q 645 49 639 54 q 672 39 651 43 l 724 28 l 724 0 l 271 0 l 271 28 l 322 39 q 349 49 343 43 q 356 69 356 54 l 356 442 l 100 906 q 82 930 90 922 q 60 939 74 938 l 6 944 l 6 972 l 457 972 l 457 944 l 401 939 q 382 922 382 938 q 388 904 382 914 l 610 485 l 857 907 z "},"Z":{"ha":1058,"x_min":81,"x_max":969,"o":"m 81 0 l 81 36 l 653 931 l 438 931 q 308 907 354 931 q 237 838 263 883 q 182 701 211 792 l 147 701 l 147 972 l 969 972 l 969 936 l 396 42 l 675 42 q 804 66 758 42 q 876 137 850 90 q 931 276 901 183 l 965 276 l 965 0 l 81 0 z "},"[":{"ha":522,"x_min":147,"x_max":458,"o":"m 458 1086 l 458 1044 l 332 1044 l 332 -100 l 458 -100 l 458 -142 l 147 -142 l 147 1086 l 458 1086 z "},"\\":{"ha":417,"x_min":42,"x_max":375,"o":"m 375 -17 l 333 -17 l 42 989 l 83 989 l 375 -17 z "},"]":{"ha":522,"x_min":64,"x_max":375,"o":"m 64 -142 l 64 -100 l 190 -100 l 190 1044 l 64 1044 l 64 1086 l 375 1086 l 375 -142 l 64 -142 z "},"^":{"ha":764,"x_min":69,"x_max":694,"o":"m 651 442 l 382 938 l 113 442 l 69 442 l 368 989 l 396 989 l 694 442 l 651 442 z "},"_":{"ha":722,"x_min":0,"x_max":722,"o":"m 0 -147 l 0 -108 l 722 -108 l 722 -147 l 0 -147 z "},"`":{"ha":611,"x_min":146,"x_max":467,"o":"m 224 997 q 333 902 265 954 q 414 840 401 850 l 467 801 l 460 786 q 298 823 390 797 q 146 876 206 849 q 169 949 147 915 q 224 997 192 982 z "},"a":{"ha":894,"x_min":53,"x_max":867,"o":"m 581 0 q 526 16 542 0 q 510 69 510 32 l 510 76 q 244 -14 417 -14 q 103 27 154 -14 q 53 154 53 68 q 103 289 53 240 q 251 358 154 338 q 510 383 349 379 l 510 485 q 479 597 510 563 q 372 631 449 631 q 253 613 308 631 q 142 561 199 596 l 124 588 q 284 663 190 635 q 494 692 378 692 q 718 630 651 692 q 785 451 785 568 l 785 67 q 791 46 785 51 q 818 36 797 40 l 867 25 l 867 0 l 581 0 m 400 74 q 510 121 460 74 l 510 346 q 392 322 432 340 q 337 268 351 303 q 322 174 322 233 q 341 97 322 121 q 400 74 360 74 z "},"b":{"ha":1036,"x_min":33,"x_max":967,"o":"m 115 906 q 109 926 115 921 q 82 936 103 932 l 33 947 l 33 972 l 367 1014 l 393 1014 l 393 622 q 632 692 486 692 q 876 608 786 692 q 967 344 967 524 q 876 71 967 158 q 632 -17 785 -17 q 390 78 476 -17 l 390 0 l 33 0 l 33 25 l 82 36 q 109 46 103 40 q 115 67 115 51 l 115 906 m 543 633 q 393 581 457 633 l 393 121 q 465 65 425 86 q 550 43 506 43 q 628 74 600 43 q 669 170 657 106 q 681 344 681 235 q 650 566 681 499 q 543 633 619 633 z "},"c":{"ha":883,"x_min":69,"x_max":819,"o":"m 519 692 q 804 636 693 692 l 788 454 l 761 454 q 684 606 732 557 q 544 656 636 656 q 401 585 443 656 q 358 375 358 514 q 376 189 358 260 q 442 81 394 118 q 575 44 489 44 q 694 63 640 44 q 801 118 749 82 l 819 92 q 673 13 754 42 q 483 -17 592 -17 q 178 74 288 -17 q 69 346 69 164 q 183 605 69 518 q 519 692 297 692 z "},"d":{"ha":1036,"x_min":69,"x_max":1003,"o":"m 717 0 q 663 19 679 0 q 646 78 646 39 q 404 -17 557 -17 q 160 71 251 -17 q 69 344 69 158 q 160 608 69 524 q 404 692 250 692 q 544 672 488 692 q 643 622 600 653 l 643 906 q 637 926 643 921 q 610 936 631 932 l 561 947 l 561 972 l 894 1014 l 921 1014 l 921 67 q 927 46 921 51 q 954 36 933 40 l 1003 25 l 1003 0 l 717 0 m 486 43 q 643 121 568 43 l 643 581 q 493 633 576 633 q 386 566 417 633 q 356 344 356 499 q 367 170 356 235 q 408 74 379 106 q 486 43 436 43 z "},"e":{"ha":914,"x_min":69,"x_max":847,"o":"m 356 356 q 405 121 357 201 q 585 40 453 40 q 701 60 650 40 q 806 115 751 79 l 824 89 q 482 -17 694 -17 q 180 76 290 -17 q 69 346 69 168 q 182 603 69 514 q 497 692 294 692 q 692 656 613 692 q 809 559 771 619 q 847 425 847 499 q 840 356 847 388 l 356 356 m 489 658 q 385 594 413 658 q 356 392 357 531 l 589 392 l 589 496 q 569 619 589 581 q 489 658 549 658 z "},"f":{"ha":625,"x_min":28,"x_max":644,"o":"m 118 675 l 118 786 q 189 958 118 901 q 424 1014 260 1014 q 644 972 558 1014 l 628 790 l 599 790 q 554 905 571 869 q 510 960 538 940 q 436 981 483 981 q 375 964 394 981 q 356 913 356 947 q 361 858 356 882 q 376 801 367 833 q 388 759 383 781 q 393 715 393 738 l 393 675 l 561 675 l 561 639 l 393 639 l 393 68 q 399 47 393 53 q 426 38 406 42 l 478 25 l 478 0 l 36 0 l 36 25 l 85 36 q 112 46 106 40 q 118 67 118 51 l 118 639 l 28 639 l 28 675 l 118 675 z "},"g":{"ha":961,"x_min":81,"x_max":906,"o":"m 822 665 q 725 681 767 681 q 663 665 686 681 q 839 465 839 615 q 743 291 839 344 q 472 238 647 238 q 301 256 374 238 q 226 241 258 253 q 193 210 193 229 q 211 178 193 189 q 268 162 229 168 q 397 147 307 156 l 633 125 q 792 94 733 115 q 878 31 851 72 q 906 -76 906 -10 q 841 -223 906 -165 q 675 -307 776 -281 q 458 -333 574 -333 q 187 -288 293 -333 q 81 -151 81 -243 q 126 -61 81 -93 q 247 -19 172 -29 q 89 129 89 18 q 236 276 89 250 q 106 465 106 333 q 201 638 106 586 q 472 689 296 689 q 619 675 557 686 q 732 776 660 736 q 906 815 804 815 l 872 656 l 857 656 l 822 665 m 472 272 q 560 319 538 272 q 583 465 583 365 q 560 608 583 561 q 472 654 538 654 q 384 608 407 654 q 361 465 361 561 q 384 319 361 365 q 472 272 407 272 m 392 -43 q 289 -28 318 -33 q 271 -126 271 -67 q 313 -254 271 -212 q 468 -296 354 -296 q 675 -263 601 -296 q 749 -167 749 -231 q 734 -112 749 -131 q 686 -83 719 -93 q 588 -65 653 -72 l 392 -43 z "},"h":{"ha":1042,"x_min":33,"x_max":1011,"o":"m 929 67 q 935 46 929 51 q 963 36 942 40 l 1011 25 l 1011 0 l 722 0 q 668 19 685 0 q 651 78 651 39 l 651 500 q 631 589 651 563 q 564 615 611 615 q 393 546 481 615 l 393 67 q 399 45 393 51 q 425 35 406 39 l 472 25 l 472 0 l 33 0 l 33 25 l 82 36 q 109 46 103 40 q 115 67 115 51 l 115 906 q 109 926 115 921 q 82 936 103 932 l 33 947 l 33 972 l 367 1014 l 393 1014 l 393 589 q 521 662 446 632 q 689 692 596 692 q 874 638 818 692 q 929 475 929 583 l 929 67 z "},"i":{"ha":514,"x_min":36,"x_max":478,"o":"m 257 781 q 153 810 192 781 q 114 897 114 840 q 153 984 114 954 q 257 1014 192 1014 q 361 984 322 1014 q 400 897 400 954 q 361 810 400 840 q 257 781 322 781 m 36 25 l 85 36 q 112 46 106 40 q 118 67 118 51 l 118 592 q 112 613 118 607 q 85 622 106 618 l 36 633 l 36 658 l 369 700 l 396 700 l 396 67 q 402 46 396 51 q 429 36 408 40 l 478 25 l 478 0 l 36 0 l 36 25 z "},"j":{"ha":539,"x_min":-74,"x_max":428,"o":"m 285 781 q 181 810 219 781 q 142 897 142 840 q 181 984 142 954 q 285 1014 219 1014 q 389 984 350 1014 q 428 897 428 954 q 389 810 428 840 q 285 781 350 781 m 146 592 q 140 613 146 607 q 113 622 133 618 l 64 633 l 64 658 l 397 700 l 424 700 l 424 -43 q 363 -262 424 -192 q 153 -333 301 -333 q -74 -261 6 -333 l -56 -235 q 1 -270 -31 -257 q 67 -283 33 -283 q 128 -255 110 -283 q 146 -142 146 -226 l 146 592 z "},"k":{"ha":1039,"x_min":33,"x_max":1017,"o":"m 669 567 q 625 640 669 635 l 610 642 l 610 667 q 772 692 693 692 q 886 663 854 692 q 918 578 918 633 q 860 439 918 501 q 656 356 801 376 q 718 326 693 346 q 775 267 743 307 l 929 64 q 950 42 942 49 q 974 33 958 36 l 1017 25 l 1017 0 l 750 0 q 692 12 713 0 q 656 47 671 24 l 440 347 l 393 347 l 393 67 q 399 45 393 51 q 425 35 406 39 l 472 25 l 472 0 l 33 0 l 33 25 l 82 36 q 109 46 103 40 q 115 67 115 51 l 115 906 q 109 926 115 921 q 82 936 103 932 l 33 947 l 33 972 l 367 1014 l 393 1014 l 393 383 l 474 383 q 626 431 583 383 q 669 567 669 479 z "},"l":{"ha":508,"x_min":33,"x_max":475,"o":"m 33 25 l 82 36 q 109 46 103 40 q 115 67 115 51 l 115 906 q 109 926 115 921 q 82 936 103 932 l 33 947 l 33 972 l 367 1014 l 393 1014 l 393 67 q 399 46 393 51 q 426 36 406 40 l 475 25 l 475 0 l 33 0 l 33 25 z "},"m":{"ha":1539,"x_min":33,"x_max":1508,"o":"m 390 603 q 514 666 443 640 q 669 692 585 692 q 889 589 842 692 q 1017 662 942 632 q 1186 692 1093 692 q 1371 638 1315 692 q 1426 475 1426 583 l 1426 67 q 1433 46 1426 51 q 1460 36 1439 40 l 1508 25 l 1508 0 l 1219 0 q 1165 19 1182 0 q 1149 78 1149 39 l 1149 500 q 1128 589 1149 563 q 1061 615 1108 615 q 901 554 986 615 q 910 475 910 519 l 910 67 q 916 46 910 51 q 943 36 922 40 l 992 25 l 992 0 l 703 0 q 649 19 665 0 q 632 78 632 39 l 632 500 q 612 589 632 563 q 544 615 592 615 q 393 560 471 615 l 393 67 q 399 45 393 51 q 425 35 406 39 l 472 25 l 472 0 l 33 0 l 33 25 l 82 36 q 109 46 103 40 q 115 67 115 51 l 115 592 q 109 613 115 607 q 82 622 103 618 l 33 633 l 33 658 l 367 700 l 390 700 l 390 603 z "},"n":{"ha":1042,"x_min":33,"x_max":1011,"o":"m 929 67 q 935 46 929 51 q 963 36 942 40 l 1011 25 l 1011 0 l 722 0 q 668 19 685 0 q 651 78 651 39 l 651 500 q 631 589 651 563 q 564 615 611 615 q 393 546 481 615 l 393 67 q 399 45 393 51 q 425 35 406 39 l 472 25 l 472 0 l 33 0 l 33 25 l 82 36 q 109 46 103 40 q 115 67 115 51 l 115 592 q 109 613 115 607 q 82 622 103 618 l 33 633 l 33 658 l 367 700 l 390 700 l 390 588 q 519 661 443 631 q 689 692 596 692 q 874 638 818 692 q 929 475 929 583 l 929 67 z "},"o":{"ha":1006,"x_min":69,"x_max":936,"o":"m 936 338 q 824 71 936 158 q 503 -17 713 -17 q 181 71 293 -17 q 69 338 69 158 q 181 604 69 517 q 503 692 293 692 q 824 604 713 692 q 936 338 936 517 m 358 338 q 370 147 358 214 q 413 50 382 81 q 503 19 443 19 q 593 50 563 19 q 635 147 624 81 q 647 338 647 214 q 635 528 647 461 q 593 625 624 594 q 503 656 563 656 q 413 625 443 656 q 370 528 382 594 q 358 338 358 461 z "},"p":{"ha":1036,"x_min":33,"x_max":967,"o":"m 33 -289 l 82 -278 q 109 -268 103 -274 q 115 -247 115 -262 l 115 592 q 109 613 115 607 q 82 622 103 618 l 33 633 l 33 658 l 367 700 l 390 700 l 390 619 q 632 692 483 692 q 876 608 786 692 q 967 346 967 525 q 876 74 967 161 q 632 -14 786 -14 q 393 76 478 -14 l 393 -247 q 399 -268 393 -262 q 426 -278 406 -274 l 475 -289 l 475 -314 l 33 -314 l 33 -289 m 543 633 q 393 581 457 633 l 393 124 q 465 67 425 89 q 550 46 506 46 q 628 76 600 46 q 669 172 657 107 q 681 346 681 236 q 650 567 681 500 q 543 633 619 633 z "},"q":{"ha":1036,"x_min":72,"x_max":1006,"o":"m 924 700 l 924 -247 q 930 -268 924 -262 q 957 -278 936 -274 l 1006 -289 l 1006 -314 l 564 -314 l 564 -289 l 613 -278 q 640 -268 633 -274 q 646 -247 646 -262 l 646 76 q 407 -14 558 -14 q 163 74 253 -14 q 72 346 72 161 q 163 608 72 525 q 407 692 253 692 q 549 672 493 692 q 649 619 606 651 l 649 671 l 900 700 l 924 700 m 489 46 q 646 124 571 46 l 646 581 q 496 633 579 633 q 389 567 419 633 q 358 346 358 500 q 370 172 358 236 q 410 76 382 107 q 489 46 439 46 z "},"r":{"ha":750,"x_min":33,"x_max":708,"o":"m 390 564 q 636 688 511 688 q 708 676 682 688 l 688 460 l 678 460 l 393 522 l 393 67 q 399 45 393 51 q 425 35 406 39 l 472 25 l 472 0 l 33 0 l 33 25 l 82 36 q 109 46 103 40 q 115 67 115 51 l 115 592 q 109 613 115 607 q 82 622 103 618 l 33 633 l 33 658 l 367 700 l 390 700 l 390 564 z "},"s":{"ha":772,"x_min":67,"x_max":708,"o":"m 372 17 q 469 36 438 17 q 500 104 500 56 q 483 158 500 138 q 431 196 467 179 q 315 242 394 213 q 124 342 181 290 q 67 486 67 394 q 144 641 67 590 q 381 692 222 692 q 539 676 461 692 q 660 639 617 660 l 643 472 l 619 472 q 529 613 582 565 q 376 661 476 661 q 278 644 313 661 q 243 581 243 626 q 259 529 243 549 q 309 493 275 510 q 422 444 343 476 q 594 365 536 399 q 681 289 653 332 q 708 181 708 246 q 628 30 708 76 q 389 -17 549 -17 q 212 -1 304 -17 q 74 36 119 15 l 93 225 l 117 225 q 206 66 142 115 q 372 17 269 17 z "},"t":{"ha":619,"x_min":31,"x_max":594,"o":"m 31 639 l 31 675 q 94 682 74 675 q 136 707 115 689 l 383 929 l 396 929 l 396 675 l 575 675 l 575 639 l 396 639 l 396 172 q 412 78 396 106 q 467 51 428 51 q 521 64 497 51 q 572 107 544 76 l 594 81 q 336 -17 507 -17 q 171 32 221 -17 q 121 183 121 81 l 121 639 l 31 639 z "},"u":{"ha":1036,"x_min":28,"x_max":1003,"o":"m 643 592 q 637 613 643 607 q 610 622 631 618 l 561 633 l 561 658 l 897 700 l 921 700 l 921 67 q 927 46 921 51 q 954 36 933 40 l 1003 25 l 1003 0 l 721 0 q 663 17 681 0 q 646 72 646 35 l 646 88 q 519 14 596 44 q 350 -17 443 -17 q 165 38 221 -17 q 110 200 110 92 l 110 592 q 103 613 110 607 q 76 622 97 618 l 28 633 l 28 658 l 364 700 l 388 700 l 388 175 q 408 86 388 113 q 475 60 428 60 q 643 129 558 60 l 643 592 z "},"v":{"ha":808,"x_min":6,"x_max":803,"o":"m 406 646 q 374 619 374 639 q 381 597 374 611 l 542 274 l 693 626 q 697 640 697 635 q 679 650 697 649 l 643 654 l 643 675 l 803 675 l 803 654 l 767 649 q 743 642 750 646 q 729 622 736 638 l 447 -25 l 422 -25 l 86 617 q 70 635 79 629 q 47 643 61 640 l 6 654 l 6 675 l 442 675 l 442 654 l 406 646 z "},"w":{"ha":1283,"x_min":6,"x_max":1278,"o":"m 881 646 q 849 619 849 639 q 856 597 849 611 l 1017 274 l 1181 626 q 1182 635 1182 629 q 1175 644 1182 642 q 1154 650 1168 647 l 1118 654 l 1118 675 l 1278 675 l 1278 654 l 1242 649 q 1218 642 1225 646 q 1204 622 1211 638 l 922 -25 l 897 -25 l 651 443 l 447 -25 l 422 -25 l 86 617 q 70 635 79 629 q 47 643 61 640 l 6 654 l 6 675 l 431 675 l 431 654 l 406 649 q 374 619 374 642 q 381 597 374 611 l 542 274 l 631 482 l 561 617 q 547 637 554 631 q 528 646 539 643 l 494 654 l 494 675 l 917 675 l 917 654 l 881 646 z "},"x":{"ha":897,"x_min":14,"x_max":883,"o":"m 675 626 q 682 640 682 633 q 667 651 682 649 l 629 654 l 629 675 l 796 675 l 796 654 l 763 649 q 735 642 743 646 q 711 622 726 638 l 532 424 l 796 58 q 815 41 806 46 q 838 33 824 36 l 883 21 l 883 0 l 432 0 l 432 21 l 476 29 q 501 49 501 33 q 489 78 501 60 l 358 258 l 167 49 q 160 35 160 42 q 175 24 160 26 l 213 21 l 213 0 l 46 0 l 46 21 l 79 26 q 107 33 99 29 q 131 53 115 38 l 340 283 l 101 617 q 83 634 92 629 q 60 642 74 639 l 14 654 l 14 675 l 465 675 l 465 654 l 421 646 q 396 626 396 642 q 408 597 396 617 l 515 449 l 675 626 z "},"y":{"ha":808,"x_min":6,"x_max":803,"o":"m 406 646 q 374 619 374 639 q 381 597 374 611 l 542 274 l 693 626 q 697 640 697 635 q 679 650 697 649 l 643 654 l 643 675 l 803 675 l 803 654 l 767 649 q 743 642 750 646 q 729 622 736 638 l 458 0 q 367 -190 403 -129 q 288 -283 332 -250 q 171 -333 244 -315 l 96 -122 q 275 -91 190 -118 q 421 -22 360 -64 l 86 617 q 70 635 79 629 q 47 643 61 640 l 6 654 l 6 675 l 442 675 l 442 654 l 406 646 z "},"z":{"ha":783,"x_min":44,"x_max":733,"o":"m 515 35 q 613 49 579 35 q 667 94 647 63 q 706 188 686 125 l 733 188 l 733 0 l 44 0 l 44 28 l 449 640 l 296 640 q 198 627 232 640 q 144 584 164 614 q 106 493 125 554 l 78 493 l 78 675 l 731 675 l 731 647 l 326 35 l 515 35 z "},"{":{"ha":528,"x_min":86,"x_max":458,"o":"m 149 500 q 179 515 171 503 q 188 549 188 528 q 183 590 188 568 q 176 629 181 608 q 168 674 172 650 q 148 793 154 750 q 142 875 142 836 q 193 1022 142 967 q 367 1082 244 1076 l 458 1086 l 458 1047 l 371 1042 q 323 1026 336 1040 q 310 988 310 1013 q 331 867 310 965 q 360 717 349 782 q 371 594 371 651 q 344 510 371 540 q 240 472 318 481 q 344 434 318 464 q 371 350 371 404 q 360 228 371 293 q 331 78 349 163 q 310 -43 310 -21 q 323 -82 310 -68 q 371 -97 336 -96 l 458 -103 l 458 -142 l 367 -137 q 193 -77 244 -132 q 142 69 142 -22 q 148 151 142 108 q 168 271 154 194 q 176 315 172 294 q 183 354 181 336 q 188 396 188 378 q 179 429 188 417 q 149 444 171 442 l 86 454 l 86 490 l 149 500 z "},"|":{"ha":347,"x_min":153,"x_max":194,"o":"m 194 1086 l 194 -142 l 153 -142 l 153 1086 l 194 1086 z "},"}":{"ha":528,"x_min":69,"x_max":442,"o":"m 379 444 q 349 429 357 442 q 340 396 340 417 q 344 354 340 378 q 351 315 347 336 q 360 271 356 294 q 380 151 374 194 q 386 69 386 108 q 335 -77 386 -22 q 161 -137 283 -132 l 69 -142 l 69 -103 l 157 -97 q 205 -82 192 -96 q 218 -43 218 -68 q 197 78 218 -21 q 168 228 179 163 q 157 350 157 293 q 183 434 157 404 q 288 472 210 464 q 183 510 210 481 q 157 594 157 540 q 168 717 157 651 q 197 867 179 782 q 218 988 218 965 q 205 1026 218 1013 q 157 1042 192 1040 l 69 1047 l 69 1086 l 161 1082 q 335 1022 283 1076 q 386 875 386 967 q 380 793 386 836 q 360 674 374 750 q 351 629 356 650 q 344 590 347 608 q 340 549 340 568 q 349 515 340 528 q 379 500 357 503 l 442 490 l 442 454 l 379 444 z "},"~":{"ha":792,"x_min":106,"x_max":686,"o":"m 565 458 q 619 484 597 458 q 663 558 640 510 l 686 546 q 624 419 671 475 q 511 364 578 364 q 454 377 486 364 q 375 415 422 390 q 287 456 319 443 q 226 469 254 469 q 173 444 194 469 q 129 369 151 418 l 106 382 q 167 508 121 453 q 281 564 214 564 q 338 551 306 564 q 417 513 369 538 q 505 472 472 485 q 565 458 538 458 z "}," ":{"ha":403,"x_min":0,"x_max":0,"o":""},"À":{"ha":1067,"x_min":25,"x_max":1042,"o":"m 314 1267 q 424 1172 356 1224 q 504 1110 492 1119 l 557 1071 l 550 1056 q 388 1092 481 1067 q 236 1146 296 1118 q 260 1218 238 1185 q 314 1267 282 1251 m 583 28 l 643 33 q 663 49 663 36 q 658 65 663 56 l 567 268 l 244 268 l 161 65 q 157 49 157 56 q 176 33 157 36 l 236 28 l 236 0 l 25 0 l 25 28 l 76 33 q 100 42 93 35 q 115 67 107 49 l 500 988 l 544 988 l 951 67 q 967 42 960 49 q 990 33 974 35 l 1042 28 l 1042 0 l 583 0 l 583 28 m 549 310 l 399 642 l 261 310 l 549 310 z "},"Á":{"ha":1067,"x_min":25,"x_max":1042,"o":"m 739 1267 q 793 1218 771 1251 q 817 1146 815 1185 q 665 1092 757 1118 q 503 1056 572 1067 l 496 1071 l 549 1110 q 629 1172 561 1119 q 739 1267 697 1224 m 583 28 l 643 33 q 663 49 663 36 q 658 65 663 56 l 567 268 l 244 268 l 161 65 q 157 49 157 56 q 176 33 157 36 l 236 28 l 236 0 l 25 0 l 25 28 l 76 33 q 100 42 93 35 q 115 67 107 49 l 500 988 l 544 988 l 951 67 q 967 42 960 49 q 990 33 974 35 l 1042 28 l 1042 0 l 583 0 l 583 28 m 549 310 l 399 642 l 261 310 l 549 310 z "},"Â":{"ha":1067,"x_min":25,"x_max":1042,"o":"m 556 1267 q 742 1076 638 1164 l 726 1056 q 519 1151 625 1090 q 313 1056 414 1090 l 297 1076 q 483 1267 397 1158 l 556 1267 m 583 28 l 643 33 q 663 49 663 36 q 658 65 663 56 l 567 268 l 244 268 l 161 65 q 157 49 157 56 q 176 33 157 36 l 236 28 l 236 0 l 25 0 l 25 28 l 76 33 q 100 42 93 35 q 115 67 107 49 l 500 988 l 544 988 l 951 67 q 967 42 960 49 q 990 33 974 35 l 1042 28 l 1042 0 l 583 0 l 583 28 m 549 310 l 399 642 l 261 310 l 549 310 z "},"Ã":{"ha":1067,"x_min":25,"x_max":1042,"o":"m 638 1053 q 576 1065 613 1053 q 446 1115 539 1078 l 396 1135 q 364 1140 383 1140 q 332 1133 347 1140 q 307 1114 317 1126 l 274 1072 l 257 1079 q 294 1167 278 1133 q 337 1226 310 1200 q 401 1253 364 1253 q 463 1240 426 1253 q 593 1190 500 1228 l 643 1171 q 675 1165 656 1165 q 707 1172 692 1165 q 732 1192 722 1179 l 765 1233 l 782 1226 q 745 1139 761 1172 q 702 1079 729 1106 q 638 1053 675 1053 m 583 28 l 643 33 q 663 49 663 36 q 658 65 663 56 l 567 268 l 244 268 l 161 65 q 157 49 157 56 q 176 33 157 36 l 236 28 l 236 0 l 25 0 l 25 28 l 76 33 q 100 42 93 35 q 115 67 107 49 l 500 988 l 544 988 l 951 67 q 967 42 960 49 q 990 33 974 35 l 1042 28 l 1042 0 l 583 0 l 583 28 m 549 310 l 399 642 l 261 310 l 549 310 z "},"Ä":{"ha":1056,"x_min":25,"x_max":1042,"o":"m 361 1065 q 284 1094 314 1065 q 254 1167 254 1124 q 284 1239 254 1210 q 361 1268 314 1268 q 438 1239 408 1268 q 468 1167 468 1210 q 438 1094 468 1124 q 361 1065 408 1065 m 692 1065 q 615 1094 644 1065 q 585 1167 585 1124 q 615 1239 585 1210 q 692 1268 644 1268 q 769 1239 739 1268 q 799 1167 799 1210 q 769 1094 799 1124 q 692 1065 739 1065 m 583 28 l 643 33 q 663 49 663 36 q 658 65 663 56 l 567 268 l 244 268 l 161 65 q 157 49 157 56 q 176 33 157 36 l 236 28 l 236 0 l 25 0 l 25 28 l 76 33 q 100 42 93 35 q 115 67 107 49 l 500 988 l 544 988 l 951 67 q 967 42 960 49 q 990 33 974 35 l 1042 28 l 1042 0 l 583 0 l 583 28 m 549 310 l 399 642 l 261 310 l 549 310 z "},"Ā":{"ha":1067,"x_min":25,"x_max":1042,"o":"m 783 1114 l 783 1081 l 256 1081 l 256 1114 l 783 1114 m 583 28 l 643 33 q 663 49 663 36 q 658 65 663 56 l 567 268 l 244 268 l 161 65 q 157 49 157 56 q 176 33 157 36 l 236 28 l 236 0 l 25 0 l 25 28 l 76 33 q 100 42 93 35 q 115 67 107 49 l 500 988 l 544 988 l 951 67 q 967 42 960 49 q 990 33 974 35 l 1042 28 l 1042 0 l 583 0 l 583 28 m 549 310 l 399 642 l 261 310 l 549 310 z "},"Ă":{"ha":1067,"x_min":25,"x_max":1042,"o":"m 519 1056 q 378 1112 425 1056 q 328 1268 331 1168 l 356 1268 q 405 1188 369 1213 q 519 1163 440 1163 q 634 1188 599 1163 q 683 1268 669 1213 l 711 1268 q 661 1112 708 1168 q 519 1056 614 1056 m 583 28 l 643 33 q 663 49 663 36 q 658 65 663 56 l 567 268 l 244 268 l 161 65 q 157 49 157 56 q 176 33 157 36 l 236 28 l 236 0 l 25 0 l 25 28 l 76 33 q 100 42 93 35 q 115 67 107 49 l 500 988 l 544 988 l 951 67 q 967 42 960 49 q 990 33 974 35 l 1042 28 l 1042 0 l 583 0 l 583 28 m 549 310 l 399 642 l 261 310 l 549 310 z "},"Å":{"ha":1056,"x_min":25,"x_max":1031,"o":"m 515 1215 q 628 1182 583 1215 q 674 1083 674 1149 q 640 994 674 1026 q 553 954 607 963 l 940 67 q 956 42 949 49 q 979 33 963 35 l 1031 28 l 1031 0 l 572 0 l 572 28 l 632 33 q 651 50 651 36 q 647 65 651 56 l 551 282 l 247 282 l 158 65 q 154 50 154 56 q 174 33 154 36 l 233 28 l 233 0 l 25 0 l 25 28 l 76 33 q 100 42 93 35 q 115 67 107 49 l 481 954 q 391 994 425 963 q 357 1083 357 1026 q 402 1182 357 1149 q 515 1215 447 1215 m 515 975 q 561 1002 547 975 q 575 1083 575 1029 q 561 1165 575 1138 q 515 1192 547 1192 q 469 1165 483 1192 q 456 1083 456 1138 q 469 1002 456 1029 q 515 975 483 975 m 533 324 l 394 640 l 264 324 l 533 324 z "},"Ǻ":{"ha":1056,"x_min":25,"x_max":1031,"o":"m 731 1475 q 785 1426 763 1460 q 808 1354 807 1393 q 656 1301 749 1326 q 494 1264 564 1275 l 488 1279 l 540 1318 q 621 1380 553 1328 q 731 1475 689 1432 m 515 1215 q 628 1182 583 1215 q 674 1083 674 1149 q 640 994 674 1026 q 553 954 607 963 l 940 67 q 956 42 949 49 q 979 33 963 35 l 1031 28 l 1031 0 l 572 0 l 572 28 l 632 33 q 651 50 651 36 q 647 65 651 56 l 551 282 l 247 282 l 158 65 q 154 50 154 56 q 174 33 154 36 l 233 28 l 233 0 l 25 0 l 25 28 l 76 33 q 100 42 93 35 q 115 67 107 49 l 481 954 q 391 994 425 963 q 357 1083 357 1026 q 402 1182 357 1149 q 515 1215 447 1215 m 515 975 q 561 1002 547 975 q 575 1083 575 1029 q 561 1165 575 1138 q 515 1192 547 1192 q 469 1165 483 1192 q 456 1083 456 1138 q 469 1002 456 1029 q 515 975 483 975 m 533 324 l 394 640 l 264 324 l 533 324 z "},"Ą":{"ha":1067,"x_min":25,"x_max":1042,"o":"m 958 -212 q 806 -285 894 -285 q 696 -258 733 -285 q 658 -182 658 -232 q 709 -69 658 -115 q 842 0 760 -24 l 583 0 l 583 28 l 643 33 q 663 49 663 36 q 658 65 663 56 l 567 268 l 244 268 l 161 65 q 157 49 157 56 q 176 33 157 36 l 236 28 l 236 0 l 25 0 l 25 28 l 76 33 q 100 42 93 35 q 115 67 107 49 l 500 988 l 544 988 l 951 67 q 967 42 960 49 q 990 33 974 35 l 1042 28 l 1042 0 l 879 0 q 814 -58 833 -22 q 794 -147 794 -93 q 813 -210 794 -190 q 875 -229 832 -229 q 949 -197 908 -229 l 958 -212 m 549 310 l 399 642 l 261 310 l 549 310 z "},"Æ":{"ha":1450,"x_min":22,"x_max":1389,"o":"m 621 933 l 569 944 l 569 972 l 1369 972 l 1369 701 l 1332 701 q 1276 839 1300 794 q 1206 907 1251 883 q 1079 931 1161 931 l 938 931 l 938 518 l 1240 518 l 1240 476 l 938 476 l 938 42 l 1093 42 q 1221 67 1175 42 q 1292 138 1267 92 q 1350 276 1318 183 l 1389 276 l 1389 0 l 569 0 l 569 28 l 621 39 q 648 49 642 43 q 654 69 654 54 l 654 307 l 315 307 l 171 65 q 164 46 164 54 q 181 33 164 36 l 239 28 l 239 0 l 22 0 l 22 28 l 76 33 q 101 42 93 35 q 119 67 108 49 l 642 928 l 621 933 m 654 868 l 340 349 l 654 349 l 654 868 z "},"Ǽ":{"ha":1450,"x_min":22,"x_max":1389,"o":"m 1043 1267 q 1097 1218 1075 1251 q 1121 1146 1119 1185 q 969 1092 1061 1118 q 807 1056 876 1067 l 800 1071 l 853 1110 q 933 1172 865 1119 q 1043 1267 1001 1224 m 621 933 l 569 944 l 569 972 l 1369 972 l 1369 701 l 1332 701 q 1276 839 1300 794 q 1206 907 1251 883 q 1079 931 1161 931 l 938 931 l 938 518 l 1240 518 l 1240 476 l 938 476 l 938 42 l 1093 42 q 1221 67 1175 42 q 1292 138 1267 92 q 1350 276 1318 183 l 1389 276 l 1389 0 l 569 0 l 569 28 l 621 39 q 648 49 642 43 q 654 69 654 54 l 654 307 l 315 307 l 171 65 q 164 46 164 54 q 181 33 164 36 l 239 28 l 239 0 l 22 0 l 22 28 l 76 33 q 101 42 93 35 q 119 67 108 49 l 642 928 l 621 933 m 654 868 l 340 349 l 654 349 l 654 868 z "},"Ć":{"ha":1047,"x_min":78,"x_max":986,"o":"m 744 1267 q 799 1218 776 1251 q 822 1146 821 1185 q 670 1092 763 1118 q 508 1056 578 1067 l 501 1071 l 554 1110 q 635 1172 567 1119 q 744 1267 703 1224 m 703 53 q 841 78 779 53 q 958 147 903 103 l 986 117 q 827 22 925 60 q 611 -17 729 -17 q 228 106 378 -17 q 78 500 78 229 q 227 870 78 751 q 618 989 376 989 q 810 971 715 989 q 958 926 904 953 l 939 688 l 900 688 q 795 877 861 806 q 619 949 729 949 q 438 845 493 949 q 383 536 383 742 q 454 173 383 293 q 703 53 525 53 z "},"Ĉ":{"ha":1047,"x_min":78,"x_max":986,"o":"m 643 1267 q 829 1076 725 1164 l 814 1056 q 607 1151 713 1090 q 400 1056 501 1090 l 385 1076 q 571 1267 485 1158 l 643 1267 m 703 53 q 841 78 779 53 q 958 147 903 103 l 986 117 q 827 22 925 60 q 611 -17 729 -17 q 228 106 378 -17 q 78 500 78 229 q 227 870 78 751 q 618 989 376 989 q 810 971 715 989 q 958 926 904 953 l 939 688 l 900 688 q 795 877 861 806 q 619 949 729 949 q 438 845 493 949 q 383 536 383 742 q 454 173 383 293 q 703 53 525 53 z "},"Č":{"ha":1047,"x_min":78,"x_max":986,"o":"m 571 1056 q 385 1246 485 1164 l 400 1267 q 607 1171 501 1232 q 814 1267 713 1232 l 829 1246 q 643 1056 725 1158 l 571 1056 m 703 53 q 841 78 779 53 q 958 147 903 103 l 986 117 q 827 22 925 60 q 611 -17 729 -17 q 228 106 378 -17 q 78 500 78 229 q 227 870 78 751 q 618 989 376 989 q 810 971 715 989 q 958 926 904 953 l 939 688 l 900 688 q 795 877 861 806 q 619 949 729 949 q 438 845 493 949 q 383 536 383 742 q 454 173 383 293 q 703 53 525 53 z "},"Ċ":{"ha":1047,"x_min":78,"x_max":986,"o":"m 607 1060 q 519 1086 553 1060 q 486 1164 486 1113 q 519 1242 486 1215 q 607 1268 553 1268 q 694 1242 661 1268 q 728 1164 728 1215 q 694 1086 728 1113 q 607 1060 661 1060 m 703 53 q 841 78 779 53 q 958 147 903 103 l 986 117 q 827 22 925 60 q 611 -17 729 -17 q 228 106 378 -17 q 78 500 78 229 q 227 870 78 751 q 618 989 376 989 q 810 971 715 989 q 958 926 904 953 l 939 688 l 900 688 q 795 877 861 806 q 619 949 729 949 q 438 845 493 949 q 383 536 383 742 q 454 173 383 293 q 703 53 525 53 z "},"Ç":{"ha":1047,"x_min":78,"x_max":986,"o":"m 538 -12 q 205 127 332 4 q 78 500 78 250 q 227 870 78 751 q 618 989 376 989 q 810 971 715 989 q 958 926 904 953 l 939 688 l 900 688 q 795 877 861 806 q 619 949 729 949 q 438 845 493 949 q 383 536 383 742 q 454 173 383 293 q 703 53 525 53 q 841 78 779 53 q 958 147 903 103 l 986 117 q 827 22 925 60 q 611 -17 729 -17 q 568 -15 582 -17 l 565 -50 q 706 -84 656 -54 q 757 -171 757 -114 q 709 -259 757 -229 q 589 -289 661 -289 q 517 -281 554 -289 q 457 -261 479 -272 l 467 -236 q 563 -254 506 -254 q 622 -241 603 -254 q 640 -196 640 -228 q 610 -135 640 -156 q 525 -106 581 -115 l 538 -12 z "},"Ď":{"ha":1136,"x_min":36,"x_max":1058,"o":"m 532 1056 q 346 1246 446 1164 l 361 1267 q 568 1171 463 1232 q 775 1267 674 1232 l 790 1246 q 604 1056 686 1158 l 532 1056 m 88 39 q 115 49 108 43 q 121 69 121 54 l 121 903 q 115 924 121 918 q 88 933 108 929 l 36 944 l 36 972 l 461 972 q 906 863 753 972 q 1058 486 1058 753 q 906 110 1058 219 q 461 0 753 0 l 36 0 l 36 28 l 88 39 m 404 42 l 461 42 q 639 83 576 42 q 726 218 701 124 q 751 486 751 313 q 726 754 751 660 q 639 890 701 849 q 461 931 576 931 l 404 931 l 404 42 z "},"Đ":{"ha":1136,"x_min":36,"x_max":1058,"o":"m 1058 486 q 906 110 1058 219 q 461 0 753 0 l 36 0 l 36 28 l 88 39 q 115 49 108 43 q 121 69 121 54 l 121 450 l 36 450 l 36 489 l 121 489 l 121 903 q 115 924 121 918 q 88 933 108 929 l 36 944 l 36 972 l 461 972 q 906 863 753 972 q 1058 486 1058 753 m 404 450 l 404 42 l 461 42 q 639 83 576 42 q 726 218 701 124 q 751 486 751 313 q 726 754 751 660 q 639 890 701 849 q 461 931 576 931 l 404 931 l 404 489 l 594 489 l 594 450 l 404 450 z "},"Ð":{"ha":1136,"x_min":36,"x_max":1058,"o":"m 1058 486 q 906 110 1058 219 q 461 0 753 0 l 36 0 l 36 28 l 88 39 q 115 49 108 43 q 121 69 121 54 l 121 450 l 36 450 l 36 489 l 121 489 l 121 903 q 115 924 121 918 q 88 933 108 929 l 36 944 l 36 972 l 461 972 q 906 863 753 972 q 1058 486 1058 753 m 404 450 l 404 42 l 461 42 q 639 83 576 42 q 726 218 701 124 q 751 486 751 313 q 726 754 751 660 q 639 890 701 849 q 461 931 576 931 l 404 931 l 404 489 l 594 489 l 594 450 l 404 450 z "},"È":{"ha":1000,"x_min":36,"x_max":911,"o":"m 433 1267 q 543 1172 475 1224 q 624 1110 611 1119 l 676 1071 l 669 1056 q 508 1092 600 1067 q 356 1146 415 1118 q 379 1218 357 1185 q 433 1267 401 1251 m 88 39 q 115 49 108 43 q 121 69 121 54 l 121 903 q 115 924 121 918 q 88 933 108 929 l 36 944 l 36 972 l 892 972 l 892 701 l 857 701 q 802 838 828 792 q 731 907 776 883 q 601 931 685 931 l 404 931 l 404 518 l 763 518 l 763 476 l 404 476 l 404 42 l 615 42 q 744 67 697 42 q 819 139 792 92 q 875 276 846 186 l 911 276 l 911 0 l 36 0 l 36 28 l 88 39 z "},"É":{"ha":1000,"x_min":36,"x_max":911,"o":"m 608 1267 q 663 1218 640 1251 q 686 1146 685 1185 q 534 1092 626 1118 q 372 1056 442 1067 l 365 1071 l 418 1110 q 499 1172 431 1119 q 608 1267 567 1224 m 88 39 q 115 49 108 43 q 121 69 121 54 l 121 903 q 115 924 121 918 q 88 933 108 929 l 36 944 l 36 972 l 892 972 l 892 701 l 857 701 q 802 838 828 792 q 731 907 776 883 q 601 931 685 931 l 404 931 l 404 518 l 763 518 l 763 476 l 404 476 l 404 42 l 615 42 q 744 67 697 42 q 819 139 792 92 q 875 276 846 186 l 911 276 l 911 0 l 36 0 l 36 28 l 88 39 z "},"Ê":{"ha":1000,"x_min":36,"x_max":911,"o":"m 564 1267 q 750 1076 646 1164 l 735 1056 q 528 1151 633 1090 q 321 1056 422 1090 l 306 1076 q 492 1267 406 1158 l 564 1267 m 88 39 q 115 49 108 43 q 121 69 121 54 l 121 903 q 115 924 121 918 q 88 933 108 929 l 36 944 l 36 972 l 892 972 l 892 701 l 857 701 q 802 838 828 792 q 731 907 776 883 q 601 931 685 931 l 404 931 l 404 518 l 763 518 l 763 476 l 404 476 l 404 42 l 615 42 q 744 67 697 42 q 819 139 792 92 q 875 276 846 186 l 911 276 l 911 0 l 36 0 l 36 28 l 88 39 z "},"Ě":{"ha":1000,"x_min":36,"x_max":911,"o":"m 519 1056 q 333 1246 433 1164 l 349 1267 q 556 1171 450 1232 q 763 1267 661 1232 l 778 1246 q 592 1056 674 1158 l 519 1056 m 88 39 q 115 49 108 43 q 121 69 121 54 l 121 903 q 115 924 121 918 q 88 933 108 929 l 36 944 l 36 972 l 892 972 l 892 701 l 857 701 q 802 838 828 792 q 731 907 776 883 q 601 931 685 931 l 404 931 l 404 518 l 763 518 l 763 476 l 404 476 l 404 42 l 615 42 q 744 67 697 42 q 819 139 792 92 q 875 276 846 186 l 911 276 l 911 0 l 36 0 l 36 28 l 88 39 z "},"Ë":{"ha":1000,"x_min":36,"x_max":911,"o":"m 349 1065 q 272 1094 301 1065 q 242 1167 242 1124 q 272 1239 242 1210 q 349 1268 301 1268 q 426 1239 396 1268 q 456 1167 456 1210 q 426 1094 456 1124 q 349 1065 396 1065 m 679 1065 q 602 1094 632 1065 q 572 1167 572 1124 q 602 1239 572 1210 q 679 1268 632 1268 q 756 1239 726 1268 q 786 1167 786 1210 q 756 1094 786 1124 q 679 1065 726 1065 m 88 39 q 115 49 108 43 q 121 69 121 54 l 121 903 q 115 924 121 918 q 88 933 108 929 l 36 944 l 36 972 l 892 972 l 892 701 l 857 701 q 802 838 828 792 q 731 907 776 883 q 601 931 685 931 l 404 931 l 404 518 l 763 518 l 763 476 l 404 476 l 404 42 l 615 42 q 744 67 697 42 q 819 139 792 92 q 875 276 846 186 l 911 276 l 911 0 l 36 0 l 36 28 l 88 39 z "},"Ē":{"ha":1000,"x_min":36,"x_max":911,"o":"m 792 1114 l 792 1081 l 264 1081 l 264 1114 l 792 1114 m 88 39 q 115 49 108 43 q 121 69 121 54 l 121 903 q 115 924 121 918 q 88 933 108 929 l 36 944 l 36 972 l 892 972 l 892 701 l 857 701 q 802 838 828 792 q 731 907 776 883 q 601 931 685 931 l 404 931 l 404 518 l 763 518 l 763 476 l 404 476 l 404 42 l 615 42 q 744 67 697 42 q 819 139 792 92 q 875 276 846 186 l 911 276 l 911 0 l 36 0 l 36 28 l 88 39 z "},"Ĕ":{"ha":1000,"x_min":36,"x_max":911,"o":"m 528 1056 q 386 1112 433 1056 q 336 1268 339 1168 l 364 1268 q 413 1188 378 1213 q 528 1163 449 1163 q 642 1188 607 1163 q 692 1268 678 1213 l 719 1268 q 669 1112 717 1168 q 528 1056 622 1056 m 88 39 q 115 49 108 43 q 121 69 121 54 l 121 903 q 115 924 121 918 q 88 933 108 929 l 36 944 l 36 972 l 892 972 l 892 701 l 857 701 q 802 838 828 792 q 731 907 776 883 q 601 931 685 931 l 404 931 l 404 518 l 763 518 l 763 476 l 404 476 l 404 42 l 615 42 q 744 67 697 42 q 819 139 792 92 q 875 276 846 186 l 911 276 l 911 0 l 36 0 l 36 28 l 88 39 z "},"Ė":{"ha":1000,"x_min":36,"x_max":911,"o":"m 528 1060 q 440 1086 474 1060 q 407 1164 407 1113 q 440 1242 407 1215 q 528 1268 474 1268 q 615 1242 582 1268 q 649 1164 649 1215 q 615 1086 649 1113 q 528 1060 582 1060 m 88 39 q 115 49 108 43 q 121 69 121 54 l 121 903 q 115 924 121 918 q 88 933 108 929 l 36 944 l 36 972 l 892 972 l 892 701 l 857 701 q 802 838 828 792 q 731 907 776 883 q 601 931 685 931 l 404 931 l 404 518 l 763 518 l 763 476 l 404 476 l 404 42 l 615 42 q 744 67 697 42 q 819 139 792 92 q 875 276 846 186 l 911 276 l 911 0 l 36 0 l 36 28 l 88 39 z "},"Ę":{"ha":1000,"x_min":36,"x_max":911,"o":"m 88 39 q 115 49 108 43 q 121 69 121 54 l 121 903 q 115 924 121 918 q 88 933 108 929 l 36 944 l 36 972 l 892 972 l 892 701 l 857 701 q 802 838 828 792 q 731 907 776 883 q 601 931 685 931 l 404 931 l 404 518 l 763 518 l 763 476 l 404 476 l 404 42 l 615 42 q 744 67 697 42 q 819 139 792 92 q 875 276 846 186 l 911 276 l 911 0 l 804 0 q 739 -58 758 -22 q 719 -147 719 -93 q 738 -210 719 -190 q 800 -229 757 -229 q 874 -197 833 -229 l 883 -212 q 731 -285 819 -285 q 621 -258 658 -285 q 583 -182 583 -232 q 634 -69 583 -115 q 767 0 685 -24 l 36 0 l 36 28 l 88 39 z "},"Ĝ":{"ha":1097,"x_min":78,"x_max":1003,"o":"m 654 1267 q 840 1076 736 1164 l 825 1056 q 618 1151 724 1090 q 411 1056 513 1090 l 396 1076 q 582 1267 496 1158 l 654 1267 m 383 536 q 415 251 383 358 q 520 93 447 143 q 717 43 593 43 l 761 43 l 761 385 l 624 385 l 624 426 l 1003 426 l 1003 61 q 930 45 972 56 q 865 29 888 35 q 719 -6 774 6 q 617 -17 664 -17 q 347 34 468 -17 q 152 200 226 85 q 78 500 78 315 q 229 870 78 751 q 628 989 381 989 q 827 971 731 989 q 978 926 924 953 l 958 688 l 919 688 q 813 877 881 806 q 629 949 746 949 q 440 845 497 949 q 383 536 383 742 z "},"Ğ":{"ha":1097,"x_min":78,"x_max":1003,"o":"m 632 1056 q 490 1112 538 1056 q 440 1268 443 1168 l 468 1268 q 517 1188 482 1213 q 632 1163 553 1163 q 747 1188 711 1163 q 796 1268 782 1213 l 824 1268 q 774 1112 821 1168 q 632 1056 726 1056 m 383 536 q 415 251 383 358 q 520 93 447 143 q 717 43 593 43 l 761 43 l 761 385 l 624 385 l 624 426 l 1003 426 l 1003 61 q 930 45 972 56 q 865 29 888 35 q 719 -6 774 6 q 617 -17 664 -17 q 347 34 468 -17 q 152 200 226 85 q 78 500 78 315 q 229 870 78 751 q 628 989 381 989 q 827 971 731 989 q 978 926 924 953 l 958 688 l 919 688 q 813 877 881 806 q 629 949 746 949 q 440 845 497 949 q 383 536 383 742 z "},"Ġ":{"ha":1097,"x_min":78,"x_max":1003,"o":"m 618 1060 q 531 1086 564 1060 q 497 1164 497 1113 q 531 1242 497 1215 q 618 1268 564 1268 q 706 1242 672 1268 q 739 1164 739 1215 q 706 1086 739 1113 q 618 1060 672 1060 m 383 536 q 415 251 383 358 q 520 93 447 143 q 717 43 593 43 l 761 43 l 761 385 l 624 385 l 624 426 l 1003 426 l 1003 61 q 930 45 972 56 q 865 29 888 35 q 719 -6 774 6 q 617 -17 664 -17 q 347 34 468 -17 q 152 200 226 85 q 78 500 78 315 q 229 870 78 751 q 628 989 381 989 q 827 971 731 989 q 978 926 924 953 l 958 688 l 919 688 q 813 877 881 806 q 629 949 746 949 q 440 845 497 949 q 383 536 383 742 z "},"Ģ":{"ha":1097,"x_min":78,"x_max":1003,"o":"m 383 536 q 415 251 383 358 q 520 93 447 143 q 717 43 593 43 l 761 43 l 761 385 l 624 385 l 624 426 l 1003 426 l 1003 61 q 930 45 972 56 q 865 29 888 35 q 719 -6 774 6 q 617 -17 664 -17 q 347 34 468 -17 q 152 200 226 85 q 78 500 78 315 q 229 870 78 751 q 628 989 381 989 q 827 971 731 989 q 978 926 924 953 l 958 688 l 919 688 q 813 877 881 806 q 629 949 746 949 q 440 845 497 949 q 383 536 383 742 m 644 -286 q 624 -287 638 -287 q 544 -259 571 -287 q 518 -186 518 -231 q 548 -111 518 -142 q 629 -81 578 -81 q 715 -110 683 -81 q 746 -197 746 -140 q 701 -349 746 -275 q 588 -476 657 -424 l 563 -453 q 626 -369 608 -406 q 644 -286 643 -333 z "},"Ĥ":{"ha":1172,"x_min":36,"x_max":1136,"o":"m 622 1294 q 808 1104 704 1192 l 793 1083 q 586 1179 692 1118 q 379 1083 481 1118 l 364 1104 q 550 1294 464 1186 l 622 1294 m 404 68 q 410 48 404 53 q 436 39 417 43 l 486 28 l 486 0 l 36 0 l 36 28 l 88 39 q 115 49 108 43 q 121 69 121 54 l 121 903 q 115 924 121 918 q 88 933 108 929 l 36 944 l 36 972 l 486 972 l 486 944 l 436 933 q 410 925 417 931 q 404 904 404 919 l 404 518 l 768 518 l 768 904 q 762 925 768 919 q 736 933 756 931 l 686 944 l 686 972 l 1136 972 l 1136 944 l 1085 933 q 1058 924 1064 929 q 1051 903 1051 918 l 1051 69 q 1058 49 1051 54 q 1085 39 1064 43 l 1136 28 l 1136 0 l 686 0 l 686 28 l 736 39 q 762 48 756 43 q 768 68 768 53 l 768 476 l 404 476 l 404 68 z "},"Ħ":{"ha":1172,"x_min":36,"x_max":1136,"o":"m 121 767 l 121 903 q 115 924 121 918 q 88 933 108 929 l 36 944 l 36 972 l 486 972 l 486 944 l 436 933 q 410 925 417 931 q 404 904 404 919 l 404 767 l 768 767 l 768 904 q 762 925 768 919 q 736 933 756 931 l 686 944 l 686 972 l 1136 972 l 1136 944 l 1085 933 q 1058 924 1064 929 q 1051 903 1051 918 l 1051 767 l 1136 767 l 1136 733 l 1051 733 l 1051 69 q 1058 49 1051 54 q 1085 39 1064 43 l 1136 28 l 1136 0 l 686 0 l 686 28 l 736 39 q 762 48 756 43 q 768 68 768 53 l 768 476 l 404 476 l 404 68 q 410 48 404 53 q 436 39 417 43 l 486 28 l 486 0 l 36 0 l 36 28 l 88 39 q 115 49 108 43 q 121 69 121 54 l 121 733 l 36 733 l 36 767 l 121 767 m 768 733 l 404 733 l 404 518 l 768 518 l 768 733 z "},"Ì":{"ha":536,"x_min":42,"x_max":494,"o":"m 146 1267 q 256 1172 188 1224 q 336 1110 324 1119 l 389 1071 l 382 1056 q 220 1092 313 1067 q 68 1146 128 1118 q 92 1218 69 1185 q 146 1267 114 1251 m 126 903 q 120 924 126 918 q 93 933 114 929 l 42 944 l 42 972 l 494 972 l 494 944 l 443 933 q 416 924 422 929 q 410 903 410 918 l 410 69 q 416 49 410 54 q 443 39 422 43 l 494 28 l 494 0 l 42 0 l 42 28 l 93 39 q 120 49 114 43 q 126 69 126 54 l 126 903 z "},"Í":{"ha":536,"x_min":42,"x_max":494,"o":"m 404 1267 q 458 1218 436 1251 q 482 1146 481 1185 q 330 1092 422 1118 q 168 1056 238 1067 l 161 1071 l 214 1110 q 294 1172 226 1119 q 404 1267 363 1224 m 126 903 q 120 924 126 918 q 93 933 114 929 l 42 944 l 42 972 l 494 972 l 494 944 l 443 933 q 416 924 422 929 q 410 903 410 918 l 410 69 q 416 49 410 54 q 443 39 422 43 l 494 28 l 494 0 l 42 0 l 42 28 l 93 39 q 120 49 114 43 q 126 69 126 54 l 126 903 z "},"Ĭ":{"ha":536,"x_min":42,"x_max":494,"o":"m 268 1056 q 126 1112 174 1056 q 76 1268 79 1168 l 104 1268 q 153 1188 118 1213 q 268 1163 189 1163 q 383 1188 347 1163 q 432 1268 418 1213 l 460 1268 q 410 1112 457 1168 q 268 1056 363 1056 m 126 903 q 120 924 126 918 q 93 933 114 929 l 42 944 l 42 972 l 494 972 l 494 944 l 443 933 q 416 924 422 929 q 410 903 410 918 l 410 69 q 416 49 410 54 q 443 39 422 43 l 494 28 l 494 0 l 42 0 l 42 28 l 93 39 q 120 49 114 43 q 126 69 126 54 l 126 903 z "},"Î":{"ha":536,"x_min":42,"x_max":494,"o":"m 304 1267 q 490 1076 386 1164 l 475 1056 q 268 1151 374 1090 q 61 1056 163 1090 l 46 1076 q 232 1267 146 1158 l 304 1267 m 126 903 q 120 924 126 918 q 93 933 114 929 l 42 944 l 42 972 l 494 972 l 494 944 l 443 933 q 416 924 422 929 q 410 903 410 918 l 410 69 q 416 49 410 54 q 443 39 422 43 l 494 28 l 494 0 l 42 0 l 42 28 l 93 39 q 120 49 114 43 q 126 69 126 54 l 126 903 z "},"Ĩ":{"ha":536,"x_min":6,"x_max":531,"o":"m 386 1053 q 324 1065 361 1053 q 194 1115 288 1078 l 144 1135 q 113 1140 132 1140 q 81 1133 96 1140 q 56 1114 65 1126 l 22 1072 l 6 1079 q 42 1167 26 1133 q 85 1226 58 1200 q 150 1253 113 1253 q 212 1240 175 1253 q 342 1190 249 1228 l 392 1171 q 424 1165 404 1165 q 456 1172 440 1165 q 481 1192 471 1179 l 514 1233 l 531 1226 q 494 1139 510 1172 q 451 1079 478 1106 q 386 1053 424 1053 m 126 903 q 120 924 126 918 q 93 933 114 929 l 42 944 l 42 972 l 494 972 l 494 944 l 443 933 q 416 924 422 929 q 410 903 410 918 l 410 69 q 416 49 410 54 q 443 39 422 43 l 494 28 l 494 0 l 42 0 l 42 28 l 93 39 q 120 49 114 43 q 126 69 126 54 l 126 903 z "},"Ï":{"ha":536,"x_min":-4,"x_max":540,"o":"m 103 1065 q 26 1094 56 1065 q -4 1167 -4 1124 q 26 1239 -4 1210 q 103 1268 56 1268 q 180 1239 150 1268 q 210 1167 210 1210 q 180 1094 210 1124 q 103 1065 150 1065 m 433 1065 q 356 1094 386 1065 q 326 1167 326 1124 q 356 1239 326 1210 q 433 1268 386 1268 q 510 1239 481 1268 q 540 1167 540 1210 q 510 1094 540 1124 q 433 1065 481 1065 m 126 903 q 120 924 126 918 q 93 933 114 929 l 42 944 l 42 972 l 494 972 l 494 944 l 443 933 q 416 924 422 929 q 410 903 410 918 l 410 69 q 416 49 410 54 q 443 39 422 43 l 494 28 l 494 0 l 42 0 l 42 28 l 93 39 q 120 49 114 43 q 126 69 126 54 l 126 903 z "},"Ī":{"ha":536,"x_min":4,"x_max":532,"o":"m 532 1114 l 532 1081 l 4 1081 l 4 1114 l 532 1114 m 126 903 q 120 924 126 918 q 93 933 114 929 l 42 944 l 42 972 l 494 972 l 494 944 l 443 933 q 416 924 422 929 q 410 903 410 918 l 410 69 q 416 49 410 54 q 443 39 422 43 l 494 28 l 494 0 l 42 0 l 42 28 l 93 39 q 120 49 114 43 q 126 69 126 54 l 126 903 z "},"İ":{"ha":536,"x_min":42,"x_max":494,"o":"m 268 1060 q 181 1086 214 1060 q 147 1164 147 1113 q 181 1242 147 1215 q 268 1268 214 1268 q 356 1242 322 1268 q 389 1164 389 1215 q 356 1086 389 1113 q 268 1060 322 1060 m 126 903 q 120 924 126 918 q 93 933 114 929 l 42 944 l 42 972 l 494 972 l 494 944 l 443 933 q 416 924 422 929 q 410 903 410 918 l 410 69 q 416 49 410 54 q 443 39 422 43 l 494 28 l 494 0 l 42 0 l 42 28 l 93 39 q 120 49 114 43 q 126 69 126 54 l 126 903 z "},"Į":{"ha":536,"x_min":42,"x_max":494,"o":"m 411 -212 q 258 -285 347 -285 q 149 -258 186 -285 q 111 -182 111 -232 q 162 -69 111 -115 q 294 0 213 -24 l 42 0 l 42 28 l 93 39 q 120 49 114 43 q 126 69 126 54 l 126 903 q 120 924 126 918 q 93 933 114 929 l 42 944 l 42 972 l 494 972 l 494 944 l 443 933 q 416 924 422 929 q 410 903 410 918 l 410 69 q 416 49 410 54 q 443 39 422 43 l 494 28 l 494 0 l 332 0 q 267 -58 286 -22 q 247 -147 247 -93 q 266 -210 247 -190 q 328 -229 285 -229 q 401 -197 361 -229 l 411 -212 z "},"Ĵ":{"ha":864,"x_min":72,"x_max":833,"o":"m 643 1267 q 829 1076 725 1164 l 814 1056 q 607 1151 713 1090 q 400 1056 501 1090 l 385 1076 q 571 1267 485 1158 l 643 1267 m 329 21 q 408 43 379 21 q 451 123 438 65 q 465 286 465 181 l 465 901 q 459 922 465 917 q 432 932 453 928 l 372 944 l 372 972 l 833 972 l 833 944 l 782 933 q 755 924 761 929 q 749 903 749 918 l 749 314 q 637 61 749 139 q 340 -17 525 -17 q 206 -1 282 -17 q 72 42 131 15 l 104 286 l 140 286 q 184 120 158 178 q 244 42 210 63 q 329 21 278 21 z "},"Ķ":{"ha":1094,"x_min":36,"x_max":1078,"o":"m 593 624 q 634 597 617 614 q 671 553 651 581 l 975 68 q 994 45 986 51 q 1018 38 1003 39 l 1078 28 l 1078 0 l 785 0 q 726 12 747 0 q 690 47 706 24 l 431 483 l 404 460 l 404 68 q 410 48 404 53 q 436 39 417 43 l 486 28 l 486 0 l 36 0 l 36 28 l 88 39 q 115 49 108 43 q 121 69 121 54 l 121 903 q 115 924 121 918 q 88 933 108 929 l 36 944 l 36 972 l 486 972 l 486 944 l 436 933 q 410 925 417 931 q 404 904 404 919 l 404 510 l 863 907 q 874 928 874 917 q 858 940 874 938 l 799 946 l 799 972 l 1047 972 l 1047 944 l 989 940 q 952 931 965 939 q 918 906 939 924 l 593 624 m 588 -286 q 567 -287 581 -287 q 488 -259 514 -287 q 461 -186 461 -231 q 491 -111 461 -142 q 572 -81 521 -81 q 658 -110 626 -81 q 689 -197 689 -140 q 644 -349 689 -275 q 531 -476 600 -424 l 506 -453 q 569 -369 551 -406 q 588 -286 586 -333 z "},"Ĺ":{"ha":928,"x_min":36,"x_max":875,"o":"m 546 1267 q 600 1218 578 1251 q 624 1146 622 1185 q 472 1092 564 1118 q 310 1056 379 1067 l 303 1071 l 356 1110 q 436 1172 368 1119 q 546 1267 504 1224 m 121 903 q 115 924 121 918 q 88 933 108 929 l 36 944 l 36 972 l 497 972 l 497 944 l 438 932 q 410 922 417 928 q 404 901 404 917 l 404 42 l 579 42 q 707 67 661 42 q 778 138 753 92 q 836 276 804 183 l 875 276 l 875 0 l 36 0 l 36 28 l 88 39 q 115 49 108 43 q 121 69 121 54 l 121 903 z "},"Ľ":{"ha":928,"x_min":36,"x_max":875,"o":"m 760 778 q 739 776 753 776 q 660 805 686 776 q 633 878 633 833 q 663 953 633 922 q 744 983 693 983 q 830 953 799 983 q 861 867 861 924 q 817 715 861 789 q 703 588 772 640 l 678 611 q 741 694 724 658 q 760 778 758 731 m 121 903 q 115 924 121 918 q 88 933 108 929 l 36 944 l 36 972 l 497 972 l 497 944 l 438 932 q 410 922 417 928 q 404 901 404 917 l 404 42 l 579 42 q 707 67 661 42 q 778 138 753 92 q 836 276 804 183 l 875 276 l 875 0 l 36 0 l 36 28 l 88 39 q 115 49 108 43 q 121 69 121 54 l 121 903 z "},"Ļ":{"ha":928,"x_min":36,"x_max":875,"o":"m 121 903 q 115 924 121 918 q 88 933 108 929 l 36 944 l 36 972 l 497 972 l 497 944 l 438 932 q 410 922 417 928 q 404 901 404 917 l 404 42 l 579 42 q 707 67 661 42 q 778 138 753 92 q 836 276 804 183 l 875 276 l 875 0 l 36 0 l 36 28 l 88 39 q 115 49 108 43 q 121 69 121 54 l 121 903 m 504 -286 q 483 -287 497 -287 q 404 -259 431 -287 q 378 -186 378 -231 q 408 -111 378 -142 q 489 -81 438 -81 q 574 -110 543 -81 q 606 -197 606 -140 q 561 -349 606 -275 q 447 -476 517 -424 l 422 -453 q 485 -369 468 -406 q 504 -286 503 -333 z "},"Ł":{"ha":928,"x_min":36,"x_max":875,"o":"m 36 381 l 36 419 l 121 449 l 121 903 q 115 924 121 918 q 88 933 108 929 l 36 944 l 36 972 l 497 972 l 497 944 l 438 932 q 410 922 417 928 q 404 901 404 917 l 404 547 l 553 600 l 553 561 l 404 508 l 404 42 l 579 42 q 707 67 661 42 q 778 138 753 92 q 836 276 804 183 l 875 276 l 875 0 l 36 0 l 36 28 l 88 39 q 115 49 108 43 q 121 69 121 54 l 121 410 l 36 381 z "},"Ŀ":{"ha":928,"x_min":36,"x_max":875,"o":"m 121 903 q 115 924 121 918 q 88 933 108 929 l 36 944 l 36 972 l 497 972 l 497 944 l 438 932 q 410 922 417 928 q 404 901 404 917 l 404 42 l 579 42 q 707 67 661 42 q 778 138 753 92 q 836 276 804 183 l 875 276 l 875 0 l 36 0 l 36 28 l 88 39 q 115 49 108 43 q 121 69 121 54 l 121 903 m 625 272 q 542 306 576 272 q 508 386 508 339 q 542 467 508 433 q 625 500 576 500 q 708 467 674 500 q 742 386 742 433 q 708 306 742 339 q 625 272 674 272 z "},"Ń":{"ha":1033,"x_min":36,"x_max":997,"o":"m 682 1294 q 736 1246 714 1279 q 760 1174 758 1213 q 608 1120 700 1146 q 446 1083 515 1094 l 439 1099 l 492 1138 q 572 1199 504 1147 q 682 1294 640 1251 m 121 903 q 115 924 121 918 q 88 933 108 929 l 36 944 l 36 972 l 421 972 l 868 408 l 868 904 q 862 924 868 919 q 836 933 856 929 l 786 944 l 786 972 l 997 972 l 997 944 l 946 933 q 919 924 925 929 q 913 903 913 918 l 913 0 l 863 0 l 165 882 l 165 68 q 172 48 165 53 q 197 39 178 43 l 247 28 l 247 0 l 36 0 l 36 28 l 88 39 q 115 49 108 43 q 121 69 121 54 l 121 903 z "},"Ň":{"ha":1033,"x_min":36,"x_max":997,"o":"m 494 1056 q 308 1246 408 1164 l 324 1267 q 531 1171 425 1232 q 738 1267 636 1232 l 753 1246 q 567 1056 649 1158 l 494 1056 m 121 903 q 115 924 121 918 q 88 933 108 929 l 36 944 l 36 972 l 421 972 l 868 408 l 868 904 q 862 924 868 919 q 836 933 856 929 l 786 944 l 786 972 l 997 972 l 997 944 l 946 933 q 919 924 925 929 q 913 903 913 918 l 913 0 l 863 0 l 165 882 l 165 68 q 172 48 165 53 q 197 39 178 43 l 247 28 l 247 0 l 36 0 l 36 28 l 88 39 q 115 49 108 43 q 121 69 121 54 l 121 903 z "},"Ñ":{"ha":1033,"x_min":36,"x_max":997,"o":"m 635 1053 q 573 1065 610 1053 q 443 1115 536 1078 l 393 1135 q 361 1140 381 1140 q 329 1133 344 1140 q 304 1114 314 1126 l 271 1072 l 254 1079 q 291 1167 275 1133 q 334 1226 307 1200 q 399 1253 361 1253 q 460 1240 424 1253 q 590 1190 497 1228 l 640 1171 q 672 1165 653 1165 q 704 1172 689 1165 q 729 1192 719 1179 l 763 1233 l 779 1226 q 742 1139 758 1172 q 699 1079 726 1106 q 635 1053 672 1053 m 121 903 q 115 924 121 918 q 88 933 108 929 l 36 944 l 36 972 l 421 972 l 868 408 l 868 904 q 862 924 868 919 q 836 933 856 929 l 786 944 l 786 972 l 997 972 l 997 944 l 946 933 q 919 924 925 929 q 913 903 913 918 l 913 0 l 863 0 l 165 882 l 165 68 q 172 48 165 53 q 197 39 178 43 l 247 28 l 247 0 l 36 0 l 36 28 l 88 39 q 115 49 108 43 q 121 69 121 54 l 121 903 z "},"Ņ":{"ha":1033,"x_min":36,"x_max":997,"o":"m 121 903 q 115 924 121 918 q 88 933 108 929 l 36 944 l 36 972 l 421 972 l 868 408 l 868 904 q 862 924 868 919 q 836 933 856 929 l 786 944 l 786 972 l 997 972 l 997 944 l 946 933 q 919 924 925 929 q 913 903 913 918 l 913 0 l 863 0 l 165 882 l 165 68 q 172 48 165 53 q 197 39 178 43 l 247 28 l 247 0 l 36 0 l 36 28 l 88 39 q 115 49 108 43 q 121 69 121 54 l 121 903 m 540 -286 q 519 -287 533 -287 q 440 -259 467 -287 q 414 -186 414 -231 q 444 -111 414 -142 q 525 -81 474 -81 q 610 -110 579 -81 q 642 -197 642 -140 q 597 -349 642 -275 q 483 -476 553 -424 l 458 -453 q 522 -369 504 -406 q 540 -286 539 -333 z "},"Ò":{"ha":1186,"x_min":78,"x_max":1108,"o":"m 429 1267 q 539 1172 471 1224 q 619 1110 607 1119 l 672 1071 l 665 1056 q 503 1092 596 1067 q 351 1146 411 1118 q 375 1218 353 1185 q 429 1267 397 1251 m 593 989 q 968 870 828 989 q 1108 486 1108 751 q 968 102 1108 221 q 593 -17 828 -17 q 218 102 358 -17 q 78 486 78 221 q 219 869 78 750 q 593 989 360 989 m 593 24 q 723 69 678 24 q 785 214 768 115 q 801 486 801 313 q 785 758 801 660 q 723 903 768 857 q 593 949 678 949 q 463 903 508 949 q 401 758 418 857 q 385 486 385 660 q 401 214 385 313 q 463 69 418 115 q 593 24 508 24 z "},"Ó":{"ha":1186,"x_min":78,"x_max":1108,"o":"m 757 1267 q 811 1218 789 1251 q 835 1146 833 1185 q 683 1092 775 1118 q 521 1056 590 1067 l 514 1071 l 567 1110 q 647 1172 579 1119 q 757 1267 715 1224 m 593 989 q 968 870 828 989 q 1108 486 1108 751 q 968 102 1108 221 q 593 -17 828 -17 q 218 102 358 -17 q 78 486 78 221 q 219 869 78 750 q 593 989 360 989 m 593 24 q 723 69 678 24 q 785 214 768 115 q 801 486 801 313 q 785 758 801 660 q 723 903 768 857 q 593 949 678 949 q 463 903 508 949 q 401 758 418 857 q 385 486 385 660 q 401 214 385 313 q 463 69 418 115 q 593 24 508 24 z "},"Ô":{"ha":1186,"x_min":78,"x_max":1108,"o":"m 629 1267 q 815 1076 711 1164 l 800 1056 q 593 1151 699 1090 q 386 1056 488 1090 l 371 1076 q 557 1267 471 1158 l 629 1267 m 593 989 q 968 870 828 989 q 1108 486 1108 751 q 968 102 1108 221 q 593 -17 828 -17 q 218 102 358 -17 q 78 486 78 221 q 219 869 78 750 q 593 989 360 989 m 593 24 q 723 69 678 24 q 785 214 768 115 q 801 486 801 313 q 785 758 801 660 q 723 903 768 857 q 593 949 678 949 q 463 903 508 949 q 401 758 418 857 q 385 486 385 660 q 401 214 385 313 q 463 69 418 115 q 593 24 508 24 z "},"Õ":{"ha":1186,"x_min":78,"x_max":1108,"o":"m 711 1053 q 649 1065 686 1053 q 519 1115 613 1078 l 469 1135 q 438 1140 457 1140 q 406 1133 421 1140 q 381 1114 390 1126 l 347 1072 l 331 1079 q 367 1167 351 1133 q 410 1226 383 1200 q 475 1253 438 1253 q 537 1240 500 1253 q 667 1190 574 1228 l 717 1171 q 749 1165 729 1165 q 781 1172 765 1165 q 806 1192 796 1179 l 839 1233 l 856 1226 q 819 1139 835 1172 q 776 1079 803 1106 q 711 1053 749 1053 m 593 989 q 968 870 828 989 q 1108 486 1108 751 q 968 102 1108 221 q 593 -17 828 -17 q 218 102 358 -17 q 78 486 78 221 q 219 869 78 750 q 593 989 360 989 m 593 24 q 723 69 678 24 q 785 214 768 115 q 801 486 801 313 q 785 758 801 660 q 723 903 768 857 q 593 949 678 949 q 463 903 508 949 q 401 758 418 857 q 385 486 385 660 q 401 214 385 313 q 463 69 418 115 q 593 24 508 24 z "},"Ö":{"ha":1186,"x_min":78,"x_max":1108,"o":"m 428 1065 q 351 1094 381 1065 q 321 1167 321 1124 q 351 1239 321 1210 q 428 1268 381 1268 q 505 1239 475 1268 q 535 1167 535 1210 q 505 1094 535 1124 q 428 1065 475 1065 m 758 1065 q 681 1094 711 1065 q 651 1167 651 1124 q 681 1239 651 1210 q 758 1268 711 1268 q 835 1239 806 1268 q 865 1167 865 1210 q 835 1094 865 1124 q 758 1065 806 1065 m 593 989 q 968 870 828 989 q 1108 486 1108 751 q 968 102 1108 221 q 593 -17 828 -17 q 218 102 358 -17 q 78 486 78 221 q 219 869 78 750 q 593 989 360 989 m 593 24 q 723 69 678 24 q 785 214 768 115 q 801 486 801 313 q 785 758 801 660 q 723 903 768 857 q 593 949 678 949 q 463 903 508 949 q 401 758 418 857 q 385 486 385 660 q 401 214 385 313 q 463 69 418 115 q 593 24 508 24 z "},"Ō":{"ha":1186,"x_min":78,"x_max":1108,"o":"m 857 1114 l 857 1081 l 329 1081 l 329 1114 l 857 1114 m 593 989 q 968 870 828 989 q 1108 486 1108 751 q 968 102 1108 221 q 593 -17 828 -17 q 218 102 358 -17 q 78 486 78 221 q 219 869 78 750 q 593 989 360 989 m 593 24 q 723 69 678 24 q 785 214 768 115 q 801 486 801 313 q 785 758 801 660 q 723 903 768 857 q 593 949 678 949 q 463 903 508 949 q 401 758 418 857 q 385 486 385 660 q 401 214 385 313 q 463 69 418 115 q 593 24 508 24 z "},"Ŏ":{"ha":1186,"x_min":78,"x_max":1108,"o":"m 593 1056 q 451 1112 499 1056 q 401 1268 404 1168 l 429 1268 q 478 1188 443 1213 q 593 1163 514 1163 q 708 1188 672 1163 q 757 1268 743 1213 l 785 1268 q 735 1112 782 1168 q 593 1056 688 1056 m 593 989 q 968 870 828 989 q 1108 486 1108 751 q 968 102 1108 221 q 593 -17 828 -17 q 218 102 358 -17 q 78 486 78 221 q 219 869 78 750 q 593 989 360 989 m 593 24 q 723 69 678 24 q 785 214 768 115 q 801 486 801 313 q 785 758 801 660 q 723 903 768 857 q 593 949 678 949 q 463 903 508 949 q 401 758 418 857 q 385 486 385 660 q 401 214 385 313 q 463 69 418 115 q 593 24 508 24 z "},"Ő":{"ha":1186,"x_min":78,"x_max":1108,"o":"m 597 1335 q 663 1301 632 1328 q 704 1239 693 1275 q 573 1153 650 1197 q 431 1081 496 1110 l 419 1093 l 453 1136 q 597 1335 557 1271 m 882 1335 q 947 1301 917 1328 q 989 1239 978 1275 q 858 1153 935 1197 q 715 1081 781 1110 l 704 1093 l 738 1136 q 882 1335 842 1271 m 593 989 q 968 870 828 989 q 1108 486 1108 751 q 968 102 1108 221 q 593 -17 828 -17 q 218 102 358 -17 q 78 486 78 221 q 219 869 78 750 q 593 989 360 989 m 593 24 q 723 69 678 24 q 785 214 768 115 q 801 486 801 313 q 785 758 801 660 q 723 903 768 857 q 593 949 678 949 q 463 903 508 949 q 401 758 418 857 q 385 486 385 660 q 401 214 385 313 q 463 69 418 115 q 593 24 508 24 z "},"Ø":{"ha":1186,"x_min":78,"x_max":1108,"o":"m 593 989 q 846 944 736 989 l 907 1046 l 942 1025 l 883 928 q 1108 486 1108 811 q 968 102 1108 221 q 593 -17 828 -17 q 339 26 450 -17 l 279 -74 l 244 -53 l 303 44 q 78 486 78 161 q 219 869 78 750 q 593 989 360 989 m 385 486 q 403 210 385 300 l 769 818 q 705 917 747 886 q 593 949 663 949 q 463 903 508 949 q 401 758 418 857 q 385 486 385 660 m 593 24 q 723 69 678 24 q 785 214 768 115 q 801 486 801 313 q 783 763 801 660 l 415 154 q 480 55 438 86 q 593 24 522 24 z "},"Ǿ":{"ha":1186,"x_min":78,"x_max":1108,"o":"m 757 1267 q 811 1218 789 1251 q 835 1146 833 1185 q 683 1092 775 1118 q 521 1056 590 1067 l 514 1071 l 567 1110 q 647 1172 579 1119 q 757 1267 715 1224 m 593 989 q 846 944 736 989 l 907 1046 l 942 1025 l 883 928 q 1108 486 1108 811 q 968 102 1108 221 q 593 -17 828 -17 q 339 26 450 -17 l 279 -74 l 244 -53 l 303 44 q 78 486 78 161 q 219 869 78 750 q 593 989 360 989 m 385 486 q 403 210 385 300 l 769 818 q 705 917 747 886 q 593 949 663 949 q 463 903 508 949 q 401 758 418 857 q 385 486 385 660 m 593 24 q 723 69 678 24 q 785 214 768 115 q 801 486 801 313 q 783 763 801 660 l 415 154 q 480 55 438 86 q 593 24 522 24 z "},"Œ":{"ha":1619,"x_min":78,"x_max":1531,"o":"m 675 0 q 231 110 383 0 q 78 486 78 219 q 231 863 78 753 q 675 972 383 972 l 1511 972 l 1511 701 l 1474 701 q 1417 839 1442 794 q 1348 907 1393 883 q 1221 931 1303 931 l 1068 931 l 1068 518 l 1382 518 l 1382 476 l 1068 476 l 1068 42 l 1235 42 q 1363 67 1317 42 q 1434 138 1408 92 q 1492 276 1460 183 l 1531 276 l 1531 0 l 675 0 m 385 486 q 410 218 385 313 q 497 83 435 124 q 675 42 560 42 l 758 42 q 785 69 785 42 l 785 903 q 758 931 785 931 l 675 931 q 497 890 560 931 q 410 754 435 849 q 385 486 385 660 z "},"Ŕ":{"ha":1106,"x_min":36,"x_max":1092,"o":"m 690 1267 q 744 1218 722 1251 q 768 1146 767 1185 q 616 1092 708 1118 q 454 1056 524 1067 l 447 1071 l 500 1110 q 581 1172 513 1119 q 690 1267 649 1224 m 622 321 q 597 416 611 389 q 550 452 582 443 q 444 461 518 461 l 404 461 l 404 71 q 410 50 404 56 q 438 40 417 44 l 497 28 l 497 0 l 36 0 l 36 28 l 88 39 q 115 49 108 43 q 121 69 121 54 l 121 903 q 115 924 121 918 q 88 933 108 929 l 36 944 l 36 972 l 444 972 q 740 948 631 972 q 900 868 850 924 q 950 717 950 813 q 886 552 950 610 q 679 474 822 494 q 810 447 761 468 q 888 381 860 426 q 931 257 915 336 l 946 174 q 962 93 957 114 q 976 61 967 72 q 1004 50 985 50 q 1063 101 1039 50 l 1092 76 q 1033 11 1072 36 q 904 -14 993 -14 q 764 6 815 -14 q 683 74 713 25 q 639 217 654 124 l 622 321 m 404 503 l 457 503 q 581 525 538 503 q 642 593 625 547 q 658 717 658 639 q 642 840 658 794 q 581 908 625 886 q 457 931 538 931 l 404 931 l 404 503 z "},"Ř":{"ha":1106,"x_min":36,"x_max":1092,"o":"m 517 1056 q 331 1246 431 1164 l 346 1267 q 553 1171 447 1232 q 760 1267 658 1232 l 775 1246 q 589 1056 671 1158 l 517 1056 m 622 321 q 597 416 611 389 q 550 452 582 443 q 444 461 518 461 l 404 461 l 404 71 q 410 50 404 56 q 438 40 417 44 l 497 28 l 497 0 l 36 0 l 36 28 l 88 39 q 115 49 108 43 q 121 69 121 54 l 121 903 q 115 924 121 918 q 88 933 108 929 l 36 944 l 36 972 l 444 972 q 740 948 631 972 q 900 868 850 924 q 950 717 950 813 q 886 552 950 610 q 679 474 822 494 q 810 447 761 468 q 888 381 860 426 q 931 257 915 336 l 946 174 q 962 93 957 114 q 976 61 967 72 q 1004 50 985 50 q 1063 101 1039 50 l 1092 76 q 1033 11 1072 36 q 904 -14 993 -14 q 764 6 815 -14 q 683 74 713 25 q 639 217 654 124 l 622 321 m 404 503 l 457 503 q 581 525 538 503 q 642 593 625 547 q 658 717 658 639 q 642 840 658 794 q 581 908 625 886 q 457 931 538 931 l 404 931 l 404 503 z "},"Ŗ":{"ha":1106,"x_min":36,"x_max":1092,"o":"m 622 321 q 597 416 611 389 q 550 452 582 443 q 444 461 518 461 l 404 461 l 404 71 q 410 50 404 56 q 438 40 417 44 l 497 28 l 497 0 l 36 0 l 36 28 l 88 39 q 115 49 108 43 q 121 69 121 54 l 121 903 q 115 924 121 918 q 88 933 108 929 l 36 944 l 36 972 l 444 972 q 740 948 631 972 q 900 868 850 924 q 950 717 950 813 q 886 552 950 610 q 679 474 822 494 q 810 447 761 468 q 888 381 860 426 q 931 257 915 336 l 946 174 q 962 93 957 114 q 976 61 967 72 q 1004 50 985 50 q 1063 101 1039 50 l 1092 76 q 1033 11 1072 36 q 904 -14 993 -14 q 764 6 815 -14 q 683 74 713 25 q 639 217 654 124 l 622 321 m 404 503 l 457 503 q 581 525 538 503 q 642 593 625 547 q 658 717 658 639 q 642 840 658 794 q 581 908 625 886 q 457 931 538 931 l 404 931 l 404 503 m 590 -286 q 569 -287 583 -287 q 490 -259 517 -287 q 464 -186 464 -231 q 494 -111 464 -142 q 575 -81 524 -81 q 660 -110 629 -81 q 692 -197 692 -140 q 647 -349 692 -275 q 533 -476 603 -424 l 508 -453 q 572 -369 554 -406 q 590 -286 589 -333 z "},"Ś":{"ha":942,"x_min":78,"x_max":867,"o":"m 636 1267 q 690 1218 668 1251 q 714 1146 713 1185 q 562 1092 654 1118 q 400 1056 469 1067 l 393 1071 l 446 1110 q 526 1172 458 1119 q 636 1267 594 1224 m 438 21 q 578 56 528 21 q 628 156 628 90 q 605 243 628 208 q 535 307 582 278 q 396 376 488 336 q 215 467 279 428 q 115 567 151 507 q 78 721 78 628 q 172 922 78 854 q 472 989 267 989 q 649 971 564 989 q 793 925 735 953 l 760 713 l 722 713 q 667 847 696 797 q 590 924 639 897 q 461 951 542 951 q 278 832 278 951 q 300 751 278 783 q 367 694 322 719 q 514 618 411 668 l 542 606 q 733 504 671 543 q 831 408 794 465 q 867 258 867 350 q 765 53 867 122 q 444 -17 663 -17 q 251 3 357 -17 q 86 50 144 22 l 124 294 l 160 294 q 214 126 178 186 q 304 44 250 67 q 438 21 358 21 z "},"Ŝ":{"ha":942,"x_min":78,"x_max":867,"o":"m 493 1267 q 679 1076 575 1164 l 664 1056 q 457 1151 563 1090 q 250 1056 351 1090 l 235 1076 q 421 1267 335 1158 l 493 1267 m 438 21 q 578 56 528 21 q 628 156 628 90 q 605 243 628 208 q 535 307 582 278 q 396 376 488 336 q 215 467 279 428 q 115 567 151 507 q 78 721 78 628 q 172 922 78 854 q 472 989 267 989 q 649 971 564 989 q 793 925 735 953 l 760 713 l 722 713 q 667 847 696 797 q 590 924 639 897 q 461 951 542 951 q 278 832 278 951 q 300 751 278 783 q 367 694 322 719 q 514 618 411 668 l 542 606 q 733 504 671 543 q 831 408 794 465 q 867 258 867 350 q 765 53 867 122 q 444 -17 663 -17 q 251 3 357 -17 q 86 50 144 22 l 124 294 l 160 294 q 214 126 178 186 q 304 44 250 67 q 438 21 358 21 z "},"Š":{"ha":942,"x_min":78,"x_max":867,"o":"m 421 1056 q 235 1246 335 1164 l 250 1267 q 457 1171 351 1232 q 664 1267 563 1232 l 679 1246 q 493 1056 575 1158 l 421 1056 m 438 21 q 578 56 528 21 q 628 156 628 90 q 605 243 628 208 q 535 307 582 278 q 396 376 488 336 q 215 467 279 428 q 115 567 151 507 q 78 721 78 628 q 172 922 78 854 q 472 989 267 989 q 649 971 564 989 q 793 925 735 953 l 760 713 l 722 713 q 667 847 696 797 q 590 924 639 897 q 461 951 542 951 q 278 832 278 951 q 300 751 278 783 q 367 694 322 719 q 514 618 411 668 l 542 606 q 733 504 671 543 q 831 408 794 465 q 867 258 867 350 q 765 53 867 122 q 444 -17 663 -17 q 251 3 357 -17 q 86 50 144 22 l 124 294 l 160 294 q 214 126 178 186 q 304 44 250 67 q 438 21 358 21 z "},"Ş":{"ha":942,"x_min":78,"x_max":867,"o":"m 401 -15 q 227 7 317 -11 q 86 50 138 25 l 124 294 l 160 294 q 214 126 178 186 q 304 44 250 67 q 438 21 358 21 q 578 56 528 21 q 628 156 628 90 q 605 243 628 208 q 535 307 582 278 q 396 376 488 336 q 215 467 279 428 q 115 567 151 507 q 78 721 78 628 q 172 922 78 854 q 472 989 267 989 q 649 971 564 989 q 793 925 735 953 l 760 713 l 722 713 q 667 847 696 797 q 590 924 639 897 q 461 951 542 951 q 278 832 278 951 q 300 751 278 783 q 367 694 322 719 q 514 618 411 668 l 542 606 q 733 504 671 543 q 831 408 794 465 q 867 258 867 350 q 765 53 867 122 q 444 -17 663 -17 l 432 -17 l 429 -50 q 570 -84 519 -54 q 621 -171 621 -114 q 573 -259 621 -229 q 453 -289 525 -289 q 381 -281 418 -289 q 321 -261 343 -272 l 331 -236 q 426 -254 369 -254 q 485 -241 467 -254 q 504 -196 504 -228 q 474 -135 504 -156 q 389 -106 444 -115 l 401 -15 z "},"Ș":{"ha":942,"x_min":78,"x_max":867,"o":"m 438 21 q 578 56 528 21 q 628 156 628 90 q 605 243 628 208 q 535 307 582 278 q 396 376 488 336 q 215 467 279 428 q 115 567 151 507 q 78 721 78 628 q 172 922 78 854 q 472 989 267 989 q 649 971 564 989 q 793 925 735 953 l 760 713 l 722 713 q 667 847 696 797 q 590 924 639 897 q 461 951 542 951 q 278 832 278 951 q 300 751 278 783 q 367 694 322 719 q 514 618 411 668 l 542 606 q 733 504 671 543 q 831 408 794 465 q 867 258 867 350 q 765 53 867 122 q 444 -17 663 -17 q 251 3 357 -17 q 86 50 144 22 l 124 294 l 160 294 q 214 126 178 186 q 304 44 250 67 q 438 21 358 21 m 483 -286 q 463 -287 476 -287 q 383 -259 410 -287 q 357 -186 357 -231 q 387 -111 357 -142 q 468 -81 417 -81 q 553 -110 522 -81 q 585 -197 585 -140 q 540 -349 585 -275 q 426 -476 496 -424 l 401 -453 q 465 -369 447 -406 q 483 -286 482 -333 z "},"Ť":{"ha":1006,"x_min":36,"x_max":969,"o":"m 467 1083 q 281 1274 381 1192 l 296 1294 q 503 1199 397 1260 q 710 1294 608 1260 l 725 1274 q 539 1083 621 1186 l 467 1083 m 644 69 q 651 49 644 54 q 678 39 657 43 l 729 28 l 729 0 l 276 0 l 276 28 l 328 39 q 355 49 349 43 q 361 69 361 54 l 361 933 l 329 933 q 198 906 244 933 q 127 833 151 878 q 67 692 103 789 l 36 692 l 36 972 l 969 972 l 969 692 l 939 692 q 878 833 903 789 q 808 906 854 878 q 676 933 761 933 l 644 933 l 644 69 z "},"Ţ":{"ha":1006,"x_min":36,"x_max":969,"o":"m 644 69 q 651 49 644 54 q 678 39 657 43 l 729 28 l 729 0 l 276 0 l 276 28 l 328 39 q 355 49 349 43 q 361 69 361 54 l 361 933 l 329 933 q 198 906 244 933 q 127 833 151 878 q 67 692 103 789 l 36 692 l 36 972 l 969 972 l 969 692 l 939 692 q 878 833 903 789 q 808 906 854 878 q 676 933 761 933 l 644 933 l 644 69 m 515 -286 q 494 -287 508 -287 q 415 -259 442 -287 q 389 -186 389 -231 q 419 -111 389 -142 q 500 -81 449 -81 q 585 -110 554 -81 q 617 -197 617 -140 q 572 -349 617 -275 q 458 -476 528 -424 l 433 -453 q 497 -369 479 -406 q 515 -286 514 -333 z "},"Ț":{"ha":1006,"x_min":36,"x_max":969,"o":"m 644 69 q 651 49 644 54 q 678 39 657 43 l 729 28 l 729 0 l 276 0 l 276 28 l 328 39 q 355 49 349 43 q 361 69 361 54 l 361 933 l 329 933 q 198 906 244 933 q 127 833 151 878 q 67 692 103 789 l 36 692 l 36 972 l 969 972 l 969 692 l 939 692 q 878 833 903 789 q 808 906 854 878 q 676 933 761 933 l 644 933 l 644 69 m 515 -286 q 494 -287 508 -287 q 415 -259 442 -287 q 389 -186 389 -231 q 419 -111 389 -142 q 500 -81 449 -81 q 585 -110 554 -81 q 617 -197 617 -140 q 572 -349 617 -275 q 458 -476 528 -424 l 433 -453 q 497 -369 479 -406 q 515 -286 514 -333 z "},"Ŧ":{"ha":1006,"x_min":36,"x_max":969,"o":"m 753 489 l 753 456 l 644 456 l 644 69 q 651 49 644 54 q 678 39 657 43 l 729 28 l 729 0 l 276 0 l 276 28 l 328 39 q 355 49 349 43 q 361 69 361 54 l 361 456 l 253 456 l 253 489 l 361 489 l 361 933 l 329 933 q 198 906 244 933 q 127 833 151 878 q 67 692 103 789 l 36 692 l 36 972 l 969 972 l 969 692 l 939 692 q 878 833 903 789 q 808 906 854 878 q 676 933 761 933 l 644 933 l 644 489 l 753 489 z "},"Þ":{"ha":1022,"x_min":36,"x_max":953,"o":"m 435 772 q 735 748 624 772 q 900 665 847 724 q 953 499 953 606 q 900 333 953 392 q 735 249 847 274 q 435 225 624 225 l 404 225 l 404 71 q 410 50 404 56 q 438 40 417 44 l 497 28 l 497 0 l 36 0 l 36 28 l 88 39 q 115 49 108 43 q 121 69 121 54 l 121 903 q 115 924 121 918 q 88 933 108 929 l 36 944 l 36 972 l 497 972 l 497 944 l 438 932 q 410 922 417 928 q 404 901 404 917 l 404 772 l 435 772 m 661 499 q 641 636 661 586 q 575 708 621 686 q 447 731 529 731 l 404 731 l 404 267 l 447 267 q 575 289 529 267 q 641 361 621 311 q 661 499 661 411 z "},"Ù":{"ha":1047,"x_min":28,"x_max":1019,"o":"m 443 1267 q 553 1172 485 1224 q 633 1110 621 1119 l 686 1071 l 679 1056 q 517 1092 610 1067 q 365 1146 425 1118 q 389 1218 367 1185 q 443 1267 411 1251 m 938 361 q 843 85 935 186 q 547 -17 751 -17 q 219 74 325 -17 q 113 367 113 164 l 113 903 q 106 924 113 918 q 79 933 100 929 l 28 944 l 28 972 l 478 972 l 478 944 l 428 933 q 402 924 408 929 q 396 904 396 919 l 396 342 q 413 158 396 224 q 477 62 429 93 q 618 31 525 31 q 822 118 751 31 q 893 350 893 206 l 893 903 q 887 924 893 918 q 860 933 881 929 l 808 944 l 808 972 l 1019 972 l 1019 944 l 969 933 q 944 924 950 929 q 938 904 938 919 l 938 361 z "},"Ú":{"ha":1047,"x_min":28,"x_max":1019,"o":"m 799 1267 q 853 1218 831 1251 q 876 1146 875 1185 q 724 1092 817 1118 q 563 1056 632 1067 l 556 1071 l 608 1110 q 689 1172 621 1119 q 799 1267 757 1224 m 938 361 q 843 85 935 186 q 547 -17 751 -17 q 219 74 325 -17 q 113 367 113 164 l 113 903 q 106 924 113 918 q 79 933 100 929 l 28 944 l 28 972 l 478 972 l 478 944 l 428 933 q 402 924 408 929 q 396 904 396 919 l 396 342 q 413 158 396 224 q 477 62 429 93 q 618 31 525 31 q 822 118 751 31 q 893 350 893 206 l 893 903 q 887 924 893 918 q 860 933 881 929 l 808 944 l 808 972 l 1019 972 l 1019 944 l 969 933 q 944 924 950 929 q 938 904 938 919 l 938 361 z "},"Û":{"ha":1047,"x_min":28,"x_max":1019,"o":"m 657 1267 q 843 1076 739 1164 l 828 1056 q 621 1151 726 1090 q 414 1056 515 1090 l 399 1076 q 585 1267 499 1158 l 657 1267 m 938 361 q 843 85 935 186 q 547 -17 751 -17 q 219 74 325 -17 q 113 367 113 164 l 113 903 q 106 924 113 918 q 79 933 100 929 l 28 944 l 28 972 l 478 972 l 478 944 l 428 933 q 402 924 408 929 q 396 904 396 919 l 396 342 q 413 158 396 224 q 477 62 429 93 q 618 31 525 31 q 822 118 751 31 q 893 350 893 206 l 893 903 q 887 924 893 918 q 860 933 881 929 l 808 944 l 808 972 l 1019 972 l 1019 944 l 969 933 q 944 924 950 929 q 938 904 938 919 l 938 361 z "},"Ũ":{"ha":1047,"x_min":28,"x_max":1019,"o":"m 739 1053 q 677 1065 714 1053 q 547 1115 640 1078 l 497 1135 q 465 1140 485 1140 q 433 1133 449 1140 q 408 1114 418 1126 l 375 1072 l 358 1079 q 395 1167 379 1133 q 438 1226 411 1200 q 503 1253 465 1253 q 565 1240 528 1253 q 694 1190 601 1228 l 744 1171 q 776 1165 757 1165 q 808 1172 793 1165 q 833 1192 824 1179 l 867 1233 l 883 1226 q 847 1139 863 1172 q 803 1079 831 1106 q 739 1053 776 1053 m 938 361 q 843 85 935 186 q 547 -17 751 -17 q 219 74 325 -17 q 113 367 113 164 l 113 903 q 106 924 113 918 q 79 933 100 929 l 28 944 l 28 972 l 478 972 l 478 944 l 428 933 q 402 924 408 929 q 396 904 396 919 l 396 342 q 413 158 396 224 q 477 62 429 93 q 618 31 525 31 q 822 118 751 31 q 893 350 893 206 l 893 903 q 887 924 893 918 q 860 933 881 929 l 808 944 l 808 972 l 1019 972 l 1019 944 l 969 933 q 944 924 950 929 q 938 904 938 919 l 938 361 z "},"Ü":{"ha":1039,"x_min":28,"x_max":1019,"o":"m 438 1065 q 360 1094 390 1065 q 331 1167 331 1124 q 360 1239 331 1210 q 438 1268 390 1268 q 515 1239 485 1268 q 544 1167 544 1210 q 515 1094 544 1124 q 438 1065 485 1065 m 768 1065 q 691 1094 721 1065 q 661 1167 661 1124 q 691 1239 661 1210 q 768 1268 721 1268 q 845 1239 815 1268 q 875 1167 875 1210 q 845 1094 875 1124 q 768 1065 815 1065 m 938 361 q 843 85 935 186 q 547 -17 751 -17 q 219 74 325 -17 q 113 367 113 164 l 113 903 q 106 924 113 918 q 79 933 100 929 l 28 944 l 28 972 l 478 972 l 478 944 l 428 933 q 402 924 408 929 q 396 904 396 919 l 396 342 q 413 158 396 224 q 477 62 429 93 q 618 31 525 31 q 822 118 751 31 q 893 350 893 206 l 893 903 q 887 924 893 918 q 860 933 881 929 l 808 944 l 808 972 l 1019 972 l 1019 944 l 969 933 q 944 924 950 929 q 938 904 938 919 l 938 361 z "},"Ū":{"ha":1047,"x_min":28,"x_max":1019,"o":"m 885 1114 l 885 1081 l 357 1081 l 357 1114 l 885 1114 m 938 361 q 843 85 935 186 q 547 -17 751 -17 q 219 74 325 -17 q 113 367 113 164 l 113 903 q 106 924 113 918 q 79 933 100 929 l 28 944 l 28 972 l 478 972 l 478 944 l 428 933 q 402 924 408 929 q 396 904 396 919 l 396 342 q 413 158 396 224 q 477 62 429 93 q 618 31 525 31 q 822 118 751 31 q 893 350 893 206 l 893 903 q 887 924 893 918 q 860 933 881 929 l 808 944 l 808 972 l 1019 972 l 1019 944 l 969 933 q 944 924 950 929 q 938 904 938 919 l 938 361 z "},"Ŭ":{"ha":1047,"x_min":28,"x_max":1019,"o":"m 621 1056 q 479 1112 526 1056 q 429 1268 432 1168 l 457 1268 q 506 1188 471 1213 q 621 1163 542 1163 q 735 1188 700 1163 q 785 1268 771 1213 l 813 1268 q 763 1112 810 1168 q 621 1056 715 1056 m 938 361 q 843 85 935 186 q 547 -17 751 -17 q 219 74 325 -17 q 113 367 113 164 l 113 903 q 106 924 113 918 q 79 933 100 929 l 28 944 l 28 972 l 478 972 l 478 944 l 428 933 q 402 924 408 929 q 396 904 396 919 l 396 342 q 413 158 396 224 q 477 62 429 93 q 618 31 525 31 q 822 118 751 31 q 893 350 893 206 l 893 903 q 887 924 893 918 q 860 933 881 929 l 808 944 l 808 972 l 1019 972 l 1019 944 l 969 933 q 944 924 950 929 q 938 904 938 919 l 938 361 z "},"Ů":{"ha":1047,"x_min":28,"x_max":1019,"o":"m 621 1319 q 734 1286 689 1319 q 779 1188 779 1253 q 734 1089 779 1122 q 621 1056 689 1056 q 508 1089 553 1056 q 463 1188 463 1122 q 508 1286 463 1253 q 621 1319 553 1319 m 621 1079 q 667 1106 653 1079 q 681 1188 681 1133 q 667 1269 681 1242 q 621 1296 653 1296 q 575 1269 589 1296 q 561 1188 561 1242 q 575 1106 561 1133 q 621 1079 589 1079 m 938 361 q 843 85 935 186 q 547 -17 751 -17 q 219 74 325 -17 q 113 367 113 164 l 113 903 q 106 924 113 918 q 79 933 100 929 l 28 944 l 28 972 l 478 972 l 478 944 l 428 933 q 402 924 408 929 q 396 904 396 919 l 396 342 q 413 158 396 224 q 477 62 429 93 q 618 31 525 31 q 822 118 751 31 q 893 350 893 206 l 893 903 q 887 924 893 918 q 860 933 881 929 l 808 944 l 808 972 l 1019 972 l 1019 944 l 969 933 q 944 924 950 929 q 938 904 938 919 l 938 361 z "},"Ű":{"ha":1047,"x_min":28,"x_max":1019,"o":"m 625 1307 q 690 1274 660 1300 q 732 1211 721 1247 q 601 1126 678 1169 q 458 1053 524 1082 l 447 1065 l 481 1108 q 625 1307 585 1243 m 910 1307 q 975 1274 944 1300 q 1017 1211 1006 1247 q 885 1126 963 1169 q 743 1053 808 1082 l 732 1065 l 765 1108 q 910 1307 869 1243 m 938 361 q 843 85 935 186 q 547 -17 751 -17 q 219 74 325 -17 q 113 367 113 164 l 113 903 q 106 924 113 918 q 79 933 100 929 l 28 944 l 28 972 l 478 972 l 478 944 l 428 933 q 402 924 408 929 q 396 904 396 919 l 396 342 q 413 158 396 224 q 477 62 429 93 q 618 31 525 31 q 822 118 751 31 q 893 350 893 206 l 893 903 q 887 924 893 918 q 860 933 881 929 l 808 944 l 808 972 l 1019 972 l 1019 944 l 969 933 q 944 924 950 929 q 938 904 938 919 l 938 361 z "},"Ų":{"ha":1047,"x_min":28,"x_max":1019,"o":"m 1019 972 l 1019 944 l 969 933 q 944 924 950 929 q 938 904 938 919 l 938 361 q 681 -3 933 57 q 619 -60 638 -25 q 600 -147 600 -96 q 619 -210 600 -190 q 681 -229 638 -229 q 754 -197 714 -229 l 764 -212 q 611 -285 700 -285 q 501 -258 539 -285 q 464 -182 464 -232 q 503 -82 464 -124 q 607 -14 542 -40 q 547 -17 568 -17 q 219 74 325 -17 q 113 367 113 164 l 113 903 q 106 924 113 918 q 79 933 100 929 l 28 944 l 28 972 l 478 972 l 478 944 l 428 933 q 402 924 408 929 q 396 904 396 919 l 396 342 q 413 158 396 224 q 477 62 429 93 q 618 31 525 31 q 822 118 751 31 q 893 350 893 206 l 893 903 q 887 924 893 918 q 860 933 881 929 l 808 944 l 808 972 l 1019 972 z "},"Ẃ":{"ha":1592,"x_min":31,"x_max":1561,"o":"m 961 1267 q 1015 1218 993 1251 q 1039 1146 1038 1185 q 887 1092 979 1118 q 725 1056 794 1067 l 718 1071 l 771 1110 q 851 1172 783 1119 q 961 1267 919 1224 m 1088 -15 l 799 703 l 535 -15 l 490 -15 l 121 906 q 106 930 114 924 q 82 939 99 936 l 31 944 l 31 972 l 486 972 l 486 944 l 432 939 q 413 917 413 936 q 415 901 413 913 l 626 351 l 775 763 l 718 906 q 703 930 711 924 q 679 939 696 936 l 631 944 l 631 972 l 1086 972 l 1086 944 l 1029 939 q 1010 917 1010 936 q 1013 901 1010 913 l 1224 351 l 1425 907 q 1429 922 1429 918 q 1408 939 1429 938 l 1350 944 l 1350 972 l 1561 972 l 1561 944 l 1510 939 q 1486 931 1493 938 q 1471 906 1479 924 l 1132 -15 l 1088 -15 z "},"Ŵ":{"ha":1592,"x_min":31,"x_max":1561,"o":"m 846 1294 q 1032 1104 928 1192 l 1017 1083 q 810 1179 915 1118 q 603 1083 704 1118 l 588 1104 q 774 1294 688 1186 l 846 1294 m 1088 -15 l 799 703 l 535 -15 l 490 -15 l 121 906 q 106 930 114 924 q 82 939 99 936 l 31 944 l 31 972 l 486 972 l 486 944 l 432 939 q 413 917 413 936 q 415 901 413 913 l 626 351 l 775 763 l 718 906 q 703 930 711 924 q 679 939 696 936 l 631 944 l 631 972 l 1086 972 l 1086 944 l 1029 939 q 1010 917 1010 936 q 1013 901 1010 913 l 1224 351 l 1425 907 q 1429 922 1429 918 q 1408 939 1429 938 l 1350 944 l 1350 972 l 1561 972 l 1561 944 l 1510 939 q 1486 931 1493 938 q 1471 906 1479 924 l 1132 -15 l 1088 -15 z "},"Ẅ":{"ha":1592,"x_min":31,"x_max":1561,"o":"m 686 1065 q 609 1094 639 1065 q 579 1167 579 1124 q 609 1239 579 1210 q 686 1268 639 1268 q 763 1239 733 1268 q 793 1167 793 1210 q 763 1094 793 1124 q 686 1065 733 1065 m 1017 1065 q 940 1094 969 1065 q 910 1167 910 1124 q 940 1239 910 1210 q 1017 1268 969 1268 q 1094 1239 1064 1268 q 1124 1167 1124 1210 q 1094 1094 1124 1124 q 1017 1065 1064 1065 m 1088 -15 l 799 703 l 535 -15 l 490 -15 l 121 906 q 106 930 114 924 q 82 939 99 936 l 31 944 l 31 972 l 486 972 l 486 944 l 432 939 q 413 917 413 936 q 415 901 413 913 l 626 351 l 775 763 l 718 906 q 703 930 711 924 q 679 939 696 936 l 631 944 l 631 972 l 1086 972 l 1086 944 l 1029 939 q 1010 917 1010 936 q 1013 901 1010 913 l 1224 351 l 1425 907 q 1429 922 1429 918 q 1408 939 1429 938 l 1350 944 l 1350 972 l 1561 972 l 1561 944 l 1510 939 q 1486 931 1493 938 q 1471 906 1479 924 l 1132 -15 l 1088 -15 z "},"Ẁ":{"ha":1592,"x_min":31,"x_max":1561,"o":"m 629 1267 q 739 1172 671 1224 q 819 1110 807 1119 l 872 1071 l 865 1056 q 703 1092 796 1067 q 551 1146 611 1118 q 575 1218 553 1185 q 629 1267 597 1251 m 1088 -15 l 799 703 l 535 -15 l 490 -15 l 121 906 q 106 930 114 924 q 82 939 99 936 l 31 944 l 31 972 l 486 972 l 486 944 l 432 939 q 413 917 413 936 q 415 901 413 913 l 626 351 l 775 763 l 718 906 q 703 930 711 924 q 679 939 696 936 l 631 944 l 631 972 l 1086 972 l 1086 944 l 1029 939 q 1010 917 1010 936 q 1013 901 1010 913 l 1224 351 l 1425 907 q 1429 922 1429 918 q 1408 939 1429 938 l 1350 944 l 1350 972 l 1561 972 l 1561 944 l 1510 939 q 1486 931 1493 938 q 1471 906 1479 924 l 1132 -15 l 1088 -15 z "},"Ý":{"ha":1000,"x_min":6,"x_max":997,"o":"m 763 1267 q 817 1218 794 1251 q 840 1146 839 1185 q 688 1092 781 1118 q 526 1056 596 1067 l 519 1071 l 572 1110 q 653 1172 585 1119 q 763 1267 721 1224 m 857 907 q 860 917 860 915 q 851 933 860 926 q 832 940 843 939 l 767 946 l 767 972 l 997 972 l 997 944 l 954 940 q 924 931 932 939 q 904 906 915 924 l 639 450 l 639 69 q 645 49 639 54 q 672 39 651 43 l 724 28 l 724 0 l 271 0 l 271 28 l 322 39 q 349 49 343 43 q 356 69 356 54 l 356 442 l 100 906 q 82 930 90 922 q 60 939 74 938 l 6 944 l 6 972 l 457 972 l 457 944 l 401 939 q 382 922 382 938 q 388 904 382 914 l 610 485 l 857 907 z "},"Ŷ":{"ha":1000,"x_min":6,"x_max":997,"o":"m 647 1294 q 833 1104 729 1192 l 818 1083 q 611 1179 717 1118 q 404 1083 506 1118 l 389 1104 q 575 1294 489 1186 l 647 1294 m 857 907 q 860 917 860 915 q 851 933 860 926 q 832 940 843 939 l 767 946 l 767 972 l 997 972 l 997 944 l 954 940 q 924 931 932 939 q 904 906 915 924 l 639 450 l 639 69 q 645 49 639 54 q 672 39 651 43 l 724 28 l 724 0 l 271 0 l 271 28 l 322 39 q 349 49 343 43 q 356 69 356 54 l 356 442 l 100 906 q 82 930 90 922 q 60 939 74 938 l 6 944 l 6 972 l 457 972 l 457 944 l 401 939 q 382 922 382 938 q 388 904 382 914 l 610 485 l 857 907 z "},"Ÿ":{"ha":1000,"x_min":6,"x_max":997,"o":"m 404 1065 q 327 1094 357 1065 q 297 1167 297 1124 q 327 1239 297 1210 q 404 1268 357 1268 q 481 1239 451 1268 q 511 1167 511 1210 q 481 1094 511 1124 q 404 1065 451 1065 m 735 1065 q 658 1094 688 1065 q 628 1167 628 1124 q 658 1239 628 1210 q 735 1268 688 1268 q 812 1239 782 1268 q 842 1167 842 1210 q 812 1094 842 1124 q 735 1065 782 1065 m 857 907 q 860 917 860 915 q 851 933 860 926 q 832 940 843 939 l 767 946 l 767 972 l 997 972 l 997 944 l 954 940 q 924 931 932 939 q 904 906 915 924 l 639 450 l 639 69 q 645 49 639 54 q 672 39 651 43 l 724 28 l 724 0 l 271 0 l 271 28 l 322 39 q 349 49 343 43 q 356 69 356 54 l 356 442 l 100 906 q 82 930 90 922 q 60 939 74 938 l 6 944 l 6 972 l 457 972 l 457 944 l 401 939 q 382 922 382 938 q 388 904 382 914 l 610 485 l 857 907 z "},"Ỳ":{"ha":1000,"x_min":6,"x_max":997,"o":"m 361 1294 q 471 1199 403 1251 q 551 1138 539 1147 l 604 1099 l 597 1083 q 435 1120 528 1094 q 283 1174 343 1146 q 307 1246 285 1213 q 361 1294 329 1279 m 857 907 q 860 917 860 915 q 851 933 860 926 q 832 940 843 939 l 767 946 l 767 972 l 997 972 l 997 944 l 954 940 q 924 931 932 939 q 904 906 915 924 l 639 450 l 639 69 q 645 49 639 54 q 672 39 651 43 l 724 28 l 724 0 l 271 0 l 271 28 l 322 39 q 349 49 343 43 q 356 69 356 54 l 356 442 l 100 906 q 82 930 90 922 q 60 939 74 938 l 6 944 l 6 972 l 457 972 l 457 944 l 401 939 q 382 922 382 938 q 388 904 382 914 l 610 485 l 857 907 z "},"Ź":{"ha":1058,"x_min":81,"x_max":969,"o":"m 764 1267 q 818 1218 796 1251 q 842 1146 840 1185 q 690 1092 782 1118 q 528 1056 597 1067 l 521 1071 l 574 1110 q 654 1172 586 1119 q 764 1267 722 1224 m 81 0 l 81 36 l 653 931 l 438 931 q 308 907 354 931 q 237 838 263 883 q 182 701 211 792 l 147 701 l 147 972 l 969 972 l 969 936 l 396 42 l 675 42 q 804 66 758 42 q 876 137 850 90 q 931 276 901 183 l 965 276 l 965 0 l 81 0 z "},"Ž":{"ha":1058,"x_min":81,"x_max":969,"o":"m 521 1056 q 335 1246 435 1164 l 350 1267 q 557 1171 451 1232 q 764 1267 663 1232 l 779 1246 q 593 1056 675 1158 l 521 1056 m 81 0 l 81 36 l 653 931 l 438 931 q 308 907 354 931 q 237 838 263 883 q 182 701 211 792 l 147 701 l 147 972 l 969 972 l 969 936 l 396 42 l 675 42 q 804 66 758 42 q 876 137 850 90 q 931 276 901 183 l 965 276 l 965 0 l 81 0 z "},"Ż":{"ha":1058,"x_min":81,"x_max":969,"o":"m 543 1060 q 456 1086 489 1060 q 422 1164 422 1113 q 456 1242 422 1215 q 543 1268 489 1268 q 631 1242 597 1268 q 664 1164 664 1215 q 631 1086 664 1113 q 543 1060 597 1060 m 81 0 l 81 36 l 653 931 l 438 931 q 308 907 354 931 q 237 838 263 883 q 182 701 211 792 l 147 701 l 147 972 l 969 972 l 969 936 l 396 42 l 675 42 q 804 66 758 42 q 876 137 850 90 q 931 276 901 183 l 965 276 l 965 0 l 81 0 z "},"à":{"ha":894,"x_min":53,"x_max":867,"o":"m 367 997 q 476 902 408 954 q 557 840 544 850 l 610 801 l 603 786 q 441 823 533 797 q 289 876 349 849 q 313 949 290 915 q 367 997 335 982 m 581 0 q 526 16 542 0 q 510 69 510 32 l 510 76 q 244 -14 417 -14 q 103 27 154 -14 q 53 154 53 68 q 103 289 53 240 q 251 358 154 338 q 510 383 349 379 l 510 485 q 479 597 510 563 q 372 631 449 631 q 253 613 308 631 q 142 561 199 596 l 124 588 q 284 663 190 635 q 494 692 378 692 q 718 630 651 692 q 785 451 785 568 l 785 67 q 791 46 785 51 q 818 36 797 40 l 867 25 l 867 0 l 581 0 m 400 74 q 510 121 460 74 l 510 346 q 392 322 432 340 q 337 268 351 303 q 322 174 322 233 q 341 97 322 121 q 400 74 360 74 z "},"á":{"ha":894,"x_min":53,"x_max":867,"o":"m 528 997 q 582 949 560 982 q 606 876 604 915 q 453 823 546 849 q 292 786 361 797 l 285 801 l 338 840 q 418 902 350 850 q 528 997 486 954 m 581 0 q 526 16 542 0 q 510 69 510 32 l 510 76 q 244 -14 417 -14 q 103 27 154 -14 q 53 154 53 68 q 103 289 53 240 q 251 358 154 338 q 510 383 349 379 l 510 485 q 479 597 510 563 q 372 631 449 631 q 253 613 308 631 q 142 561 199 596 l 124 588 q 284 663 190 635 q 494 692 378 692 q 718 630 651 692 q 785 451 785 568 l 785 67 q 791 46 785 51 q 818 36 797 40 l 867 25 l 867 0 l 581 0 m 400 74 q 510 121 460 74 l 510 346 q 392 322 432 340 q 337 268 351 303 q 322 174 322 233 q 341 97 322 121 q 400 74 360 74 z "},"â":{"ha":894,"x_min":53,"x_max":867,"o":"m 483 997 q 669 807 565 894 l 654 786 q 447 882 553 821 q 240 786 342 821 l 225 807 q 411 997 325 889 l 483 997 m 581 0 q 526 16 542 0 q 510 69 510 32 l 510 76 q 244 -14 417 -14 q 103 27 154 -14 q 53 154 53 68 q 103 289 53 240 q 251 358 154 338 q 510 383 349 379 l 510 485 q 479 597 510 563 q 372 631 449 631 q 253 613 308 631 q 142 561 199 596 l 124 588 q 284 663 190 635 q 494 692 378 692 q 718 630 651 692 q 785 451 785 568 l 785 67 q 791 46 785 51 q 818 36 797 40 l 867 25 l 867 0 l 581 0 m 400 74 q 510 121 460 74 l 510 346 q 392 322 432 340 q 337 268 351 303 q 322 174 322 233 q 341 97 322 121 q 400 74 360 74 z "},"ã":{"ha":894,"x_min":53,"x_max":867,"o":"m 579 783 q 517 796 554 783 q 388 846 481 808 l 338 865 q 306 871 325 871 q 274 864 289 871 q 249 844 258 857 l 215 803 l 199 810 q 235 897 219 864 q 278 957 251 931 q 343 983 306 983 q 405 971 368 983 q 535 921 442 958 l 585 901 q 617 896 597 896 q 649 903 633 896 q 674 922 664 910 l 707 964 l 724 957 q 687 869 703 903 q 644 810 671 836 q 579 783 617 783 m 581 0 q 526 16 542 0 q 510 69 510 32 l 510 76 q 244 -14 417 -14 q 103 27 154 -14 q 53 154 53 68 q 103 289 53 240 q 251 358 154 338 q 510 383 349 379 l 510 485 q 479 597 510 563 q 372 631 449 631 q 253 613 308 631 q 142 561 199 596 l 124 588 q 284 663 190 635 q 494 692 378 692 q 718 630 651 692 q 785 451 785 568 l 785 67 q 791 46 785 51 q 818 36 797 40 l 867 25 l 867 0 l 581 0 m 400 74 q 510 121 460 74 l 510 346 q 392 322 432 340 q 337 268 351 303 q 322 174 322 233 q 341 97 322 121 q 400 74 360 74 z "},"ä":{"ha":894,"x_min":53,"x_max":867,"o":"m 296 796 q 219 825 249 796 q 189 897 189 854 q 219 969 189 940 q 296 999 249 999 q 373 969 343 999 q 403 897 403 940 q 373 825 403 854 q 296 796 343 796 m 626 796 q 549 825 579 796 q 519 897 519 854 q 549 969 519 940 q 626 999 579 999 q 703 969 674 999 q 733 897 733 940 q 703 825 733 854 q 626 796 674 796 m 581 0 q 526 16 542 0 q 510 69 510 32 l 510 76 q 244 -14 417 -14 q 103 27 154 -14 q 53 154 53 68 q 103 289 53 240 q 251 358 154 338 q 510 383 349 379 l 510 485 q 479 597 510 563 q 372 631 449 631 q 253 613 308 631 q 142 561 199 596 l 124 588 q 284 663 190 635 q 494 692 378 692 q 718 630 651 692 q 785 451 785 568 l 785 67 q 791 46 785 51 q 818 36 797 40 l 867 25 l 867 0 l 581 0 m 400 74 q 510 121 460 74 l 510 346 q 392 322 432 340 q 337 268 351 303 q 322 174 322 233 q 341 97 322 121 q 400 74 360 74 z "},"ā":{"ha":894,"x_min":53,"x_max":867,"o":"m 711 844 l 711 811 l 183 811 l 183 844 l 711 844 m 581 0 q 526 16 542 0 q 510 69 510 32 l 510 76 q 244 -14 417 -14 q 103 27 154 -14 q 53 154 53 68 q 103 289 53 240 q 251 358 154 338 q 510 383 349 379 l 510 485 q 479 597 510 563 q 372 631 449 631 q 253 613 308 631 q 142 561 199 596 l 124 588 q 284 663 190 635 q 494 692 378 692 q 718 630 651 692 q 785 451 785 568 l 785 67 q 791 46 785 51 q 818 36 797 40 l 867 25 l 867 0 l 581 0 m 400 74 q 510 121 460 74 l 510 346 q 392 322 432 340 q 337 268 351 303 q 322 174 322 233 q 341 97 322 121 q 400 74 360 74 z "},"ă":{"ha":894,"x_min":53,"x_max":867,"o":"m 447 786 q 306 842 353 786 q 256 999 258 899 l 283 999 q 333 918 297 943 q 447 893 368 893 q 562 918 526 893 q 611 999 597 943 l 639 999 q 589 842 636 899 q 447 786 542 786 m 581 0 q 526 16 542 0 q 510 69 510 32 l 510 76 q 244 -14 417 -14 q 103 27 154 -14 q 53 154 53 68 q 103 289 53 240 q 251 358 154 338 q 510 383 349 379 l 510 485 q 479 597 510 563 q 372 631 449 631 q 253 613 308 631 q 142 561 199 596 l 124 588 q 284 663 190 635 q 494 692 378 692 q 718 630 651 692 q 785 451 785 568 l 785 67 q 791 46 785 51 q 818 36 797 40 l 867 25 l 867 0 l 581 0 m 400 74 q 510 121 460 74 l 510 346 q 392 322 432 340 q 337 268 351 303 q 322 174 322 233 q 341 97 322 121 q 400 74 360 74 z "},"å":{"ha":894,"x_min":53,"x_max":867,"o":"m 461 1050 q 574 1017 529 1050 q 619 918 619 983 q 574 819 619 853 q 461 786 529 786 q 348 819 393 786 q 303 918 303 853 q 348 1017 303 983 q 461 1050 393 1050 m 461 810 q 507 837 493 810 q 521 918 521 864 q 507 999 521 972 q 461 1026 493 1026 q 415 999 429 1026 q 401 918 401 972 q 415 837 401 864 q 461 810 429 810 m 581 0 q 526 16 542 0 q 510 69 510 32 l 510 76 q 244 -14 417 -14 q 103 27 154 -14 q 53 154 53 68 q 103 289 53 240 q 251 358 154 338 q 510 383 349 379 l 510 485 q 479 597 510 563 q 372 631 449 631 q 253 613 308 631 q 142 561 199 596 l 124 588 q 284 663 190 635 q 494 692 378 692 q 718 630 651 692 q 785 451 785 568 l 785 67 q 791 46 785 51 q 818 36 797 40 l 867 25 l 867 0 l 581 0 m 400 74 q 510 121 460 74 l 510 346 q 392 322 432 340 q 337 268 351 303 q 322 174 322 233 q 341 97 322 121 q 400 74 360 74 z "},"ǻ":{"ha":894,"x_min":53,"x_max":867,"o":"m 676 1310 q 731 1261 708 1294 q 754 1189 753 1228 q 602 1135 694 1161 q 440 1099 510 1110 l 433 1114 l 486 1153 q 567 1215 499 1163 q 676 1310 635 1267 m 461 1050 q 574 1017 529 1050 q 619 918 619 983 q 574 819 619 853 q 461 786 529 786 q 348 819 393 786 q 303 918 303 853 q 348 1017 303 983 q 461 1050 393 1050 m 461 810 q 507 837 493 810 q 521 918 521 864 q 507 999 521 972 q 461 1026 493 1026 q 415 999 429 1026 q 401 918 401 972 q 415 837 401 864 q 461 810 429 810 m 581 0 q 526 16 542 0 q 510 69 510 32 l 510 76 q 244 -14 417 -14 q 103 27 154 -14 q 53 154 53 68 q 103 289 53 240 q 251 358 154 338 q 510 383 349 379 l 510 485 q 479 597 510 563 q 372 631 449 631 q 253 613 308 631 q 142 561 199 596 l 124 588 q 284 663 190 635 q 494 692 378 692 q 718 630 651 692 q 785 451 785 568 l 785 67 q 791 46 785 51 q 818 36 797 40 l 867 25 l 867 0 l 581 0 m 400 74 q 510 121 460 74 l 510 346 q 392 322 432 340 q 337 268 351 303 q 322 174 322 233 q 341 97 322 121 q 400 74 360 74 z "},"ą":{"ha":894,"x_min":53,"x_max":867,"o":"m 825 -212 q 672 -285 761 -285 q 563 -258 600 -285 q 525 -182 525 -232 q 576 -69 525 -115 q 708 0 626 -24 l 581 0 q 526 16 542 0 q 510 69 510 32 l 510 76 q 244 -14 417 -14 q 103 27 154 -14 q 53 154 53 68 q 103 289 53 240 q 251 358 154 338 q 510 383 349 379 l 510 485 q 479 597 510 563 q 372 631 449 631 q 253 613 308 631 q 142 561 199 596 l 124 588 q 284 663 190 635 q 494 692 378 692 q 718 630 651 692 q 785 451 785 568 l 785 67 q 791 46 785 51 q 818 36 797 40 l 867 25 l 867 0 l 746 0 q 681 -58 700 -22 q 661 -147 661 -93 q 680 -210 661 -190 q 742 -229 699 -229 q 815 -197 775 -229 l 825 -212 m 400 74 q 510 121 460 74 l 510 346 q 392 322 432 340 q 337 268 351 303 q 322 174 322 233 q 341 97 322 121 q 400 74 360 74 z "},"æ":{"ha":1339,"x_min":53,"x_max":1272,"o":"m 797 356 q 845 122 799 203 q 1018 40 892 40 q 1126 60 1076 40 q 1231 115 1176 79 l 1249 89 q 915 -17 1119 -17 q 731 16 811 -17 q 600 110 651 49 q 250 -14 401 -14 q 106 28 158 -14 q 53 154 53 69 q 106 289 53 240 q 259 358 158 338 q 521 383 360 379 l 521 485 q 488 597 521 563 q 378 631 454 631 q 142 561 256 631 l 124 588 q 285 663 189 633 q 494 692 382 692 q 693 643 621 692 q 931 692 788 692 q 1117 656 1040 692 q 1233 559 1194 619 q 1272 425 1272 499 q 1265 356 1272 388 l 797 356 m 922 658 q 826 593 854 658 q 797 392 799 528 l 1014 392 l 1014 496 q 994 618 1014 578 q 922 658 974 658 m 406 74 q 521 115 465 74 l 521 346 q 399 322 442 340 q 340 267 357 303 q 322 174 322 232 q 343 98 322 122 q 406 74 364 74 z "},"ǽ":{"ha":1339,"x_min":53,"x_max":1272,"o":"m 849 997 q 903 949 881 982 q 926 876 925 915 q 774 823 867 849 q 613 786 682 797 l 606 801 l 658 840 q 739 902 671 850 q 849 997 807 954 m 797 356 q 845 122 799 203 q 1018 40 892 40 q 1126 60 1076 40 q 1231 115 1176 79 l 1249 89 q 915 -17 1119 -17 q 731 16 811 -17 q 600 110 651 49 q 250 -14 401 -14 q 106 28 158 -14 q 53 154 53 69 q 106 289 53 240 q 259 358 158 338 q 521 383 360 379 l 521 485 q 488 597 521 563 q 378 631 454 631 q 142 561 256 631 l 124 588 q 285 663 189 633 q 494 692 382 692 q 693 643 621 692 q 931 692 788 692 q 1117 656 1040 692 q 1233 559 1194 619 q 1272 425 1272 499 q 1265 356 1272 388 l 797 356 m 922 658 q 826 593 854 658 q 797 392 799 528 l 1014 392 l 1014 496 q 994 618 1014 578 q 922 658 974 658 m 406 74 q 521 115 465 74 l 521 346 q 399 322 442 340 q 340 267 357 303 q 322 174 322 232 q 343 98 322 122 q 406 74 364 74 z "},"ć":{"ha":883,"x_min":69,"x_max":819,"o":"m 690 997 q 744 949 722 982 q 768 876 767 915 q 616 823 708 849 q 454 786 524 797 l 447 801 l 500 840 q 581 902 513 850 q 690 997 649 954 m 519 692 q 804 636 693 692 l 788 454 l 761 454 q 684 606 732 557 q 544 656 636 656 q 401 585 443 656 q 358 375 358 514 q 376 189 358 260 q 442 81 394 118 q 575 44 489 44 q 694 63 640 44 q 801 118 749 82 l 819 92 q 673 13 754 42 q 483 -17 592 -17 q 178 74 288 -17 q 69 346 69 164 q 183 605 69 518 q 519 692 297 692 z "},"ĉ":{"ha":883,"x_min":69,"x_max":819,"o":"m 533 997 q 719 807 615 894 l 704 786 q 497 882 603 821 q 290 786 392 821 l 275 807 q 461 997 375 889 l 533 997 m 519 692 q 804 636 693 692 l 788 454 l 761 454 q 684 606 732 557 q 544 656 636 656 q 401 585 443 656 q 358 375 358 514 q 376 189 358 260 q 442 81 394 118 q 575 44 489 44 q 694 63 640 44 q 801 118 749 82 l 819 92 q 673 13 754 42 q 483 -17 592 -17 q 178 74 288 -17 q 69 346 69 164 q 183 605 69 518 q 519 692 297 692 z "},"č":{"ha":883,"x_min":69,"x_max":819,"o":"m 461 786 q 275 976 375 894 l 290 997 q 497 901 392 963 q 704 997 603 963 l 719 976 q 533 786 615 889 l 461 786 m 519 692 q 804 636 693 692 l 788 454 l 761 454 q 684 606 732 557 q 544 656 636 656 q 401 585 443 656 q 358 375 358 514 q 376 189 358 260 q 442 81 394 118 q 575 44 489 44 q 694 63 640 44 q 801 118 749 82 l 819 92 q 673 13 754 42 q 483 -17 592 -17 q 178 74 288 -17 q 69 346 69 164 q 183 605 69 518 q 519 692 297 692 z "},"ċ":{"ha":883,"x_min":69,"x_max":819,"o":"m 497 790 q 410 817 443 790 q 376 894 376 843 q 410 972 376 946 q 497 999 443 999 q 585 972 551 999 q 618 894 618 946 q 585 817 618 843 q 497 790 551 790 m 519 692 q 804 636 693 692 l 788 454 l 761 454 q 684 606 732 557 q 544 656 636 656 q 401 585 443 656 q 358 375 358 514 q 376 189 358 260 q 442 81 394 118 q 575 44 489 44 q 694 63 640 44 q 801 118 749 82 l 819 92 q 673 13 754 42 q 483 -17 592 -17 q 178 74 288 -17 q 69 346 69 164 q 183 605 69 518 q 519 692 297 692 z "},"ç":{"ha":883,"x_min":69,"x_max":819,"o":"m 414 -12 q 160 91 250 1 q 69 346 69 181 q 183 605 69 518 q 519 692 297 692 q 804 636 693 692 l 788 454 l 761 454 q 684 606 732 557 q 544 656 636 656 q 401 585 443 656 q 358 375 358 514 q 376 189 358 260 q 442 81 394 118 q 575 44 489 44 q 694 63 640 44 q 801 118 749 82 l 819 92 q 673 13 754 42 q 483 -17 592 -17 q 444 -15 457 -17 l 442 -50 q 583 -84 532 -54 q 633 -171 633 -114 q 585 -259 633 -229 q 465 -289 538 -289 q 393 -281 431 -289 q 333 -261 356 -272 l 343 -236 q 439 -254 382 -254 q 498 -241 479 -254 q 517 -196 517 -228 q 487 -135 517 -156 q 401 -106 457 -115 l 414 -12 z "},"ď":{"ha":1300,"x_min":69,"x_max":1264,"o":"m 717 0 q 663 19 679 0 q 646 78 646 39 q 404 -17 557 -17 q 160 71 251 -17 q 69 344 69 158 q 160 608 69 524 q 404 692 250 692 q 544 672 488 692 q 643 622 600 653 l 643 906 q 637 926 643 921 q 610 936 631 932 l 561 947 l 561 972 l 894 1014 l 921 1014 l 921 67 q 927 46 921 51 q 954 36 933 40 l 1003 25 l 1003 0 l 717 0 m 1163 778 q 1142 776 1156 776 q 1063 805 1089 776 q 1036 878 1036 833 q 1066 953 1036 922 q 1147 983 1096 983 q 1233 953 1201 983 q 1264 867 1264 924 q 1219 715 1264 789 q 1106 588 1175 640 l 1081 611 q 1144 694 1126 658 q 1163 778 1161 731 m 486 43 q 643 121 568 43 l 643 581 q 493 633 576 633 q 386 566 417 633 q 356 344 356 499 q 367 170 356 235 q 408 74 379 106 q 486 43 436 43 z "},"đ":{"ha":1036,"x_min":69,"x_max":1003,"o":"m 643 836 l 643 906 q 637 926 643 921 q 610 936 631 932 l 561 947 l 561 972 l 894 1014 l 921 1014 l 921 836 l 1003 836 l 1003 803 l 921 803 l 921 67 q 927 46 921 51 q 954 36 933 40 l 1003 25 l 1003 0 l 717 0 q 663 19 679 0 q 646 78 646 39 q 404 -17 557 -17 q 160 71 251 -17 q 69 344 69 158 q 160 608 69 524 q 404 692 250 692 q 544 672 488 692 q 643 622 600 653 l 643 803 l 419 803 l 419 836 l 643 836 m 486 43 q 643 121 568 43 l 643 581 q 493 633 576 633 q 386 566 417 633 q 356 344 356 499 q 367 170 356 235 q 408 74 379 106 q 486 43 436 43 z "},"ð":{"ha":840,"x_min":69,"x_max":936,"o":"m 615 878 q 850 654 764 792 q 936 338 936 517 q 824 71 936 158 q 503 -17 713 -17 q 181 71 293 -17 q 69 338 69 158 q 181 604 69 517 q 503 692 293 692 q 607 681 556 692 q 519 824 578 761 l 404 757 l 385 790 l 492 851 q 308 965 417 921 l 317 986 q 575 900 456 961 l 719 983 l 739 950 l 615 878 m 358 338 q 370 147 358 214 q 413 50 382 81 q 503 19 443 19 q 593 50 563 19 q 635 147 624 81 q 647 338 647 214 q 635 528 647 461 q 593 625 624 594 q 503 656 563 656 q 413 625 443 656 q 370 528 382 594 q 358 338 358 461 z "},"è":{"ha":914,"x_min":69,"x_max":847,"o":"m 404 997 q 514 902 446 954 q 594 840 582 850 l 647 801 l 640 786 q 478 823 571 797 q 326 876 386 849 q 350 949 328 915 q 404 997 372 982 m 356 356 q 405 121 357 201 q 585 40 453 40 q 701 60 650 40 q 806 115 751 79 l 824 89 q 482 -17 694 -17 q 180 76 290 -17 q 69 346 69 168 q 182 603 69 514 q 497 692 294 692 q 692 656 613 692 q 809 559 771 619 q 847 425 847 499 q 840 356 847 388 l 356 356 m 489 658 q 385 594 413 658 q 356 392 357 531 l 589 392 l 589 496 q 569 619 589 581 q 489 658 549 658 z "},"é":{"ha":914,"x_min":69,"x_max":847,"o":"m 565 997 q 619 949 597 982 q 643 876 642 915 q 491 823 583 849 q 329 786 399 797 l 322 801 l 375 840 q 456 902 388 850 q 565 997 524 954 m 356 356 q 405 121 357 201 q 585 40 453 40 q 701 60 650 40 q 806 115 751 79 l 824 89 q 482 -17 694 -17 q 180 76 290 -17 q 69 346 69 168 q 182 603 69 514 q 497 692 294 692 q 692 656 613 692 q 809 559 771 619 q 847 425 847 499 q 840 356 847 388 l 356 356 m 489 658 q 385 594 413 658 q 356 392 357 531 l 589 392 l 589 496 q 569 619 589 581 q 489 658 549 658 z "},"ê":{"ha":914,"x_min":69,"x_max":847,"o":"m 521 997 q 707 807 603 894 l 692 786 q 485 882 590 821 q 278 786 379 821 l 263 807 q 449 997 363 889 l 521 997 m 356 356 q 405 121 357 201 q 585 40 453 40 q 701 60 650 40 q 806 115 751 79 l 824 89 q 482 -17 694 -17 q 180 76 290 -17 q 69 346 69 168 q 182 603 69 514 q 497 692 294 692 q 692 656 613 692 q 809 559 771 619 q 847 425 847 499 q 840 356 847 388 l 356 356 m 489 658 q 385 594 413 658 q 356 392 357 531 l 589 392 l 589 496 q 569 619 589 581 q 489 658 549 658 z "},"ě":{"ha":914,"x_min":69,"x_max":847,"o":"m 449 786 q 263 976 363 894 l 278 997 q 485 901 379 963 q 692 997 590 963 l 707 976 q 521 786 603 889 l 449 786 m 356 356 q 405 121 357 201 q 585 40 453 40 q 701 60 650 40 q 806 115 751 79 l 824 89 q 482 -17 694 -17 q 180 76 290 -17 q 69 346 69 168 q 182 603 69 514 q 497 692 294 692 q 692 656 613 692 q 809 559 771 619 q 847 425 847 499 q 840 356 847 388 l 356 356 m 489 658 q 385 594 413 658 q 356 392 357 531 l 589 392 l 589 496 q 569 619 589 581 q 489 658 549 658 z "},"ë":{"ha":914,"x_min":69,"x_max":847,"o":"m 319 796 q 242 825 272 796 q 213 897 213 854 q 242 969 213 940 q 319 999 272 999 q 397 969 367 999 q 426 897 426 940 q 397 825 426 854 q 319 796 367 796 m 650 796 q 573 825 603 796 q 543 897 543 854 q 573 969 543 940 q 650 999 603 999 q 727 969 697 999 q 757 897 757 940 q 727 825 757 854 q 650 796 697 796 m 356 356 q 405 121 357 201 q 585 40 453 40 q 701 60 650 40 q 806 115 751 79 l 824 89 q 482 -17 694 -17 q 180 76 290 -17 q 69 346 69 168 q 182 603 69 514 q 497 692 294 692 q 692 656 613 692 q 809 559 771 619 q 847 425 847 499 q 840 356 847 388 l 356 356 m 489 658 q 385 594 413 658 q 356 392 357 531 l 589 392 l 589 496 q 569 619 589 581 q 489 658 549 658 z "},"ē":{"ha":914,"x_min":69,"x_max":847,"o":"m 749 844 l 749 811 l 221 811 l 221 844 l 749 844 m 356 356 q 405 121 357 201 q 585 40 453 40 q 701 60 650 40 q 806 115 751 79 l 824 89 q 482 -17 694 -17 q 180 76 290 -17 q 69 346 69 168 q 182 603 69 514 q 497 692 294 692 q 692 656 613 692 q 809 559 771 619 q 847 425 847 499 q 840 356 847 388 l 356 356 m 489 658 q 385 594 413 658 q 356 392 357 531 l 589 392 l 589 496 q 569 619 589 581 q 489 658 549 658 z "},"ĕ":{"ha":914,"x_min":69,"x_max":847,"o":"m 485 786 q 343 842 390 786 q 293 999 296 899 l 321 999 q 370 918 335 943 q 485 893 406 893 q 599 918 564 893 q 649 999 635 943 l 676 999 q 626 842 674 899 q 485 786 579 786 m 356 356 q 405 121 357 201 q 585 40 453 40 q 701 60 650 40 q 806 115 751 79 l 824 89 q 482 -17 694 -17 q 180 76 290 -17 q 69 346 69 168 q 182 603 69 514 q 497 692 294 692 q 692 656 613 692 q 809 559 771 619 q 847 425 847 499 q 840 356 847 388 l 356 356 m 489 658 q 385 594 413 658 q 356 392 357 531 l 589 392 l 589 496 q 569 619 589 581 q 489 658 549 658 z "},"ė":{"ha":914,"x_min":69,"x_max":847,"o":"m 485 790 q 397 817 431 790 q 364 894 364 843 q 397 972 364 946 q 485 999 431 999 q 572 972 539 999 q 606 894 606 946 q 572 817 606 843 q 485 790 539 790 m 356 356 q 405 121 357 201 q 585 40 453 40 q 701 60 650 40 q 806 115 751 79 l 824 89 q 482 -17 694 -17 q 180 76 290 -17 q 69 346 69 168 q 182 603 69 514 q 497 692 294 692 q 692 656 613 692 q 809 559 771 619 q 847 425 847 499 q 840 356 847 388 l 356 356 m 489 658 q 385 594 413 658 q 356 392 357 531 l 589 392 l 589 496 q 569 619 589 581 q 489 658 549 658 z "},"ę":{"ha":914,"x_min":69,"x_max":847,"o":"m 708 -212 q 556 -285 644 -285 q 446 -258 483 -285 q 408 -182 408 -232 q 447 -82 408 -124 q 551 -14 486 -40 q 482 -17 507 -17 q 180 76 290 -17 q 69 346 69 168 q 182 603 69 514 q 497 692 294 692 q 692 656 613 692 q 809 559 771 619 q 847 425 847 499 q 840 356 847 388 l 356 356 q 405 121 357 201 q 585 40 453 40 q 701 60 650 40 q 806 115 751 79 l 824 89 q 624 -3 740 19 q 563 -60 581 -25 q 544 -147 544 -96 q 563 -210 544 -190 q 625 -229 582 -229 q 699 -197 658 -229 l 708 -212 m 489 658 q 385 594 413 658 q 356 392 357 531 l 589 392 l 589 496 q 569 619 589 581 q 489 658 549 658 z "},"ĝ":{"ha":961,"x_min":81,"x_max":906,"o":"m 517 997 q 703 807 599 894 l 688 786 q 481 882 586 821 q 274 786 375 821 l 258 807 q 444 997 358 889 l 517 997 m 822 665 q 725 681 767 681 q 663 665 686 681 q 839 465 839 615 q 743 291 839 344 q 472 238 647 238 q 301 256 374 238 q 226 241 258 253 q 193 210 193 229 q 211 178 193 189 q 268 162 229 168 q 397 147 307 156 l 633 125 q 792 94 733 115 q 878 31 851 72 q 906 -76 906 -10 q 841 -223 906 -165 q 675 -307 776 -281 q 458 -333 574 -333 q 187 -288 293 -333 q 81 -151 81 -243 q 126 -61 81 -93 q 247 -19 172 -29 q 89 129 89 18 q 236 276 89 250 q 106 465 106 333 q 201 638 106 586 q 472 689 296 689 q 619 675 557 686 q 732 776 660 736 q 906 815 804 815 l 872 656 l 857 656 l 822 665 m 472 272 q 560 319 538 272 q 583 465 583 365 q 560 608 583 561 q 472 654 538 654 q 384 608 407 654 q 361 465 361 561 q 384 319 361 365 q 472 272 407 272 m 392 -43 q 289 -28 318 -33 q 271 -126 271 -67 q 313 -254 271 -212 q 468 -296 354 -296 q 675 -263 601 -296 q 749 -167 749 -231 q 734 -112 749 -131 q 686 -83 719 -93 q 588 -65 653 -72 l 392 -43 z "},"ğ":{"ha":961,"x_min":81,"x_max":906,"o":"m 481 786 q 339 842 386 786 q 289 999 292 899 l 317 999 q 366 918 331 943 q 481 893 401 893 q 595 918 560 893 q 644 999 631 943 l 672 999 q 622 842 669 899 q 481 786 575 786 m 822 665 q 725 681 767 681 q 663 665 686 681 q 839 465 839 615 q 743 291 839 344 q 472 238 647 238 q 301 256 374 238 q 226 241 258 253 q 193 210 193 229 q 211 178 193 189 q 268 162 229 168 q 397 147 307 156 l 633 125 q 792 94 733 115 q 878 31 851 72 q 906 -76 906 -10 q 841 -223 906 -165 q 675 -307 776 -281 q 458 -333 574 -333 q 187 -288 293 -333 q 81 -151 81 -243 q 126 -61 81 -93 q 247 -19 172 -29 q 89 129 89 18 q 236 276 89 250 q 106 465 106 333 q 201 638 106 586 q 472 689 296 689 q 619 675 557 686 q 732 776 660 736 q 906 815 804 815 l 872 656 l 857 656 l 822 665 m 472 272 q 560 319 538 272 q 583 465 583 365 q 560 608 583 561 q 472 654 538 654 q 384 608 407 654 q 361 465 361 561 q 384 319 361 365 q 472 272 407 272 m 392 -43 q 289 -28 318 -33 q 271 -126 271 -67 q 313 -254 271 -212 q 468 -296 354 -296 q 675 -263 601 -296 q 749 -167 749 -231 q 734 -112 749 -131 q 686 -83 719 -93 q 588 -65 653 -72 l 392 -43 z "},"ġ":{"ha":961,"x_min":81,"x_max":906,"o":"m 481 790 q 393 817 426 790 q 360 894 360 843 q 393 972 360 946 q 481 999 426 999 q 568 972 535 999 q 601 894 601 946 q 568 817 601 843 q 481 790 535 790 m 822 665 q 725 681 767 681 q 663 665 686 681 q 839 465 839 615 q 743 291 839 344 q 472 238 647 238 q 301 256 374 238 q 226 241 258 253 q 193 210 193 229 q 211 178 193 189 q 268 162 229 168 q 397 147 307 156 l 633 125 q 792 94 733 115 q 878 31 851 72 q 906 -76 906 -10 q 841 -223 906 -165 q 675 -307 776 -281 q 458 -333 574 -333 q 187 -288 293 -333 q 81 -151 81 -243 q 126 -61 81 -93 q 247 -19 172 -29 q 89 129 89 18 q 236 276 89 250 q 106 465 106 333 q 201 638 106 586 q 472 689 296 689 q 619 675 557 686 q 732 776 660 736 q 906 815 804 815 l 872 656 l 857 656 l 822 665 m 472 272 q 560 319 538 272 q 583 465 583 365 q 560 608 583 561 q 472 654 538 654 q 384 608 407 654 q 361 465 361 561 q 384 319 361 365 q 472 272 407 272 m 392 -43 q 289 -28 318 -33 q 271 -126 271 -67 q 313 -254 271 -212 q 468 -296 354 -296 q 675 -263 601 -296 q 749 -167 749 -231 q 734 -112 749 -131 q 686 -83 719 -93 q 588 -65 653 -72 l 392 -43 z "},"ģ":{"ha":961,"x_min":81,"x_max":906,"o":"m 468 996 q 489 997 475 997 q 568 969 542 997 q 594 896 594 940 q 565 821 594 851 q 483 790 535 790 q 398 820 429 790 q 367 907 367 850 q 411 1059 367 985 q 525 1186 456 1133 l 550 1163 q 487 1079 504 1115 q 468 996 469 1043 m 822 665 q 725 681 767 681 q 663 665 686 681 q 839 465 839 615 q 743 291 839 344 q 472 238 647 238 q 301 256 374 238 q 226 241 258 253 q 193 210 193 229 q 211 178 193 189 q 268 162 229 168 q 397 147 307 156 l 633 125 q 792 94 733 115 q 878 31 851 72 q 906 -76 906 -10 q 841 -223 906 -165 q 675 -307 776 -281 q 458 -333 574 -333 q 187 -288 293 -333 q 81 -151 81 -243 q 126 -61 81 -93 q 247 -19 172 -29 q 89 129 89 18 q 236 276 89 250 q 106 465 106 333 q 201 638 106 586 q 472 689 296 689 q 619 675 557 686 q 732 776 660 736 q 906 815 804 815 l 872 656 l 857 656 l 822 665 m 472 272 q 560 319 538 272 q 583 465 583 365 q 560 608 583 561 q 472 654 538 654 q 384 608 407 654 q 361 465 361 561 q 384 319 361 365 q 472 272 407 272 m 392 -43 q 289 -28 318 -33 q 271 -126 271 -67 q 313 -254 271 -212 q 468 -296 354 -296 q 675 -263 601 -296 q 749 -167 749 -231 q 734 -112 749 -131 q 686 -83 719 -93 q 588 -65 653 -72 l 392 -43 z "},"ĥ":{"ha":1042,"x_min":33,"x_max":1011,"o":"m 296 1294 q 482 1104 378 1192 l 467 1083 q 260 1179 365 1118 q 53 1083 154 1118 l 38 1104 q 224 1294 138 1186 l 296 1294 m 929 67 q 935 46 929 51 q 963 36 942 40 l 1011 25 l 1011 0 l 722 0 q 668 19 685 0 q 651 78 651 39 l 651 500 q 631 589 651 563 q 564 615 611 615 q 393 546 481 615 l 393 67 q 399 45 393 51 q 425 35 406 39 l 472 25 l 472 0 l 33 0 l 33 25 l 82 36 q 109 46 103 40 q 115 67 115 51 l 115 906 q 109 926 115 921 q 82 936 103 932 l 33 947 l 33 972 l 367 1014 l 393 1014 l 393 589 q 521 662 446 632 q 689 692 596 692 q 874 638 818 692 q 929 475 929 583 l 929 67 z "},"ħ":{"ha":1042,"x_min":33,"x_max":1011,"o":"m 115 836 l 115 906 q 109 926 115 921 q 82 936 103 932 l 33 947 l 33 972 l 367 1014 l 393 1014 l 393 836 l 617 836 l 617 803 l 393 803 l 393 589 q 521 662 446 632 q 689 692 596 692 q 874 638 818 692 q 929 475 929 583 l 929 67 q 935 46 929 51 q 963 36 942 40 l 1011 25 l 1011 0 l 722 0 q 668 19 685 0 q 651 78 651 39 l 651 500 q 631 589 651 563 q 564 615 611 615 q 393 546 481 615 l 393 67 q 399 45 393 51 q 425 35 406 39 l 472 25 l 472 0 l 33 0 l 33 25 l 82 36 q 109 46 103 40 q 115 67 115 51 l 115 803 l 33 803 l 33 836 l 115 836 z "},"ı":{"ha":514,"x_min":36,"x_max":478,"o":"m 36 25 l 85 36 q 112 46 106 40 q 118 67 118 51 l 118 592 q 112 613 118 607 q 85 622 106 618 l 36 633 l 36 658 l 369 700 l 396 700 l 396 67 q 402 46 396 51 q 429 36 408 40 l 478 25 l 478 0 l 36 0 l 36 25 z "},"ì":{"ha":514,"x_min":36,"x_max":478,"o":"m 121 997 q 231 902 163 954 q 311 840 299 850 l 364 801 l 357 786 q 195 823 288 797 q 43 876 103 849 q 67 949 44 915 q 121 997 89 982 m 36 25 l 85 36 q 112 46 106 40 q 118 67 118 51 l 118 592 q 112 613 118 607 q 85 622 106 618 l 36 633 l 36 658 l 369 700 l 396 700 l 396 67 q 402 46 396 51 q 429 36 408 40 l 478 25 l 478 0 l 36 0 l 36 25 z "},"í":{"ha":514,"x_min":36,"x_max":478,"o":"m 393 997 q 447 949 425 982 q 471 876 469 915 q 319 823 411 849 q 157 786 226 797 l 150 801 l 203 840 q 283 902 215 850 q 393 997 351 954 m 36 25 l 85 36 q 112 46 106 40 q 118 67 118 51 l 118 592 q 112 613 118 607 q 85 622 106 618 l 36 633 l 36 658 l 369 700 l 396 700 l 396 67 q 402 46 396 51 q 429 36 408 40 l 478 25 l 478 0 l 36 0 l 36 25 z "},"ĭ":{"ha":514,"x_min":36,"x_max":478,"o":"m 257 786 q 115 842 163 786 q 65 999 68 899 l 93 999 q 142 918 107 943 q 257 893 178 893 q 372 918 336 893 q 421 999 407 943 l 449 999 q 399 842 446 899 q 257 786 351 786 m 36 25 l 85 36 q 112 46 106 40 q 118 67 118 51 l 118 592 q 112 613 118 607 q 85 622 106 618 l 36 633 l 36 658 l 369 700 l 396 700 l 396 67 q 402 46 396 51 q 429 36 408 40 l 478 25 l 478 0 l 36 0 l 36 25 z "},"î":{"ha":514,"x_min":35,"x_max":479,"o":"m 293 997 q 479 807 375 894 l 464 786 q 257 882 363 821 q 50 786 151 821 l 35 807 q 221 997 135 889 l 293 997 m 36 25 l 85 36 q 112 46 106 40 q 118 67 118 51 l 118 592 q 112 613 118 607 q 85 622 106 618 l 36 633 l 36 658 l 369 700 l 396 700 l 396 67 q 402 46 396 51 q 429 36 408 40 l 478 25 l 478 0 l 36 0 l 36 25 z "},"ĩ":{"ha":514,"x_min":-6,"x_max":519,"o":"m 375 783 q 313 796 350 783 q 183 846 276 808 l 133 865 q 101 871 121 871 q 69 864 85 871 q 44 844 54 857 l 11 803 l -6 810 q 31 897 15 864 q 74 957 47 931 q 139 983 101 983 q 201 971 164 983 q 331 921 238 958 l 381 901 q 413 896 393 896 q 444 903 429 896 q 469 922 460 910 l 503 964 l 519 957 q 483 869 499 903 q 440 810 467 836 q 375 783 413 783 m 36 25 l 85 36 q 112 46 106 40 q 118 67 118 51 l 118 592 q 112 613 118 607 q 85 622 106 618 l 36 633 l 36 658 l 369 700 l 396 700 l 396 67 q 402 46 396 51 q 429 36 408 40 l 478 25 l 478 0 l 36 0 l 36 25 z "},"ï":{"ha":514,"x_min":-15,"x_max":529,"o":"m 92 796 q 15 825 44 796 q -15 897 -15 854 q 15 969 -15 940 q 92 999 44 999 q 169 969 139 999 q 199 897 199 940 q 169 825 199 854 q 92 796 139 796 m 422 796 q 345 825 375 796 q 315 897 315 854 q 345 969 315 940 q 422 999 375 999 q 499 969 469 999 q 529 897 529 940 q 499 825 529 854 q 422 796 469 796 m 36 25 l 85 36 q 112 46 106 40 q 118 67 118 51 l 118 592 q 112 613 118 607 q 85 622 106 618 l 36 633 l 36 658 l 369 700 l 396 700 l 396 67 q 402 46 396 51 q 429 36 408 40 l 478 25 l 478 0 l 36 0 l 36 25 z "},"ī":{"ha":514,"x_min":-7,"x_max":521,"o":"m 521 844 l 521 811 l -7 811 l -7 844 l 521 844 m 36 25 l 85 36 q 112 46 106 40 q 118 67 118 51 l 118 592 q 112 613 118 607 q 85 622 106 618 l 36 633 l 36 658 l 369 700 l 396 700 l 396 67 q 402 46 396 51 q 429 36 408 40 l 478 25 l 478 0 l 36 0 l 36 25 z "},"į":{"ha":514,"x_min":36,"x_max":478,"o":"m 257 781 q 153 810 192 781 q 114 897 114 840 q 153 984 114 954 q 257 1014 192 1014 q 361 984 322 1014 q 400 897 400 954 q 361 810 400 840 q 257 781 322 781 m 393 -212 q 240 -285 329 -285 q 131 -258 168 -285 q 93 -182 93 -232 q 144 -69 93 -115 q 276 0 194 -24 l 36 0 l 36 25 l 85 36 q 112 46 106 40 q 118 67 118 51 l 118 592 q 112 613 118 607 q 85 622 106 618 l 36 633 l 36 658 l 369 700 l 396 700 l 396 67 q 402 46 396 51 q 429 36 408 40 l 478 25 l 478 0 l 314 0 q 249 -58 268 -22 q 229 -147 229 -93 q 248 -210 229 -190 q 310 -229 267 -229 q 383 -197 343 -229 l 393 -212 z "},"ȷ":{"ha":539,"x_min":-74,"x_max":424,"o":"m 146 592 q 140 613 146 607 q 113 622 133 618 l 64 633 l 64 658 l 397 700 l 424 700 l 424 -43 q 363 -262 424 -192 q 153 -333 301 -333 q -74 -261 6 -333 l -56 -235 q 1 -270 -31 -257 q 67 -283 33 -283 q 128 -255 110 -283 q 146 -142 146 -226 l 146 592 z "},"ĵ":{"ha":539,"x_min":-74,"x_max":492,"o":"m 306 997 q 492 807 388 894 l 476 786 q 269 882 375 821 q 63 786 164 821 l 47 807 q 233 997 147 889 l 306 997 m 146 592 q 140 613 146 607 q 113 622 133 618 l 64 633 l 64 658 l 397 700 l 424 700 l 424 -43 q 363 -262 424 -192 q 153 -333 301 -333 q -74 -261 6 -333 l -56 -235 q 1 -270 -31 -257 q 67 -283 33 -283 q 128 -255 110 -283 q 146 -142 146 -226 l 146 592 z "},"ķ":{"ha":1039,"x_min":33,"x_max":1017,"o":"m 669 567 q 625 640 669 635 l 610 642 l 610 667 q 772 692 693 692 q 886 663 854 692 q 918 578 918 633 q 860 439 918 501 q 656 356 801 376 q 718 326 693 346 q 775 267 743 307 l 929 64 q 950 42 942 49 q 974 33 958 36 l 1017 25 l 1017 0 l 750 0 q 692 12 713 0 q 656 47 671 24 l 440 347 l 393 347 l 393 67 q 399 45 393 51 q 425 35 406 39 l 472 25 l 472 0 l 33 0 l 33 25 l 82 36 q 109 46 103 40 q 115 67 115 51 l 115 906 q 109 926 115 921 q 82 936 103 932 l 33 947 l 33 972 l 367 1014 l 393 1014 l 393 383 l 474 383 q 626 431 583 383 q 669 567 669 479 m 574 -286 q 553 -287 567 -287 q 474 -259 500 -287 q 447 -186 447 -231 q 477 -111 447 -142 q 558 -81 507 -81 q 644 -110 613 -81 q 675 -197 675 -140 q 631 -349 675 -275 q 517 -476 586 -424 l 492 -453 q 555 -369 538 -406 q 574 -286 572 -333 z "},"ĸ":{"ha":1039,"x_min":33,"x_max":1017,"o":"m 1017 25 l 1017 0 l 750 0 q 692 12 713 0 q 656 47 671 24 l 440 347 l 393 347 l 393 67 q 399 45 393 51 q 425 35 406 39 l 472 25 l 472 0 l 33 0 l 33 25 l 82 36 q 109 46 103 40 q 115 67 115 51 l 115 592 q 109 613 115 607 q 82 622 103 618 l 33 633 l 33 658 l 369 700 l 393 700 l 393 383 l 474 383 q 626 431 583 383 q 669 567 669 479 q 625 640 669 635 l 610 642 l 610 667 q 772 692 693 692 q 886 663 854 692 q 918 578 918 633 q 860 438 918 500 q 656 356 801 375 q 719 326 694 346 q 775 267 744 307 l 929 64 q 950 42 942 49 q 974 33 958 36 l 1017 25 z "},"ĺ":{"ha":508,"x_min":33,"x_max":511,"o":"m 433 1294 q 488 1246 465 1279 q 511 1174 510 1213 q 359 1120 451 1146 q 197 1083 267 1094 l 190 1099 l 243 1138 q 324 1199 256 1147 q 433 1294 392 1251 m 33 25 l 82 36 q 109 46 103 40 q 115 67 115 51 l 115 906 q 109 926 115 921 q 82 936 103 932 l 33 947 l 33 972 l 367 1014 l 393 1014 l 393 67 q 399 46 393 51 q 426 36 406 40 l 475 25 l 475 0 l 33 0 l 33 25 z "},"ľ":{"ha":772,"x_min":33,"x_max":736,"o":"m 33 25 l 82 36 q 109 46 103 40 q 115 67 115 51 l 115 906 q 109 926 115 921 q 82 936 103 932 l 33 947 l 33 972 l 367 1014 l 393 1014 l 393 67 q 399 46 393 51 q 426 36 406 40 l 475 25 l 475 0 l 33 0 l 33 25 m 635 778 q 614 776 628 776 q 535 805 561 776 q 508 878 508 833 q 538 953 508 922 q 619 983 568 983 q 705 953 674 983 q 736 867 736 924 q 692 715 736 789 q 578 588 647 640 l 553 611 q 616 694 599 658 q 635 778 633 731 z "},"ļ":{"ha":508,"x_min":33,"x_max":475,"o":"m 33 25 l 82 36 q 109 46 103 40 q 115 67 115 51 l 115 906 q 109 926 115 921 q 82 936 103 932 l 33 947 l 33 972 l 367 1014 l 393 1014 l 393 67 q 399 46 393 51 q 426 36 406 40 l 475 25 l 475 0 l 33 0 l 33 25 m 267 -286 q 246 -287 260 -287 q 167 -259 193 -287 q 140 -186 140 -231 q 170 -111 140 -142 q 251 -81 200 -81 q 337 -110 306 -81 q 368 -197 368 -140 q 324 -349 368 -275 q 210 -476 279 -424 l 185 -453 q 248 -369 231 -406 q 267 -286 265 -333 z "},"ł":{"ha":508,"x_min":33,"x_max":475,"o":"m 33 25 l 82 36 q 109 46 103 40 q 115 67 115 51 l 115 450 l 33 422 l 33 461 l 115 489 l 115 906 q 109 926 115 921 q 82 936 103 932 l 33 947 l 33 972 l 367 1014 l 393 1014 l 393 586 l 475 615 l 475 576 l 393 547 l 393 67 q 399 46 393 51 q 426 36 406 40 l 475 25 l 475 0 l 33 0 l 33 25 z "},"ŀ":{"ha":825,"x_min":33,"x_max":783,"o":"m 33 25 l 82 36 q 109 46 103 40 q 115 67 115 51 l 115 906 q 109 926 115 921 q 82 936 103 932 l 33 947 l 33 972 l 367 1014 l 393 1014 l 393 67 q 399 46 393 51 q 426 36 406 40 l 475 25 l 475 0 l 33 0 l 33 25 m 667 272 q 584 306 618 272 q 550 386 550 339 q 584 467 550 433 q 667 500 618 500 q 749 467 715 500 q 783 386 783 433 q 749 306 783 339 q 667 272 715 272 z "},"ń":{"ha":1042,"x_min":33,"x_max":1011,"o":"m 700 997 q 754 949 732 982 q 778 876 776 915 q 626 823 718 849 q 464 786 533 797 l 457 801 l 510 840 q 590 902 522 850 q 700 997 658 954 m 929 67 q 935 46 929 51 q 963 36 942 40 l 1011 25 l 1011 0 l 722 0 q 668 19 685 0 q 651 78 651 39 l 651 500 q 631 589 651 563 q 564 615 611 615 q 393 546 481 615 l 393 67 q 399 45 393 51 q 425 35 406 39 l 472 25 l 472 0 l 33 0 l 33 25 l 82 36 q 109 46 103 40 q 115 67 115 51 l 115 592 q 109 613 115 607 q 82 622 103 618 l 33 633 l 33 658 l 367 700 l 390 700 l 390 588 q 519 661 443 631 q 689 692 596 692 q 874 638 818 692 q 929 475 929 583 l 929 67 z "},"ň":{"ha":1042,"x_min":33,"x_max":1011,"o":"m 485 786 q 299 976 399 894 l 314 997 q 521 901 415 963 q 728 997 626 963 l 743 976 q 557 786 639 889 l 485 786 m 929 67 q 935 46 929 51 q 963 36 942 40 l 1011 25 l 1011 0 l 722 0 q 668 19 685 0 q 651 78 651 39 l 651 500 q 631 589 651 563 q 564 615 611 615 q 393 546 481 615 l 393 67 q 399 45 393 51 q 425 35 406 39 l 472 25 l 472 0 l 33 0 l 33 25 l 82 36 q 109 46 103 40 q 115 67 115 51 l 115 592 q 109 613 115 607 q 82 622 103 618 l 33 633 l 33 658 l 367 700 l 390 700 l 390 588 q 519 661 443 631 q 689 692 596 692 q 874 638 818 692 q 929 475 929 583 l 929 67 z "},"ñ":{"ha":1042,"x_min":33,"x_max":1011,"o":"m 639 783 q 577 796 614 783 q 447 846 540 808 l 397 865 q 365 871 385 871 q 333 864 349 871 q 308 844 318 857 l 275 803 l 258 810 q 295 897 279 864 q 338 957 311 931 q 403 983 365 983 q 465 971 428 983 q 594 921 501 958 l 644 901 q 676 896 657 896 q 708 903 693 896 q 733 922 724 910 l 767 964 l 783 957 q 747 869 763 903 q 703 810 731 836 q 639 783 676 783 m 929 67 q 935 46 929 51 q 963 36 942 40 l 1011 25 l 1011 0 l 722 0 q 668 19 685 0 q 651 78 651 39 l 651 500 q 631 589 651 563 q 564 615 611 615 q 393 546 481 615 l 393 67 q 399 45 393 51 q 425 35 406 39 l 472 25 l 472 0 l 33 0 l 33 25 l 82 36 q 109 46 103 40 q 115 67 115 51 l 115 592 q 109 613 115 607 q 82 622 103 618 l 33 633 l 33 658 l 367 700 l 390 700 l 390 588 q 519 661 443 631 q 689 692 596 692 q 874 638 818 692 q 929 475 929 583 l 929 67 z "},"ņ":{"ha":1042,"x_min":33,"x_max":1011,"o":"m 929 67 q 935 46 929 51 q 963 36 942 40 l 1011 25 l 1011 0 l 722 0 q 668 19 685 0 q 651 78 651 39 l 651 500 q 631 589 651 563 q 564 615 611 615 q 393 546 481 615 l 393 67 q 399 45 393 51 q 425 35 406 39 l 472 25 l 472 0 l 33 0 l 33 25 l 82 36 q 109 46 103 40 q 115 67 115 51 l 115 592 q 109 613 115 607 q 82 622 103 618 l 33 633 l 33 658 l 367 700 l 390 700 l 390 588 q 519 661 443 631 q 689 692 596 692 q 874 638 818 692 q 929 475 929 583 l 929 67 m 547 -286 q 526 -287 540 -287 q 447 -259 474 -287 q 421 -186 421 -231 q 451 -111 421 -142 q 532 -81 481 -81 q 617 -110 586 -81 q 649 -197 649 -140 q 604 -349 649 -275 q 490 -476 560 -424 l 465 -453 q 528 -369 511 -406 q 547 -286 546 -333 z "},"ŉ":{"ha":1306,"x_min":0,"x_max":1275,"o":"m 126 778 q 106 776 119 776 q 26 805 53 776 q 0 878 0 833 q 30 953 0 922 q 111 983 60 983 q 197 953 165 983 q 228 867 228 924 q 183 715 228 789 q 69 588 139 640 l 44 611 q 108 694 90 658 q 126 778 125 731 m 1193 67 q 1199 46 1193 51 q 1226 36 1206 40 l 1275 25 l 1275 0 l 986 0 q 932 19 949 0 q 915 78 915 39 l 915 500 q 895 589 915 563 q 828 615 875 615 q 657 546 744 615 l 657 67 q 663 45 657 51 q 689 35 669 39 l 736 25 l 736 0 l 297 0 l 297 25 l 346 36 q 373 46 367 40 q 379 67 379 51 l 379 592 q 373 613 379 607 q 346 622 367 618 l 297 633 l 297 658 l 631 700 l 654 700 l 654 588 q 783 661 707 631 q 953 692 860 692 q 1138 638 1082 692 q 1193 475 1193 583 l 1193 67 z "},"ò":{"ha":1006,"x_min":69,"x_max":936,"o":"m 339 997 q 449 902 381 954 q 529 840 517 850 l 582 801 l 575 786 q 413 823 506 797 q 261 876 321 849 q 285 949 263 915 q 339 997 307 982 m 936 338 q 824 71 936 158 q 503 -17 713 -17 q 181 71 293 -17 q 69 338 69 158 q 181 604 69 517 q 503 692 293 692 q 824 604 713 692 q 936 338 936 517 m 358 338 q 370 147 358 214 q 413 50 382 81 q 503 19 443 19 q 593 50 563 19 q 635 147 624 81 q 647 338 647 214 q 635 528 647 461 q 593 625 624 594 q 503 656 563 656 q 413 625 443 656 q 370 528 382 594 q 358 338 358 461 z "},"ó":{"ha":1006,"x_min":69,"x_max":936,"o":"m 667 997 q 721 949 699 982 q 744 876 743 915 q 592 823 685 849 q 431 786 500 797 l 424 801 l 476 840 q 557 902 489 850 q 667 997 625 954 m 936 338 q 824 71 936 158 q 503 -17 713 -17 q 181 71 293 -17 q 69 338 69 158 q 181 604 69 517 q 503 692 293 692 q 824 604 713 692 q 936 338 936 517 m 358 338 q 370 147 358 214 q 413 50 382 81 q 503 19 443 19 q 593 50 563 19 q 635 147 624 81 q 647 338 647 214 q 635 528 647 461 q 593 625 624 594 q 503 656 563 656 q 413 625 443 656 q 370 528 382 594 q 358 338 358 461 z "},"ô":{"ha":1006,"x_min":69,"x_max":936,"o":"m 539 997 q 725 807 621 894 l 710 786 q 503 882 608 821 q 296 786 397 821 l 281 807 q 467 997 381 889 l 539 997 m 936 338 q 824 71 936 158 q 503 -17 713 -17 q 181 71 293 -17 q 69 338 69 158 q 181 604 69 517 q 503 692 293 692 q 824 604 713 692 q 936 338 936 517 m 358 338 q 370 147 358 214 q 413 50 382 81 q 503 19 443 19 q 593 50 563 19 q 635 147 624 81 q 647 338 647 214 q 635 528 647 461 q 593 625 624 594 q 503 656 563 656 q 413 625 443 656 q 370 528 382 594 q 358 338 358 461 z "},"õ":{"ha":1006,"x_min":69,"x_max":936,"o":"m 621 783 q 559 796 596 783 q 429 846 522 808 l 379 865 q 347 871 367 871 q 315 864 331 871 q 290 844 300 857 l 257 803 l 240 810 q 277 897 261 864 q 320 957 293 931 q 385 983 347 983 q 447 971 410 983 q 576 921 483 958 l 626 901 q 658 896 639 896 q 690 903 675 896 q 715 922 706 910 l 749 964 l 765 957 q 728 869 744 903 q 685 810 713 836 q 621 783 658 783 m 936 338 q 824 71 936 158 q 503 -17 713 -17 q 181 71 293 -17 q 69 338 69 158 q 181 604 69 517 q 503 692 293 692 q 824 604 713 692 q 936 338 936 517 m 358 338 q 370 147 358 214 q 413 50 382 81 q 503 19 443 19 q 593 50 563 19 q 635 147 624 81 q 647 338 647 214 q 635 528 647 461 q 593 625 624 594 q 503 656 563 656 q 413 625 443 656 q 370 528 382 594 q 358 338 358 461 z "},"ö":{"ha":1006,"x_min":69,"x_max":936,"o":"m 338 796 q 260 825 290 796 q 231 897 231 854 q 260 969 231 940 q 338 999 290 999 q 415 969 385 999 q 444 897 444 940 q 415 825 444 854 q 338 796 385 796 m 668 796 q 591 825 621 796 q 561 897 561 854 q 591 969 561 940 q 668 999 621 999 q 745 969 715 999 q 775 897 775 940 q 745 825 775 854 q 668 796 715 796 m 936 338 q 824 71 936 158 q 503 -17 713 -17 q 181 71 293 -17 q 69 338 69 158 q 181 604 69 517 q 503 692 293 692 q 824 604 713 692 q 936 338 936 517 m 358 338 q 370 147 358 214 q 413 50 382 81 q 503 19 443 19 q 593 50 563 19 q 635 147 624 81 q 647 338 647 214 q 635 528 647 461 q 593 625 624 594 q 503 656 563 656 q 413 625 443 656 q 370 528 382 594 q 358 338 358 461 z "},"ō":{"ha":1006,"x_min":69,"x_max":936,"o":"m 767 844 l 767 811 l 239 811 l 239 844 l 767 844 m 936 338 q 824 71 936 158 q 503 -17 713 -17 q 181 71 293 -17 q 69 338 69 158 q 181 604 69 517 q 503 692 293 692 q 824 604 713 692 q 936 338 936 517 m 358 338 q 370 147 358 214 q 413 50 382 81 q 503 19 443 19 q 593 50 563 19 q 635 147 624 81 q 647 338 647 214 q 635 528 647 461 q 593 625 624 594 q 503 656 563 656 q 413 625 443 656 q 370 528 382 594 q 358 338 358 461 z "},"ŏ":{"ha":1006,"x_min":69,"x_max":936,"o":"m 503 786 q 361 842 408 786 q 311 999 314 899 l 339 999 q 388 918 353 943 q 503 893 424 893 q 617 918 582 893 q 667 999 653 943 l 694 999 q 644 842 692 899 q 503 786 597 786 m 936 338 q 824 71 936 158 q 503 -17 713 -17 q 181 71 293 -17 q 69 338 69 158 q 181 604 69 517 q 503 692 293 692 q 824 604 713 692 q 936 338 936 517 m 358 338 q 370 147 358 214 q 413 50 382 81 q 503 19 443 19 q 593 50 563 19 q 635 147 624 81 q 647 338 647 214 q 635 528 647 461 q 593 625 624 594 q 503 656 563 656 q 413 625 443 656 q 370 528 382 594 q 358 338 358 461 z "},"ő":{"ha":1006,"x_min":69,"x_max":936,"o":"m 493 1038 q 558 1004 528 1031 q 600 942 589 978 q 469 856 546 900 q 326 783 392 813 l 315 796 l 349 839 q 493 1038 453 974 m 778 1038 q 843 1004 813 1031 q 885 942 874 978 q 753 856 831 900 q 611 783 676 813 l 600 796 l 633 839 q 778 1038 738 974 m 936 338 q 824 71 936 158 q 503 -17 713 -17 q 181 71 293 -17 q 69 338 69 158 q 181 604 69 517 q 503 692 293 692 q 824 604 713 692 q 936 338 936 517 m 358 338 q 370 147 358 214 q 413 50 382 81 q 503 19 443 19 q 593 50 563 19 q 635 147 624 81 q 647 338 647 214 q 635 528 647 461 q 593 625 624 594 q 503 656 563 656 q 413 625 443 656 q 370 528 382 594 q 358 338 358 461 z "},"ø":{"ha":1006,"x_min":69,"x_max":936,"o":"m 936 338 q 824 71 936 158 q 503 -17 713 -17 q 303 8 389 -17 l 251 -68 l 219 -46 l 265 22 q 69 338 69 101 q 181 604 69 517 q 503 692 293 692 q 701 665 618 692 l 754 743 l 786 721 l 740 653 q 936 338 936 574 m 358 338 q 365 171 358 226 l 629 558 q 584 633 614 610 q 503 656 554 656 q 413 625 443 656 q 370 528 382 594 q 358 338 358 461 m 647 338 q 639 504 647 438 l 376 117 q 420 42 390 65 q 503 19 450 19 q 593 50 563 19 q 635 147 624 81 q 647 338 647 214 z "},"ǿ":{"ha":1006,"x_min":69,"x_max":936,"o":"m 667 997 q 721 949 699 982 q 744 876 743 915 q 592 823 685 849 q 431 786 500 797 l 424 801 l 476 840 q 557 902 489 850 q 667 997 625 954 m 936 338 q 824 71 936 158 q 503 -17 713 -17 q 303 8 389 -17 l 251 -68 l 219 -46 l 265 22 q 69 338 69 101 q 181 604 69 517 q 503 692 293 692 q 701 665 618 692 l 754 743 l 786 721 l 740 653 q 936 338 936 574 m 358 338 q 365 171 358 226 l 629 558 q 584 633 614 610 q 503 656 554 656 q 413 625 443 656 q 370 528 382 594 q 358 338 358 461 m 647 338 q 639 504 647 438 l 376 117 q 420 42 390 65 q 503 19 450 19 q 593 50 563 19 q 635 147 624 81 q 647 338 647 214 z "},"œ":{"ha":1483,"x_min":69,"x_max":1417,"o":"m 503 692 q 785 618 676 692 q 1067 692 893 692 q 1261 656 1182 692 q 1378 559 1340 619 q 1417 425 1417 499 q 1410 356 1417 388 l 925 356 q 974 121 926 201 q 1154 40 1022 40 q 1270 60 1219 40 q 1375 115 1321 79 l 1393 89 q 1051 -17 1264 -17 q 786 57 888 -17 q 503 -17 678 -17 q 181 71 293 -17 q 69 338 69 158 q 181 604 69 517 q 503 692 293 692 m 1058 658 q 954 594 982 658 q 925 392 926 531 l 1158 392 l 1158 496 q 1138 619 1158 581 q 1058 658 1118 658 m 358 338 q 370 147 358 214 q 413 50 382 81 q 503 19 443 19 q 593 50 563 19 q 635 147 624 81 q 647 338 647 214 q 635 528 647 461 q 593 625 624 594 q 503 656 563 656 q 413 625 443 656 q 370 528 382 594 q 358 338 358 461 z "},"ŕ":{"ha":750,"x_min":33,"x_max":708,"o":"m 471 997 q 525 949 503 982 q 549 876 547 915 q 397 823 489 849 q 235 786 304 797 l 228 801 l 281 840 q 361 902 293 850 q 471 997 429 954 m 390 564 q 636 688 511 688 q 708 676 682 688 l 688 460 l 678 460 l 393 522 l 393 67 q 399 45 393 51 q 425 35 406 39 l 472 25 l 472 0 l 33 0 l 33 25 l 82 36 q 109 46 103 40 q 115 67 115 51 l 115 592 q 109 613 115 607 q 82 622 103 618 l 33 633 l 33 658 l 367 700 l 390 700 l 390 564 z "},"ř":{"ha":750,"x_min":33,"x_max":708,"o":"m 353 786 q 167 976 267 894 l 182 997 q 389 901 283 963 q 596 997 494 963 l 611 976 q 425 786 507 889 l 353 786 m 390 564 q 636 688 511 688 q 708 676 682 688 l 688 460 l 678 460 l 393 522 l 393 67 q 399 45 393 51 q 425 35 406 39 l 472 25 l 472 0 l 33 0 l 33 25 l 82 36 q 109 46 103 40 q 115 67 115 51 l 115 592 q 109 613 115 607 q 82 622 103 618 l 33 633 l 33 658 l 367 700 l 390 700 l 390 564 z "},"ŗ":{"ha":750,"x_min":33,"x_max":708,"o":"m 390 564 q 636 688 511 688 q 708 676 682 688 l 688 460 l 678 460 l 393 522 l 393 67 q 399 45 393 51 q 425 35 406 39 l 472 25 l 472 0 l 33 0 l 33 25 l 82 36 q 109 46 103 40 q 115 67 115 51 l 115 592 q 109 613 115 607 q 82 622 103 618 l 33 633 l 33 658 l 367 700 l 390 700 l 390 564 m 264 -286 q 243 -287 257 -287 q 164 -259 190 -287 q 138 -186 138 -231 q 167 -111 138 -142 q 249 -81 197 -81 q 334 -110 303 -81 q 365 -197 365 -140 q 321 -349 365 -275 q 207 -476 276 -424 l 182 -453 q 245 -369 228 -406 q 264 -286 263 -333 z "},"ś":{"ha":772,"x_min":67,"x_max":708,"o":"m 538 997 q 592 949 569 982 q 615 876 614 915 q 463 823 556 849 q 301 786 371 797 l 294 801 l 347 840 q 428 902 360 850 q 538 997 496 954 m 372 17 q 469 36 438 17 q 500 104 500 56 q 483 158 500 138 q 431 196 467 179 q 315 242 394 213 q 124 342 181 290 q 67 486 67 394 q 144 641 67 590 q 381 692 222 692 q 539 676 461 692 q 660 639 617 660 l 643 472 l 619 472 q 529 613 582 565 q 376 661 476 661 q 278 644 313 661 q 243 581 243 626 q 259 529 243 549 q 309 493 275 510 q 422 444 343 476 q 594 365 536 399 q 681 289 653 332 q 708 181 708 246 q 628 30 708 76 q 389 -17 549 -17 q 212 -1 304 -17 q 74 36 119 15 l 93 225 l 117 225 q 206 66 142 115 q 372 17 269 17 z "},"ŝ":{"ha":772,"x_min":67,"x_max":708,"o":"m 408 997 q 594 807 490 894 l 579 786 q 372 882 478 821 q 165 786 267 821 l 150 807 q 336 997 250 889 l 408 997 m 372 17 q 469 36 438 17 q 500 104 500 56 q 483 158 500 138 q 431 196 467 179 q 315 242 394 213 q 124 342 181 290 q 67 486 67 394 q 144 641 67 590 q 381 692 222 692 q 539 676 461 692 q 660 639 617 660 l 643 472 l 619 472 q 529 613 582 565 q 376 661 476 661 q 278 644 313 661 q 243 581 243 626 q 259 529 243 549 q 309 493 275 510 q 422 444 343 476 q 594 365 536 399 q 681 289 653 332 q 708 181 708 246 q 628 30 708 76 q 389 -17 549 -17 q 212 -1 304 -17 q 74 36 119 15 l 93 225 l 117 225 q 206 66 142 115 q 372 17 269 17 z "},"š":{"ha":772,"x_min":67,"x_max":708,"o":"m 336 786 q 150 976 250 894 l 165 997 q 372 901 267 963 q 579 997 478 963 l 594 976 q 408 786 490 889 l 336 786 m 372 17 q 469 36 438 17 q 500 104 500 56 q 483 158 500 138 q 431 196 467 179 q 315 242 394 213 q 124 342 181 290 q 67 486 67 394 q 144 641 67 590 q 381 692 222 692 q 539 676 461 692 q 660 639 617 660 l 643 472 l 619 472 q 529 613 582 565 q 376 661 476 661 q 278 644 313 661 q 243 581 243 626 q 259 529 243 549 q 309 493 275 510 q 422 444 343 476 q 594 365 536 399 q 681 289 653 332 q 708 181 708 246 q 628 30 708 76 q 389 -17 549 -17 q 212 -1 304 -17 q 74 36 119 15 l 93 225 l 117 225 q 206 66 142 115 q 372 17 269 17 z "},"ş":{"ha":772,"x_min":67,"x_max":708,"o":"m 317 -14 q 177 6 244 -8 q 74 36 110 19 l 93 225 l 117 225 q 206 66 142 115 q 372 17 269 17 q 469 36 438 17 q 500 104 500 56 q 483 158 500 138 q 431 196 467 179 q 315 242 394 213 q 124 342 181 290 q 67 486 67 394 q 144 641 67 590 q 381 692 222 692 q 539 676 461 692 q 660 639 617 660 l 643 472 l 619 472 q 529 613 582 565 q 376 661 476 661 q 278 644 313 661 q 243 581 243 626 q 259 529 243 549 q 309 493 275 510 q 422 444 343 476 q 594 365 536 399 q 681 289 653 332 q 708 181 708 246 q 628 30 708 76 q 389 -17 549 -17 q 347 -15 361 -17 l 344 -50 q 485 -84 435 -54 q 536 -171 536 -114 q 488 -259 536 -229 q 368 -289 440 -289 q 296 -281 333 -289 q 236 -261 258 -272 l 246 -236 q 342 -254 285 -254 q 401 -241 382 -254 q 419 -196 419 -228 q 390 -135 419 -156 q 304 -106 360 -115 l 317 -14 z "},"ș":{"ha":772,"x_min":67,"x_max":708,"o":"m 372 17 q 469 36 438 17 q 500 104 500 56 q 483 158 500 138 q 431 196 467 179 q 315 242 394 213 q 124 342 181 290 q 67 486 67 394 q 144 641 67 590 q 381 692 222 692 q 539 676 461 692 q 660 639 617 660 l 643 472 l 619 472 q 529 613 582 565 q 376 661 476 661 q 278 644 313 661 q 243 581 243 626 q 259 529 243 549 q 309 493 275 510 q 422 444 343 476 q 594 365 536 399 q 681 289 653 332 q 708 181 708 246 q 628 30 708 76 q 389 -17 549 -17 q 212 -1 304 -17 q 74 36 119 15 l 93 225 l 117 225 q 206 66 142 115 q 372 17 269 17 m 399 -286 q 378 -287 392 -287 q 299 -259 325 -287 q 272 -186 272 -231 q 302 -111 272 -142 q 383 -81 332 -81 q 469 -110 438 -81 q 500 -197 500 -140 q 456 -349 500 -275 q 342 -476 411 -424 l 317 -453 q 380 -369 363 -406 q 399 -286 397 -333 z "},"ß":{"ha":1071,"x_min":28,"x_max":1010,"o":"m 118 675 l 118 758 q 230 949 118 883 q 526 1014 342 1014 q 808 965 697 1014 q 919 819 919 917 q 851 698 919 742 q 660 626 782 654 q 1010 232 1010 471 q 967 92 1010 147 q 856 12 924 38 q 710 -14 788 -14 q 483 58 563 -14 l 501 85 q 631 42 557 42 q 734 70 704 42 q 764 171 764 99 q 701 363 764 279 q 513 546 638 447 l 513 578 q 665 713 625 640 q 704 849 704 785 q 556 983 704 983 q 453 960 489 983 q 406 892 418 936 q 393 778 393 849 l 393 0 l 36 0 l 36 25 l 85 36 q 112 46 106 40 q 118 67 118 51 l 118 639 l 28 639 l 28 675 l 118 675 z "},"ť":{"ha":883,"x_min":31,"x_max":847,"o":"m 746 778 q 725 776 739 776 q 646 805 672 776 q 619 878 619 833 q 649 953 619 922 q 731 983 679 983 q 816 953 785 983 q 847 867 847 924 q 803 715 847 789 q 689 588 758 640 l 664 611 q 727 694 710 658 q 746 778 744 731 m 31 639 l 31 675 q 94 682 74 675 q 136 707 115 689 l 383 929 l 396 929 l 396 675 l 575 675 l 575 639 l 396 639 l 396 172 q 412 78 396 106 q 467 51 428 51 q 521 64 497 51 q 572 107 544 76 l 594 81 q 336 -17 507 -17 q 171 32 221 -17 q 121 183 121 81 l 121 639 l 31 639 z "},"ţ":{"ha":619,"x_min":31,"x_max":594,"o":"m 31 639 l 31 675 q 94 682 74 675 q 136 707 115 689 l 383 929 l 396 929 l 396 675 l 575 675 l 575 639 l 396 639 l 396 172 q 412 78 396 106 q 467 51 428 51 q 521 64 497 51 q 572 107 544 76 l 594 81 q 336 -17 507 -17 q 171 32 221 -17 q 121 183 121 81 l 121 639 l 31 639 m 308 -286 q 288 -287 301 -287 q 208 -259 235 -287 q 182 -186 182 -231 q 212 -111 182 -142 q 293 -81 242 -81 q 378 -110 347 -81 q 410 -197 410 -140 q 365 -349 410 -275 q 251 -476 321 -424 l 226 -453 q 290 -369 272 -406 q 308 -286 307 -333 z "},"ț":{"ha":619,"x_min":31,"x_max":594,"o":"m 31 639 l 31 675 q 94 682 74 675 q 136 707 115 689 l 383 929 l 396 929 l 396 675 l 575 675 l 575 639 l 396 639 l 396 172 q 412 78 396 106 q 467 51 428 51 q 521 64 497 51 q 572 107 544 76 l 594 81 q 336 -17 507 -17 q 171 32 221 -17 q 121 183 121 81 l 121 639 l 31 639 m 308 -286 q 288 -287 301 -287 q 208 -259 235 -287 q 182 -186 182 -231 q 212 -111 182 -142 q 293 -81 242 -81 q 378 -110 347 -81 q 410 -197 410 -140 q 365 -349 410 -275 q 251 -476 321 -424 l 226 -453 q 290 -369 272 -406 q 308 -286 307 -333 z "},"ŧ":{"ha":619,"x_min":31,"x_max":594,"o":"m 121 428 l 121 639 l 31 639 l 31 675 q 94 682 74 675 q 136 707 115 689 l 383 929 l 396 929 l 396 675 l 575 675 l 575 639 l 396 639 l 396 428 l 544 428 l 544 394 l 396 394 l 396 172 q 412 78 396 106 q 467 51 428 51 q 521 64 497 51 q 572 107 544 76 l 594 81 q 336 -17 507 -17 q 171 32 221 -17 q 121 183 121 81 l 121 394 l 31 394 l 31 428 l 121 428 z "},"þ":{"ha":1036,"x_min":33,"x_max":967,"o":"m 393 622 q 632 692 486 692 q 876 608 786 692 q 967 346 967 525 q 876 74 967 161 q 632 -14 786 -14 q 393 76 478 -14 l 393 -247 q 399 -268 393 -262 q 426 -278 406 -274 l 475 -289 l 475 -314 l 33 -314 l 33 -289 l 82 -278 q 109 -268 103 -274 q 115 -247 115 -262 l 115 906 q 109 926 115 921 q 82 936 103 932 l 33 947 l 33 972 l 367 1014 l 393 1014 l 393 622 m 543 633 q 393 581 457 633 l 393 124 q 465 67 425 89 q 550 46 506 46 q 628 76 600 46 q 669 172 657 107 q 681 346 681 236 q 650 567 681 500 q 543 633 619 633 z "},"ù":{"ha":1036,"x_min":28,"x_max":1003,"o":"m 324 997 q 433 902 365 954 q 514 840 501 850 l 567 801 l 560 786 q 398 823 490 797 q 246 876 306 849 q 269 949 247 915 q 324 997 292 982 m 643 592 q 637 613 643 607 q 610 622 631 618 l 561 633 l 561 658 l 897 700 l 921 700 l 921 67 q 927 46 921 51 q 954 36 933 40 l 1003 25 l 1003 0 l 721 0 q 663 17 681 0 q 646 72 646 35 l 646 88 q 519 14 596 44 q 350 -17 443 -17 q 165 38 221 -17 q 110 200 110 92 l 110 592 q 103 613 110 607 q 76 622 97 618 l 28 633 l 28 658 l 364 700 l 388 700 l 388 175 q 408 86 388 113 q 475 60 428 60 q 643 129 558 60 l 643 592 z "},"ú":{"ha":1036,"x_min":28,"x_max":1003,"o":"m 640 997 q 694 949 672 982 q 718 876 717 915 q 566 823 658 849 q 404 786 474 797 l 397 801 l 450 840 q 531 902 463 850 q 640 997 599 954 m 643 592 q 637 613 643 607 q 610 622 631 618 l 561 633 l 561 658 l 897 700 l 921 700 l 921 67 q 927 46 921 51 q 954 36 933 40 l 1003 25 l 1003 0 l 721 0 q 663 17 681 0 q 646 72 646 35 l 646 88 q 519 14 596 44 q 350 -17 443 -17 q 165 38 221 -17 q 110 200 110 92 l 110 592 q 103 613 110 607 q 76 622 97 618 l 28 633 l 28 658 l 364 700 l 388 700 l 388 175 q 408 86 388 113 q 475 60 428 60 q 643 129 558 60 l 643 592 z "},"û":{"ha":1036,"x_min":28,"x_max":1003,"o":"m 554 997 q 740 807 636 894 l 725 786 q 518 882 624 821 q 311 786 413 821 l 296 807 q 482 997 396 889 l 554 997 m 643 592 q 637 613 643 607 q 610 622 631 618 l 561 633 l 561 658 l 897 700 l 921 700 l 921 67 q 927 46 921 51 q 954 36 933 40 l 1003 25 l 1003 0 l 721 0 q 663 17 681 0 q 646 72 646 35 l 646 88 q 519 14 596 44 q 350 -17 443 -17 q 165 38 221 -17 q 110 200 110 92 l 110 592 q 103 613 110 607 q 76 622 97 618 l 28 633 l 28 658 l 364 700 l 388 700 l 388 175 q 408 86 388 113 q 475 60 428 60 q 643 129 558 60 l 643 592 z "},"ũ":{"ha":1036,"x_min":28,"x_max":1003,"o":"m 636 783 q 574 796 611 783 q 444 846 538 808 l 394 865 q 363 871 382 871 q 331 864 346 871 q 306 844 315 857 l 272 803 l 256 810 q 292 897 276 864 q 335 957 308 931 q 400 983 363 983 q 462 971 425 983 q 592 921 499 958 l 642 901 q 674 896 654 896 q 706 903 690 896 q 731 922 721 910 l 764 964 l 781 957 q 744 869 760 903 q 701 810 728 836 q 636 783 674 783 m 643 592 q 637 613 643 607 q 610 622 631 618 l 561 633 l 561 658 l 897 700 l 921 700 l 921 67 q 927 46 921 51 q 954 36 933 40 l 1003 25 l 1003 0 l 721 0 q 663 17 681 0 q 646 72 646 35 l 646 88 q 519 14 596 44 q 350 -17 443 -17 q 165 38 221 -17 q 110 200 110 92 l 110 592 q 103 613 110 607 q 76 622 97 618 l 28 633 l 28 658 l 364 700 l 388 700 l 388 175 q 408 86 388 113 q 475 60 428 60 q 643 129 558 60 l 643 592 z "},"ü":{"ha":1036,"x_min":28,"x_max":1003,"o":"m 353 796 q 276 825 306 796 q 246 897 246 854 q 276 969 246 940 q 353 999 306 999 q 430 969 400 999 q 460 897 460 940 q 430 825 460 854 q 353 796 400 796 m 683 796 q 606 825 636 796 q 576 897 576 854 q 606 969 576 940 q 683 999 636 999 q 760 969 731 999 q 790 897 790 940 q 760 825 790 854 q 683 796 731 796 m 643 592 q 637 613 643 607 q 610 622 631 618 l 561 633 l 561 658 l 897 700 l 921 700 l 921 67 q 927 46 921 51 q 954 36 933 40 l 1003 25 l 1003 0 l 721 0 q 663 17 681 0 q 646 72 646 35 l 646 88 q 519 14 596 44 q 350 -17 443 -17 q 165 38 221 -17 q 110 200 110 92 l 110 592 q 103 613 110 607 q 76 622 97 618 l 28 633 l 28 658 l 364 700 l 388 700 l 388 175 q 408 86 388 113 q 475 60 428 60 q 643 129 558 60 l 643 592 z "},"ū":{"ha":1036,"x_min":28,"x_max":1003,"o":"m 782 844 l 782 811 l 254 811 l 254 844 l 782 844 m 643 592 q 637 613 643 607 q 610 622 631 618 l 561 633 l 561 658 l 897 700 l 921 700 l 921 67 q 927 46 921 51 q 954 36 933 40 l 1003 25 l 1003 0 l 721 0 q 663 17 681 0 q 646 72 646 35 l 646 88 q 519 14 596 44 q 350 -17 443 -17 q 165 38 221 -17 q 110 200 110 92 l 110 592 q 103 613 110 607 q 76 622 97 618 l 28 633 l 28 658 l 364 700 l 388 700 l 388 175 q 408 86 388 113 q 475 60 428 60 q 643 129 558 60 l 643 592 z "},"ŭ":{"ha":1036,"x_min":28,"x_max":1003,"o":"m 518 786 q 376 842 424 786 q 326 999 329 899 l 354 999 q 403 918 368 943 q 518 893 439 893 q 633 918 597 893 q 682 999 668 943 l 710 999 q 660 842 707 899 q 518 786 613 786 m 643 592 q 637 613 643 607 q 610 622 631 618 l 561 633 l 561 658 l 897 700 l 921 700 l 921 67 q 927 46 921 51 q 954 36 933 40 l 1003 25 l 1003 0 l 721 0 q 663 17 681 0 q 646 72 646 35 l 646 88 q 519 14 596 44 q 350 -17 443 -17 q 165 38 221 -17 q 110 200 110 92 l 110 592 q 103 613 110 607 q 76 622 97 618 l 28 633 l 28 658 l 364 700 l 388 700 l 388 175 q 408 86 388 113 q 475 60 428 60 q 643 129 558 60 l 643 592 z "},"ů":{"ha":1036,"x_min":28,"x_max":1003,"o":"m 518 1050 q 631 1017 586 1050 q 676 918 676 983 q 631 819 676 853 q 518 786 586 786 q 405 819 450 786 q 360 918 360 853 q 405 1017 360 983 q 518 1050 450 1050 m 518 810 q 564 837 550 810 q 578 918 578 864 q 564 999 578 972 q 518 1026 550 1026 q 472 999 486 1026 q 458 918 458 972 q 472 837 458 864 q 518 810 486 810 m 643 592 q 637 613 643 607 q 610 622 631 618 l 561 633 l 561 658 l 897 700 l 921 700 l 921 67 q 927 46 921 51 q 954 36 933 40 l 1003 25 l 1003 0 l 721 0 q 663 17 681 0 q 646 72 646 35 l 646 88 q 519 14 596 44 q 350 -17 443 -17 q 165 38 221 -17 q 110 200 110 92 l 110 592 q 103 613 110 607 q 76 622 97 618 l 28 633 l 28 658 l 364 700 l 388 700 l 388 175 q 408 86 388 113 q 475 60 428 60 q 643 129 558 60 l 643 592 z "},"ű":{"ha":1036,"x_min":28,"x_max":1003,"o":"m 411 1038 q 476 1004 446 1031 q 518 942 507 978 q 387 856 464 900 q 244 783 310 813 l 233 796 l 267 839 q 411 1038 371 974 m 696 1038 q 761 1004 731 1031 q 803 942 792 978 q 672 856 749 900 q 529 783 594 813 l 518 796 l 551 839 q 696 1038 656 974 m 643 592 q 637 613 643 607 q 610 622 631 618 l 561 633 l 561 658 l 897 700 l 921 700 l 921 67 q 927 46 921 51 q 954 36 933 40 l 1003 25 l 1003 0 l 721 0 q 663 17 681 0 q 646 72 646 35 l 646 88 q 519 14 596 44 q 350 -17 443 -17 q 165 38 221 -17 q 110 200 110 92 l 110 592 q 103 613 110 607 q 76 622 97 618 l 28 633 l 28 658 l 364 700 l 388 700 l 388 175 q 408 86 388 113 q 475 60 428 60 q 643 129 558 60 l 643 592 z "},"ų":{"ha":1036,"x_min":28,"x_max":1003,"o":"m 897 0 q 831 -58 851 -22 q 811 -147 811 -94 q 830 -210 811 -190 q 892 -229 849 -229 q 965 -197 925 -229 l 975 -212 q 822 -285 911 -285 q 713 -258 750 -285 q 675 -182 675 -232 q 726 -69 675 -115 q 860 0 778 -24 l 721 0 q 663 17 681 0 q 646 72 646 35 l 646 88 q 519 14 596 44 q 350 -17 443 -17 q 165 38 221 -17 q 110 200 110 92 l 110 592 q 103 613 110 607 q 76 622 97 618 l 28 633 l 28 658 l 364 700 l 388 700 l 388 175 q 408 86 388 113 q 475 60 428 60 q 643 129 558 60 l 643 592 q 637 613 643 607 q 610 622 631 618 l 561 633 l 561 658 l 897 700 l 921 700 l 921 67 q 927 46 921 51 q 954 36 933 40 l 1003 25 l 1003 0 l 897 0 z "},"ẃ":{"ha":1283,"x_min":6,"x_max":1278,"o":"m 807 997 q 861 949 839 982 q 885 876 883 915 q 733 823 825 849 q 571 786 640 797 l 564 801 l 617 840 q 697 902 629 850 q 807 997 765 954 m 881 646 q 849 619 849 639 q 856 597 849 611 l 1017 274 l 1181 626 q 1182 635 1182 629 q 1175 644 1182 642 q 1154 650 1168 647 l 1118 654 l 1118 675 l 1278 675 l 1278 654 l 1242 649 q 1218 642 1225 646 q 1204 622 1211 638 l 922 -25 l 897 -25 l 651 443 l 447 -25 l 422 -25 l 86 617 q 70 635 79 629 q 47 643 61 640 l 6 654 l 6 675 l 431 675 l 431 654 l 406 649 q 374 619 374 642 q 381 597 374 611 l 542 274 l 631 482 l 561 617 q 547 637 554 631 q 528 646 539 643 l 494 654 l 494 675 l 917 675 l 917 654 l 881 646 z "},"ŵ":{"ha":1283,"x_min":6,"x_max":1278,"o":"m 685 997 q 871 807 767 894 l 856 786 q 649 882 754 821 q 442 786 543 821 l 426 807 q 613 997 526 889 l 685 997 m 881 646 q 849 619 849 639 q 856 597 849 611 l 1017 274 l 1181 626 q 1182 635 1182 629 q 1175 644 1182 642 q 1154 650 1168 647 l 1118 654 l 1118 675 l 1278 675 l 1278 654 l 1242 649 q 1218 642 1225 646 q 1204 622 1211 638 l 922 -25 l 897 -25 l 651 443 l 447 -25 l 422 -25 l 86 617 q 70 635 79 629 q 47 643 61 640 l 6 654 l 6 675 l 431 675 l 431 654 l 406 649 q 374 619 374 642 q 381 597 374 611 l 542 274 l 631 482 l 561 617 q 547 637 554 631 q 528 646 539 643 l 494 654 l 494 675 l 917 675 l 917 654 l 881 646 z "},"ẅ":{"ha":1283,"x_min":6,"x_max":1278,"o":"m 490 796 q 413 825 443 796 q 383 897 383 854 q 413 969 383 940 q 490 999 443 999 q 567 969 538 999 q 597 897 597 940 q 567 825 597 854 q 490 796 538 796 m 821 796 q 744 825 774 796 q 714 897 714 854 q 744 969 714 940 q 821 999 774 999 q 898 969 868 999 q 928 897 928 940 q 898 825 928 854 q 821 796 868 796 m 881 646 q 849 619 849 639 q 856 597 849 611 l 1017 274 l 1181 626 q 1182 635 1182 629 q 1175 644 1182 642 q 1154 650 1168 647 l 1118 654 l 1118 675 l 1278 675 l 1278 654 l 1242 649 q 1218 642 1225 646 q 1204 622 1211 638 l 922 -25 l 897 -25 l 651 443 l 447 -25 l 422 -25 l 86 617 q 70 635 79 629 q 47 643 61 640 l 6 654 l 6 675 l 431 675 l 431 654 l 406 649 q 374 619 374 642 q 381 597 374 611 l 542 274 l 631 482 l 561 617 q 547 637 554 631 q 528 646 539 643 l 494 654 l 494 675 l 917 675 l 917 654 l 881 646 z "},"ẁ":{"ha":1283,"x_min":6,"x_max":1278,"o":"m 475 997 q 585 902 517 954 q 665 840 653 850 l 718 801 l 711 786 q 549 823 642 797 q 397 876 457 849 q 421 949 399 915 q 475 997 443 982 m 881 646 q 849 619 849 639 q 856 597 849 611 l 1017 274 l 1181 626 q 1182 635 1182 629 q 1175 644 1182 642 q 1154 650 1168 647 l 1118 654 l 1118 675 l 1278 675 l 1278 654 l 1242 649 q 1218 642 1225 646 q 1204 622 1211 638 l 922 -25 l 897 -25 l 651 443 l 447 -25 l 422 -25 l 86 617 q 70 635 79 629 q 47 643 61 640 l 6 654 l 6 675 l 431 675 l 431 654 l 406 649 q 374 619 374 642 q 381 597 374 611 l 542 274 l 631 482 l 561 617 q 547 637 554 631 q 528 646 539 643 l 494 654 l 494 675 l 917 675 l 917 654 l 881 646 z "},"ý":{"ha":808,"x_min":6,"x_max":803,"o":"m 681 997 q 735 949 713 982 q 758 876 757 915 q 606 823 699 849 q 444 786 514 797 l 438 801 l 490 840 q 571 902 503 850 q 681 997 639 954 m 406 646 q 374 619 374 639 q 381 597 374 611 l 542 274 l 693 626 q 697 640 697 635 q 679 650 697 649 l 643 654 l 643 675 l 803 675 l 803 654 l 767 649 q 743 642 750 646 q 729 622 736 638 l 458 0 q 367 -190 403 -129 q 288 -283 332 -250 q 171 -333 244 -315 l 96 -122 q 275 -91 190 -118 q 421 -22 360 -64 l 86 617 q 70 635 79 629 q 47 643 61 640 l 6 654 l 6 675 l 442 675 l 442 654 l 406 646 z "},"ŷ":{"ha":808,"x_min":6,"x_max":803,"o":"m 565 997 q 751 807 647 894 l 736 786 q 529 882 635 821 q 322 786 424 821 l 307 807 q 493 997 407 889 l 565 997 m 406 646 q 374 619 374 639 q 381 597 374 611 l 542 274 l 693 626 q 697 640 697 635 q 679 650 697 649 l 643 654 l 643 675 l 803 675 l 803 654 l 767 649 q 743 642 750 646 q 729 622 736 638 l 458 0 q 367 -190 403 -129 q 288 -283 332 -250 q 171 -333 244 -315 l 96 -122 q 275 -91 190 -118 q 421 -22 360 -64 l 86 617 q 70 635 79 629 q 47 643 61 640 l 6 654 l 6 675 l 442 675 l 442 654 l 406 646 z "},"ÿ":{"ha":808,"x_min":6,"x_max":803,"o":"m 294 796 q 217 825 247 796 q 188 897 188 854 q 217 969 188 940 q 294 999 247 999 q 372 969 342 999 q 401 897 401 940 q 372 825 401 854 q 294 796 342 796 m 625 796 q 548 825 578 796 q 518 897 518 854 q 548 969 518 940 q 625 999 578 999 q 702 969 672 999 q 732 897 732 940 q 702 825 732 854 q 625 796 672 796 m 406 646 q 374 619 374 639 q 381 597 374 611 l 542 274 l 693 626 q 697 640 697 635 q 679 650 697 649 l 643 654 l 643 675 l 803 675 l 803 654 l 767 649 q 743 642 750 646 q 729 622 736 638 l 458 0 q 367 -190 403 -129 q 288 -283 332 -250 q 171 -333 244 -315 l 96 -122 q 275 -91 190 -118 q 421 -22 360 -64 l 86 617 q 70 635 79 629 q 47 643 61 640 l 6 654 l 6 675 l 442 675 l 442 654 l 406 646 z "},"ỳ":{"ha":808,"x_min":6,"x_max":803,"o":"m 279 997 q 389 902 321 954 q 469 840 457 850 l 522 801 l 515 786 q 353 823 446 797 q 201 876 261 849 q 225 949 203 915 q 279 997 247 982 m 406 646 q 374 619 374 639 q 381 597 374 611 l 542 274 l 693 626 q 697 640 697 635 q 679 650 697 649 l 643 654 l 643 675 l 803 675 l 803 654 l 767 649 q 743 642 750 646 q 729 622 736 638 l 458 0 q 367 -190 403 -129 q 288 -283 332 -250 q 171 -333 244 -315 l 96 -122 q 275 -91 190 -118 q 421 -22 360 -64 l 86 617 q 70 635 79 629 q 47 643 61 640 l 6 654 l 6 675 l 442 675 l 442 654 l 406 646 z "},"ź":{"ha":783,"x_min":44,"x_max":733,"o":"m 543 997 q 597 949 575 982 q 621 876 619 915 q 469 823 561 849 q 307 786 376 797 l 300 801 l 353 840 q 433 902 365 850 q 543 997 501 954 m 515 35 q 613 49 579 35 q 667 94 647 63 q 706 188 686 125 l 733 188 l 733 0 l 44 0 l 44 28 l 449 640 l 296 640 q 198 627 232 640 q 144 584 164 614 q 106 493 125 554 l 78 493 l 78 675 l 731 675 l 731 647 l 326 35 l 515 35 z "},"ž":{"ha":783,"x_min":44,"x_max":733,"o":"m 369 786 q 183 976 283 894 l 199 997 q 406 901 300 963 q 613 997 511 963 l 628 976 q 442 786 524 889 l 369 786 m 515 35 q 613 49 579 35 q 667 94 647 63 q 706 188 686 125 l 733 188 l 733 0 l 44 0 l 44 28 l 449 640 l 296 640 q 198 627 232 640 q 144 584 164 614 q 106 493 125 554 l 78 493 l 78 675 l 731 675 l 731 647 l 326 35 l 515 35 z "},"ż":{"ha":783,"x_min":44,"x_max":733,"o":"m 406 790 q 318 817 351 790 q 285 894 285 843 q 318 972 285 946 q 406 999 351 999 q 493 972 460 999 q 526 894 526 946 q 493 817 526 843 q 406 790 460 790 m 515 35 q 613 49 579 35 q 667 94 647 63 q 706 188 686 125 l 733 188 l 733 0 l 44 0 l 44 28 l 449 640 l 296 640 q 198 627 232 640 q 144 584 164 614 q 106 493 125 554 l 78 493 l 78 675 l 731 675 l 731 647 l 326 35 l 515 35 z "},"Ĳ":{"ha":1400,"x_min":42,"x_max":1369,"o":"m 126 903 q 120 924 126 918 q 93 933 114 929 l 42 944 l 42 972 l 494 972 l 494 944 l 443 933 q 416 924 422 929 q 410 903 410 918 l 410 69 q 416 49 410 54 q 443 39 422 43 l 494 28 l 494 0 l 42 0 l 42 28 l 93 39 q 120 49 114 43 q 126 69 126 54 l 126 903 m 865 21 q 944 43 915 21 q 988 123 974 65 q 1001 286 1001 181 l 1001 901 q 995 922 1001 917 q 968 932 989 928 l 908 944 l 908 972 l 1369 972 l 1369 944 l 1318 933 q 1291 924 1297 929 q 1285 903 1285 918 l 1285 314 q 1173 61 1285 139 q 876 -17 1061 -17 q 742 -1 818 -17 q 608 42 667 15 l 640 286 l 676 286 q 720 120 694 178 q 780 42 746 63 q 865 21 814 21 z "},"ĳ":{"ha":1053,"x_min":36,"x_max":942,"o":"m 257 781 q 153 810 192 781 q 114 897 114 840 q 153 984 114 954 q 257 1014 192 1014 q 361 984 322 1014 q 400 897 400 954 q 361 810 400 840 q 257 781 322 781 m 799 781 q 694 810 733 781 q 656 897 656 840 q 694 984 656 954 q 799 1014 733 1014 q 903 984 864 1014 q 942 897 942 954 q 903 810 942 840 q 799 781 864 781 m 36 25 l 85 36 q 112 46 106 40 q 118 67 118 51 l 118 592 q 112 613 118 607 q 85 622 106 618 l 36 633 l 36 658 l 369 700 l 396 700 l 396 67 q 402 46 396 51 q 429 36 408 40 l 478 25 l 478 0 l 36 0 l 36 25 m 660 592 q 653 613 660 607 q 626 622 647 618 l 578 633 l 578 658 l 911 700 l 938 700 l 938 -43 q 876 -262 938 -192 q 667 -333 815 -333 q 440 -261 519 -333 l 458 -235 q 515 -270 483 -257 q 581 -283 547 -283 q 642 -255 624 -283 q 660 -142 660 -226 l 660 592 z "},"ﬁ":{"ha":1075,"x_min":28,"x_max":1039,"o":"m 597 25 l 646 36 q 673 46 667 40 q 679 67 679 51 l 679 639 l 393 639 l 393 68 q 399 47 393 53 q 426 38 406 42 l 478 25 l 478 0 l 36 0 l 36 25 l 85 36 q 112 46 106 40 q 118 67 118 51 l 118 639 l 28 639 l 28 675 l 118 675 l 118 707 q 233 938 118 863 q 563 1014 349 1014 q 742 1000 653 1014 q 894 964 832 986 l 839 758 l 796 758 q 704 923 758 865 q 557 981 650 981 q 451 947 486 981 q 404 853 415 914 q 393 686 393 792 l 393 675 l 957 675 l 957 67 q 963 46 957 51 q 990 36 969 40 l 1039 25 l 1039 0 l 597 0 l 597 25 z "},"ﬂ":{"ha":1086,"x_min":28,"x_max":1053,"o":"m 611 25 l 660 36 q 687 46 681 40 q 693 67 693 51 l 693 944 q 557 981 638 981 q 451 947 486 981 q 404 853 415 914 q 393 686 393 792 l 393 675 l 554 675 l 554 639 l 393 639 l 393 68 q 399 47 393 53 q 426 38 406 42 l 478 25 l 478 0 l 36 0 l 36 25 l 85 36 q 112 46 106 40 q 118 67 118 51 l 118 639 l 28 639 l 28 675 l 118 675 l 118 707 q 231 938 118 861 q 544 1014 343 1014 q 772 986 651 1014 l 944 1014 l 971 1014 l 971 67 q 977 46 971 51 q 1004 36 983 40 l 1053 25 l 1053 0 l 611 0 l 611 25 z "},"´":{"ha":611,"x_min":144,"x_max":465,"o":"m 388 997 q 442 949 419 982 q 465 876 464 915 q 313 823 406 849 q 151 786 221 797 l 144 801 l 197 840 q 278 902 210 850 q 388 997 346 954 z "},"˜":{"ha":611,"x_min":43,"x_max":568,"o":"m 424 783 q 362 796 399 783 q 232 846 325 808 l 182 865 q 150 871 169 871 q 118 864 133 871 q 93 844 103 857 l 60 803 l 43 810 q 80 897 64 864 q 123 957 96 931 q 188 983 150 983 q 249 971 213 983 q 379 921 286 958 l 429 901 q 461 896 442 896 q 493 903 478 896 q 518 922 508 910 l 551 964 l 568 957 q 531 869 547 903 q 488 810 515 836 q 424 783 461 783 z "},"¨":{"ha":611,"x_min":33,"x_max":578,"o":"m 140 796 q 63 825 93 796 q 33 897 33 854 q 63 969 33 940 q 140 999 93 999 q 217 969 188 999 q 247 897 247 940 q 217 825 247 854 q 140 796 188 796 m 471 796 q 394 825 424 796 q 364 897 364 854 q 394 969 364 940 q 471 999 424 999 q 548 969 518 999 q 578 897 578 940 q 548 825 578 854 q 471 796 518 796 z "},"¯":{"ha":611,"x_min":42,"x_max":569,"o":"m 569 844 l 569 811 l 42 811 l 42 844 l 569 844 z "},"˘":{"ha":611,"x_min":114,"x_max":497,"o":"m 306 786 q 164 842 211 786 q 114 999 117 899 l 142 999 q 191 918 156 943 q 306 893 226 893 q 420 918 385 893 q 469 999 456 943 l 497 999 q 447 842 494 899 q 306 786 400 786 z "},"˚":{"ha":611,"x_min":147,"x_max":464,"o":"m 306 1050 q 419 1017 374 1050 q 464 918 464 983 q 419 819 464 853 q 306 786 374 786 q 192 819 238 786 q 147 918 147 853 q 192 1017 147 983 q 306 1050 238 1050 m 306 810 q 351 837 338 810 q 365 918 365 864 q 351 999 365 972 q 306 1026 338 1026 q 260 999 274 1026 q 246 918 246 972 q 260 837 246 864 q 306 810 274 810 z "},"˝":{"ha":611,"x_min":21,"x_max":590,"o":"m 199 1038 q 264 1004 233 1031 q 306 942 294 978 q 174 856 251 900 q 32 783 97 813 l 21 796 l 54 839 q 199 1038 158 974 m 483 1038 q 549 1004 518 1031 q 590 942 579 978 q 459 856 536 900 q 317 783 382 813 l 306 796 l 339 839 q 483 1038 443 974 z "},"˙":{"ha":611,"x_min":185,"x_max":426,"o":"m 306 790 q 218 817 251 790 q 185 894 185 843 q 218 972 185 946 q 306 999 251 999 q 393 972 360 999 q 426 894 426 946 q 393 817 426 843 q 306 790 360 790 z "},"¸":{"ha":611,"x_min":217,"x_max":517,"o":"m 331 0 l 325 -50 q 466 -84 415 -54 q 517 -171 517 -114 q 469 -259 517 -229 q 349 -289 421 -289 q 276 -281 314 -289 q 217 -261 239 -272 l 226 -236 q 322 -254 265 -254 q 381 -241 363 -254 q 400 -196 400 -228 q 370 -135 400 -156 q 285 -106 340 -115 l 300 0 l 331 0 z "},"˛":{"ha":611,"x_min":156,"x_max":456,"o":"m 456 -212 q 303 -285 392 -285 q 193 -258 231 -285 q 156 -182 156 -232 q 213 -65 156 -111 q 360 6 269 -18 l 390 6 q 315 -53 338 -17 q 292 -147 292 -90 q 310 -210 292 -190 q 372 -229 329 -229 q 446 -197 406 -229 l 456 -212 z "},"̦":{"ha":0,"x_min":-419,"x_max":-192,"o":"m -293 -286 q -314 -287 -300 -287 q -393 -259 -367 -287 q -419 -186 -419 -231 q -390 -111 -419 -142 q -308 -81 -360 -81 q -223 -110 -254 -81 q -192 -197 -192 -140 q -236 -349 -192 -275 q -350 -476 -281 -424 l -375 -453 q -312 -369 -329 -406 q -293 -286 -294 -333 z "},"…":{"ha":1117,"x_min":69,"x_max":1047,"o":"m 186 -11 q 103 22 138 -11 q 69 103 69 56 q 103 183 69 150 q 186 217 138 217 q 269 183 235 217 q 303 103 303 150 q 269 22 303 56 q 186 -11 235 -11 m 558 -11 q 476 22 510 -11 q 442 103 442 56 q 476 183 442 150 q 558 217 510 217 q 641 183 607 217 q 675 103 675 150 q 641 22 675 56 q 558 -11 607 -11 m 931 -11 q 848 22 882 -11 q 814 103 814 56 q 848 183 814 150 q 931 217 882 217 q 1013 183 979 217 q 1047 103 1047 150 q 1013 22 1047 56 q 931 -11 979 -11 z "},"­":{"ha":433,"x_min":56,"x_max":378,"o":"m 56 367 l 56 406 l 378 406 l 378 367 l 56 367 z "},"¡":{"ha":394,"x_min":67,"x_max":328,"o":"m 197 689 q 280 656 246 689 q 314 575 314 622 q 280 494 314 528 q 197 461 246 461 q 115 494 149 461 q 81 575 81 528 q 115 656 81 622 q 197 689 149 689 m 328 -260 q 278 -296 313 -283 q 197 -308 244 -308 q 116 -296 150 -308 q 67 -260 82 -283 l 175 371 l 219 371 l 328 -260 z "},"¿":{"ha":786,"x_min":67,"x_max":753,"o":"m 424 689 q 506 656 472 689 q 540 575 540 622 q 506 494 540 528 q 424 461 472 461 q 341 494 375 461 q 307 575 307 528 q 341 656 307 622 q 424 689 375 689 m 458 189 q 331 -81 331 88 q 489 -242 331 -242 q 619 -222 565 -242 q 736 -158 672 -203 l 753 -185 q 581 -278 668 -246 q 361 -311 493 -311 q 142 -256 218 -311 q 67 -93 67 -201 q 156 101 67 36 q 386 189 246 165 l 404 371 l 443 371 l 458 189 z "},"‘":{"ha":411,"x_min":92,"x_max":331,"o":"m 197 779 q 224 781 207 781 q 303 751 276 781 q 331 676 331 721 q 299 597 331 629 q 214 565 268 565 q 125 597 158 565 q 92 688 92 628 q 140 851 92 768 q 260 989 189 933 l 288 960 q 197 779 197 864 z "},"’":{"ha":411,"x_min":81,"x_max":319,"o":"m 214 769 q 188 768 204 768 q 108 798 135 768 q 81 872 81 828 q 112 951 81 919 q 197 983 143 983 q 286 952 253 983 q 319 861 319 921 q 271 698 319 781 q 151 560 222 615 l 124 589 q 214 769 214 685 z "},"“":{"ha":736,"x_min":92,"x_max":656,"o":"m 197 779 q 224 781 207 781 q 303 751 276 781 q 331 676 331 721 q 299 597 331 629 q 214 565 268 565 q 125 597 158 565 q 92 688 92 628 q 140 851 92 768 q 260 989 189 933 l 288 960 q 197 779 197 864 m 522 779 q 549 781 532 781 q 628 751 601 781 q 656 676 656 721 q 624 597 656 629 q 539 565 593 565 q 450 597 483 565 q 417 688 417 628 q 465 851 417 768 q 585 989 514 933 l 613 960 q 522 779 522 864 z "},"”":{"ha":736,"x_min":81,"x_max":644,"o":"m 214 769 q 188 768 204 768 q 108 798 135 768 q 81 872 81 828 q 112 951 81 919 q 197 983 143 983 q 286 952 253 983 q 319 861 319 921 q 271 698 319 781 q 151 560 222 615 l 124 589 q 214 769 214 685 m 539 769 q 513 768 529 768 q 433 798 460 768 q 406 872 406 828 q 437 951 406 919 q 522 983 468 983 q 611 952 578 983 q 644 861 644 921 q 596 698 644 781 q 476 560 547 615 l 449 589 q 539 769 539 685 z "},"‚":{"ha":411,"x_min":81,"x_max":319,"o":"m 214 3 q 188 1 204 1 q 108 31 135 1 q 81 106 81 61 q 112 185 81 153 q 197 217 143 217 q 286 185 253 217 q 319 94 319 154 q 271 -69 319 14 q 151 -207 222 -151 l 124 -178 q 214 3 214 -82 z "},"„":{"ha":736,"x_min":81,"x_max":644,"o":"m 214 3 q 188 1 204 1 q 108 31 135 1 q 81 106 81 61 q 112 185 81 153 q 197 217 143 217 q 286 185 253 217 q 319 94 319 154 q 271 -69 319 14 q 151 -207 222 -151 l 124 -178 q 214 3 214 -82 m 539 3 q 513 1 529 1 q 433 31 460 1 q 406 106 406 61 q 437 185 406 153 q 522 217 468 217 q 611 185 578 217 q 644 94 644 154 q 596 -69 644 14 q 476 -207 547 -151 l 449 -178 q 539 3 539 -82 z "},"‹":{"ha":417,"x_min":75,"x_max":333,"o":"m 311 640 l 333 621 q 233 385 233 503 q 333 149 233 267 l 311 129 l 75 364 l 75 406 l 311 640 z "},"›":{"ha":417,"x_min":83,"x_max":342,"o":"m 106 129 l 83 149 q 183 385 183 267 q 83 621 183 503 l 106 640 l 342 406 l 342 364 l 106 129 z "},"«":{"ha":675,"x_min":75,"x_max":592,"o":"m 311 640 l 333 621 q 233 385 233 503 q 333 149 233 267 l 311 129 l 75 364 l 75 406 l 311 640 m 569 640 l 592 621 q 492 385 492 503 q 592 149 492 267 l 569 129 l 333 364 l 333 406 l 569 640 z "},"»":{"ha":675,"x_min":83,"x_max":600,"o":"m 106 129 l 83 149 q 183 385 183 267 q 83 621 183 503 l 106 640 l 342 406 l 342 364 l 106 129 m 364 129 l 342 149 q 442 385 442 267 q 342 621 442 503 l 364 640 l 600 406 l 600 364 l 364 129 z "},"–":{"ha":739,"x_min":56,"x_max":683,"o":"m 56 367 l 56 406 l 683 406 l 683 367 l 56 367 z "},"—":{"ha":989,"x_min":56,"x_max":933,"o":"m 56 367 l 56 406 l 933 406 l 933 367 l 56 367 z "},"•":{"ha":536,"x_min":83,"x_max":453,"o":"m 268 206 q 176 230 218 206 q 108 295 133 254 q 83 386 83 336 q 108 477 83 436 q 176 542 133 518 q 268 567 218 567 q 360 542 318 567 q 428 477 403 518 q 453 386 453 436 q 428 295 453 336 q 360 230 403 254 q 268 206 318 206 z "},"·":{"ha":372,"x_min":69,"x_max":303,"o":"m 186 272 q 103 306 138 272 q 69 386 69 339 q 103 467 69 433 q 186 500 138 500 q 269 467 235 500 q 303 386 303 433 q 269 306 303 339 q 186 272 235 272 z "},"∙":{"ha":472,"x_min":139,"x_max":333,"o":"m 333 413 l 333 218 l 139 218 l 139 413 l 333 413 z "},"†":{"ha":714,"x_min":72,"x_max":642,"o":"m 632 789 q 642 718 642 764 q 632 647 642 672 l 375 703 l 458 7 q 357 -8 417 -8 q 256 7 297 -8 l 338 703 l 82 647 q 72 718 72 672 q 82 789 72 764 l 336 733 l 267 1049 q 357 1064 296 1064 q 447 1049 418 1064 l 376 733 l 632 789 z "},"‡":{"ha":714,"x_min":72,"x_max":642,"o":"m 632 789 q 642 718 642 764 q 632 647 642 672 l 376 703 l 435 375 l 376 47 l 632 103 q 642 32 642 78 q 632 -39 642 -14 l 376 17 l 447 -299 q 357 -314 418 -314 q 267 -299 296 -314 l 336 17 l 82 -39 q 72 32 72 -14 q 82 103 72 78 l 338 47 l 278 375 l 338 703 l 82 647 q 72 718 72 672 q 82 789 72 764 l 336 733 l 267 1049 q 357 1064 296 1064 q 447 1049 418 1064 l 376 733 l 632 789 z "},"§":{"ha":806,"x_min":75,"x_max":725,"o":"m 456 1022 q 345 999 382 1022 q 308 926 308 976 q 324 868 308 892 q 376 823 339 844 q 485 776 414 801 q 625 713 574 744 q 701 638 676 681 q 725 531 725 594 q 665 401 725 453 q 499 310 604 350 q 628 243 582 274 q 695 172 674 213 q 717 68 717 131 q 626 -84 717 -29 q 369 -139 535 -139 q 222 -124 304 -139 q 96 -89 140 -108 l 115 100 l 136 100 q 361 -106 186 -106 q 508 -6 508 -106 q 469 77 508 44 q 324 147 429 110 q 181 212 233 181 q 101 287 128 243 q 75 396 75 331 q 138 522 75 472 q 314 611 201 571 q 185 676 231 647 q 120 744 140 706 q 100 842 100 783 q 190 1001 100 946 q 447 1056 281 1056 q 576 1046 510 1056 q 693 1022 643 1036 l 674 847 l 653 847 q 586 982 632 942 q 456 1022 540 1022 m 251 479 q 268 426 251 447 q 320 388 285 406 q 431 339 356 369 q 464 325 442 333 q 549 442 549 374 q 534 495 549 474 q 484 536 519 517 q 378 585 449 556 l 346 597 q 277 546 303 574 q 251 479 251 518 z "},"¶":{"ha":700,"x_min":83,"x_max":647,"o":"m 551 931 q 501 917 515 931 q 488 869 488 904 l 488 -29 q 458 -177 488 -132 q 344 -222 429 -222 q 263 -215 288 -222 l 263 -174 q 333 -179 296 -179 q 419 -146 396 -179 q 443 -29 443 -112 l 443 344 l 411 344 q 161 420 239 344 q 83 658 83 496 q 161 897 83 821 q 411 972 239 972 l 647 972 l 647 931 l 551 931 z "},"¦":{"ha":347,"x_min":153,"x_max":194,"o":"m 194 1086 l 194 581 l 153 581 l 153 1086 l 194 1086 m 194 364 l 194 -142 l 153 -142 l 153 364 l 194 364 z "},"©":{"ha":1164,"x_min":81,"x_max":1083,"o":"m 81 486 q 146 738 81 624 q 326 920 211 853 q 582 988 440 988 q 838 920 724 988 q 1018 738 953 853 q 1083 486 1083 624 q 1018 234 1083 349 q 838 52 953 119 q 582 -15 724 -15 q 326 52 440 -15 q 146 234 211 119 q 81 486 81 349 m 117 486 q 177 253 117 360 q 344 83 238 146 q 582 21 451 21 q 819 83 713 21 q 987 253 926 146 q 1047 486 1047 360 q 987 719 1047 613 q 819 889 926 826 q 582 951 713 951 q 344 889 451 951 q 177 719 238 826 q 117 486 117 613 m 622 765 q 822 721 744 765 l 811 576 l 792 576 q 738 699 769 660 q 642 739 707 739 q 541 682 569 739 q 513 513 513 625 q 524 365 513 421 q 569 279 536 308 q 663 250 601 250 q 743 266 708 250 q 818 313 778 282 l 832 292 q 735 225 789 249 q 601 201 681 201 q 378 274 461 201 q 296 489 296 346 q 380 694 296 624 q 622 765 464 765 z "},"®":{"ha":853,"x_min":72,"x_max":781,"o":"m 72 632 q 118 810 72 729 q 245 939 164 892 q 426 986 326 986 q 608 939 526 986 q 735 810 689 892 q 781 632 781 729 q 735 453 781 535 q 608 325 689 372 q 426 278 526 278 q 245 325 326 278 q 118 453 164 372 q 72 632 72 535 m 99 632 q 141 467 99 543 q 258 348 183 392 q 426 304 333 304 q 594 348 519 304 q 712 467 669 392 q 754 632 754 543 q 712 797 754 721 q 594 916 669 872 q 426 960 519 960 q 258 916 333 960 q 141 797 183 872 q 99 632 99 721 m 269 797 q 257 811 269 810 l 238 815 l 238 829 l 399 829 q 552 807 507 829 q 597 729 597 785 q 571 666 597 689 q 488 635 544 643 q 559 614 536 632 q 590 551 582 596 l 596 518 q 600 495 597 510 q 606 477 603 481 q 617 474 610 474 q 642 492 633 474 l 656 481 q 578 446 636 446 q 504 465 526 446 q 472 535 482 483 l 465 575 q 451 619 458 608 q 417 631 443 629 l 392 631 l 392 483 q 404 469 392 471 l 424 465 l 424 451 l 238 451 l 238 465 l 257 469 q 269 483 269 471 l 269 797 m 392 650 l 403 650 q 464 667 449 650 q 479 729 479 685 q 464 792 479 775 q 403 810 449 810 l 392 810 l 392 650 z "},"™":{"ha":1344,"x_min":42,"x_max":1286,"o":"m 529 822 q 502 894 515 869 q 464 934 489 919 q 396 949 439 949 l 379 949 l 379 514 q 383 503 379 506 q 397 497 386 500 l 426 492 l 426 472 l 163 472 l 163 492 l 192 497 q 206 502 203 500 q 208 514 208 504 l 208 949 l 193 949 q 125 934 150 949 q 87 894 100 919 q 60 822 74 869 l 42 822 l 42 972 l 547 972 l 547 822 l 529 822 m 679 514 q 683 503 679 506 q 697 497 686 500 l 726 492 l 726 472 l 606 472 l 606 492 l 635 497 q 649 502 646 500 q 651 514 651 504 l 651 931 q 649 942 651 940 q 635 947 646 944 l 606 953 l 606 972 l 804 972 l 942 674 l 1069 972 l 1286 972 l 1286 953 l 1257 947 q 1242 942 1246 944 q 1239 931 1239 939 l 1239 514 q 1242 503 1239 506 q 1257 497 1246 500 l 1286 492 l 1286 472 l 1022 472 l 1022 492 l 1051 497 q 1065 502 1063 500 q 1068 514 1068 504 l 1068 900 l 888 472 l 865 472 l 679 882 l 679 514 z "},"¤":{"ha":792,"x_min":139,"x_max":653,"o":"m 396 674 q 535 625 475 674 l 621 728 l 653 700 l 564 594 q 602 529 589 565 q 615 454 615 493 q 564 313 615 375 l 653 208 l 621 181 l 535 283 q 396 235 475 235 q 257 283 317 235 l 171 181 l 139 208 l 226 313 q 176 454 176 374 q 226 594 176 536 l 139 700 l 171 728 l 257 625 q 396 674 317 674 m 396 274 q 486 298 444 274 q 551 364 528 322 q 575 454 575 406 q 551 544 575 503 q 486 610 528 586 q 396 635 444 635 q 306 610 347 635 q 240 544 264 586 q 217 454 217 503 q 240 364 217 406 q 306 298 264 322 q 396 274 347 274 z "},"€":{"ha":1031,"x_min":22,"x_max":953,"o":"m 118 408 q 114 486 114 446 q 118 564 114 526 l 22 564 l 22 603 l 122 603 q 296 895 156 801 q 642 989 436 989 q 815 972 742 989 q 947 924 888 954 l 928 688 l 892 688 q 796 879 851 810 q 643 949 740 949 q 486 865 539 949 q 422 603 433 781 l 733 603 l 733 564 l 421 564 q 419 486 419 539 q 421 408 419 433 l 733 408 l 733 369 l 422 369 q 486 108 433 192 q 644 24 539 24 q 799 94 742 24 q 897 285 857 165 l 933 285 l 953 49 q 643 -17 822 -17 q 297 76 438 -17 q 122 369 156 169 l 22 369 l 22 408 l 118 408 z "},"¢":{"ha":886,"x_min":69,"x_max":819,"o":"m 546 -14 q 483 -17 507 -17 q 178 74 288 -17 q 69 346 69 164 q 183 605 69 518 q 519 692 297 692 l 546 692 l 546 814 l 588 814 l 588 689 q 804 636 713 681 l 788 454 l 761 454 q 695 592 733 544 q 588 651 657 640 l 588 44 q 801 118 700 49 l 819 92 q 588 -8 715 11 l 588 -139 l 546 -139 l 546 -14 m 358 375 q 398 133 358 213 q 546 46 438 54 l 546 656 l 544 656 q 401 585 443 656 q 358 375 358 514 z "},"£":{"ha":928,"x_min":56,"x_max":861,"o":"m 142 550 q 101 717 101 643 q 219 922 101 854 q 529 989 336 989 q 701 976 622 989 q 829 939 781 964 l 810 728 l 778 728 q 731 855 756 808 q 658 927 706 901 q 532 953 611 953 q 390 911 433 953 q 347 792 347 869 q 363 692 347 739 q 410 581 379 644 l 424 550 l 656 550 l 656 511 l 439 511 q 469 375 469 439 q 438 278 469 325 q 354 194 407 232 l 794 194 q 815 201 810 194 q 825 228 821 207 l 833 263 l 861 263 l 861 122 q 829 30 861 60 q 742 0 797 0 l 90 0 l 83 32 q 236 110 182 56 q 290 235 290 165 q 272 303 290 264 q 218 406 254 342 q 160 511 175 479 l 56 511 l 56 550 l 142 550 z "},"ƒ":{"ha":921,"x_min":-50,"x_max":946,"o":"m 339 536 l 385 786 q 487 958 406 901 q 732 1014 568 1014 q 946 972 865 1014 l 896 790 l 867 790 l 858 839 q 842 923 850 896 q 813 965 833 950 q 753 981 793 981 q 684 929 703 981 q 656 782 665 878 q 652 750 654 771 q 647 715 650 729 l 614 536 l 825 536 l 818 500 l 608 500 l 508 -60 q 406 -231 488 -175 q 163 -287 325 -287 q 35 -276 89 -287 q -50 -246 -18 -264 l -1 -64 l 28 -64 l 36 -110 q 53 -194 44 -167 q 82 -238 61 -222 q 143 -254 103 -254 q 210 -203 192 -254 q 238 -57 228 -151 q 241 -24 239 -46 q 246 11 243 -3 l 333 500 l 243 500 l 250 536 l 339 536 z "},"¥":{"ha":1003,"x_min":11,"x_max":992,"o":"m 339 431 l 106 906 q 88 930 96 922 q 65 939 79 938 l 11 944 l 11 972 l 463 972 l 463 944 l 407 939 q 388 922 388 938 q 393 904 388 914 l 610 440 l 851 907 q 854 917 854 915 q 846 933 854 926 q 826 940 838 939 l 761 946 l 761 972 l 992 972 l 992 944 l 949 940 q 918 931 926 939 q 899 906 910 924 l 651 431 l 833 431 l 833 392 l 639 392 l 639 286 l 833 286 l 833 247 l 639 247 l 639 69 q 645 49 639 54 q 672 39 651 43 l 724 28 l 724 0 l 271 0 l 271 28 l 322 39 q 349 49 343 43 q 356 69 356 54 l 356 247 l 161 247 l 161 286 l 356 286 l 356 392 l 161 392 l 161 431 l 339 431 z "},"ª":{"ha":644,"x_min":44,"x_max":625,"o":"m 419 503 q 382 514 393 503 q 371 551 371 525 l 371 556 q 190 493 306 493 q 85 522 126 493 q 44 610 44 551 q 124 730 44 696 q 371 768 203 764 l 371 839 q 351 913 371 892 q 279 935 332 935 q 198 922 236 935 q 119 885 160 910 l 106 908 q 357 981 203 981 q 568 815 568 981 l 568 554 q 573 540 568 543 q 592 532 578 536 l 625 525 l 625 503 l 419 503 m 297 557 q 371 592 333 557 l 371 738 q 289 722 317 733 q 251 687 261 710 q 242 624 242 664 q 255 572 242 588 q 297 557 268 557 z "},"º":{"ha":708,"x_min":53,"x_max":656,"o":"m 354 981 q 580 922 504 981 q 656 736 656 864 q 580 550 656 608 q 354 492 504 492 q 128 550 204 492 q 53 736 53 608 q 128 922 53 864 q 354 981 204 981 m 354 521 q 413 543 393 521 q 440 610 433 565 q 446 736 446 654 q 440 863 446 818 q 413 929 433 907 q 354 951 393 951 q 295 929 315 951 q 269 863 275 907 q 263 736 263 818 q 269 610 263 654 q 295 543 275 565 q 354 521 315 521 z "},"¹":{"ha":431,"x_min":50,"x_max":386,"o":"m 53 1140 l 53 1163 q 292 1217 185 1176 l 313 1210 l 313 733 q 317 719 313 724 q 331 713 321 714 l 386 703 l 386 681 l 50 681 l 50 703 l 113 713 q 129 719 125 715 q 133 735 133 724 l 133 1140 l 53 1140 z "},"²":{"ha":539,"x_min":19,"x_max":472,"o":"m 464 1072 q 386 919 464 983 q 192 799 308 854 l 422 799 q 438 803 433 799 q 444 817 443 807 l 450 844 l 472 844 l 472 681 l 26 681 l 19 699 q 225 887 165 792 q 285 1071 285 982 q 265 1144 285 1119 q 200 1169 244 1169 q 123 1157 157 1169 q 46 1118 89 1144 l 31 1143 q 271 1217 140 1217 q 417 1178 369 1217 q 464 1072 464 1139 z "},"³":{"ha":522,"x_min":31,"x_max":481,"o":"m 197 700 q 273 728 247 700 q 299 821 299 756 q 276 913 299 881 q 200 944 253 944 l 157 944 l 157 975 l 201 975 q 266 999 246 975 q 286 1078 286 1024 q 193 1174 286 1174 q 120 1163 153 1174 q 49 1132 88 1153 l 32 1156 q 258 1217 128 1217 q 409 1183 353 1217 q 465 1088 465 1150 q 338 961 465 992 q 442 922 404 954 q 481 832 481 890 q 415 708 481 744 q 218 672 349 672 q 31 704 106 672 l 42 835 l 64 835 q 91 760 78 788 q 129 717 104 733 q 197 700 154 700 z "},"⁄":{"ha":597,"x_min":0,"x_max":597,"o":"m 597 972 l 42 0 l 0 0 l 556 972 l 597 972 z "},"∕":{"ha":208,"x_min":-194,"x_max":403,"o":"m 403 972 l -153 0 l -194 0 l 361 972 l 403 972 z "},"½":{"ha":1181,"x_min":50,"x_max":1114,"o":"m 53 904 l 53 926 q 292 981 185 940 l 313 974 l 313 497 q 317 483 313 488 q 331 476 321 478 l 386 467 l 386 444 l 50 444 l 50 467 l 113 476 q 129 483 125 479 q 133 499 133 488 l 133 904 l 53 904 m 854 972 l 299 0 l 257 0 l 813 972 l 854 972 m 1106 392 q 1028 238 1106 303 q 833 118 950 174 l 1064 118 q 1080 122 1075 118 q 1086 136 1085 126 l 1092 164 l 1114 164 l 1114 0 l 668 0 l 661 18 q 867 206 807 111 q 926 390 926 301 q 906 464 926 439 q 842 489 886 489 q 765 476 799 489 q 688 438 731 464 l 672 463 q 913 536 783 536 q 1058 497 1011 536 q 1106 392 1106 458 z "},"⅓":{"ha":1181,"x_min":50,"x_max":1139,"o":"m 53 904 l 53 926 q 292 981 185 940 l 313 974 l 313 497 q 317 483 313 488 q 331 476 321 478 l 386 467 l 386 444 l 50 444 l 50 467 l 113 476 q 129 483 125 479 q 133 499 133 488 l 133 904 l 53 904 m 860 972 l 304 0 l 263 0 l 818 972 l 860 972 m 856 19 q 931 47 906 19 q 957 140 957 75 q 934 232 957 200 q 858 264 911 264 l 815 264 l 815 294 l 860 294 q 924 319 904 294 q 944 397 944 343 q 851 493 944 493 q 778 483 811 493 q 707 451 746 472 l 690 475 q 917 536 786 536 q 1067 503 1011 536 q 1124 407 1124 469 q 996 281 1124 311 q 1101 242 1063 274 q 1139 151 1139 210 q 1073 28 1139 64 q 876 -8 1007 -8 q 689 24 764 -8 l 700 154 l 722 154 q 749 80 736 107 q 788 36 763 53 q 856 19 813 19 z "},"¼":{"ha":1181,"x_min":50,"x_max":1147,"o":"m 53 904 l 53 926 q 292 981 185 940 l 313 974 l 313 497 q 317 483 313 488 q 331 476 321 478 l 386 467 l 386 444 l 50 444 l 50 467 l 113 476 q 129 483 125 479 q 133 499 133 488 l 133 904 l 53 904 m 922 972 l 367 0 l 325 0 l 881 972 l 922 972 m 647 119 l 642 147 l 999 528 l 1076 528 l 1076 150 l 1147 150 l 1147 119 l 1076 119 l 1076 51 q 1081 37 1076 42 q 1094 31 1085 32 l 1144 22 l 1144 0 l 822 0 l 822 22 l 876 31 q 893 38 889 33 q 897 53 897 42 l 897 119 l 647 119 m 897 150 l 897 374 l 686 150 l 897 150 z "},"⅛":{"ha":1181,"x_min":50,"x_max":1133,"o":"m 53 904 l 53 926 q 292 981 185 940 l 313 974 l 313 497 q 317 483 313 488 q 331 476 321 478 l 386 467 l 386 444 l 50 444 l 50 467 l 113 476 q 129 483 125 479 q 133 499 133 488 l 133 904 l 53 904 m 853 972 l 297 0 l 256 0 l 811 972 l 853 972 m 653 114 q 684 194 653 160 q 775 243 715 229 q 699 311 724 274 q 674 389 674 349 q 731 498 674 460 q 889 536 789 536 q 1039 506 979 536 q 1099 417 1099 475 q 972 306 1099 328 l 996 296 q 1102 228 1071 264 q 1133 140 1133 193 q 1065 26 1133 60 q 896 -8 996 -8 q 717 22 782 -8 q 653 114 653 53 m 790 440 q 803 394 790 411 q 834 367 817 376 q 897 339 851 358 l 939 321 q 982 426 982 358 q 886 507 982 507 q 790 440 790 507 m 818 222 q 788 126 788 192 q 813 47 788 72 q 899 21 839 21 q 1003 92 1003 21 q 979 142 1003 124 q 893 188 956 160 l 818 222 z "},"⅔":{"ha":1181,"x_min":19,"x_max":1139,"o":"m 464 836 q 386 683 464 747 q 192 563 308 618 l 422 563 q 438 567 433 563 q 444 581 443 571 l 450 608 l 472 608 l 472 444 l 26 444 l 19 463 q 225 651 165 556 q 285 835 285 746 q 265 908 285 883 q 200 933 244 933 q 123 921 157 933 q 46 882 89 908 l 31 907 q 271 981 140 981 q 417 942 369 981 q 464 836 464 903 m 894 972 l 339 0 l 297 0 l 853 972 l 894 972 m 856 19 q 931 47 906 19 q 957 140 957 75 q 934 232 957 200 q 858 264 911 264 l 815 264 l 815 294 l 860 294 q 924 319 904 294 q 944 397 944 343 q 851 493 944 493 q 778 483 811 493 q 707 451 746 472 l 690 475 q 917 536 786 536 q 1067 503 1011 536 q 1124 407 1124 469 q 996 281 1124 311 q 1101 242 1063 274 q 1139 151 1139 210 q 1073 28 1139 64 q 876 -8 1007 -8 q 689 24 764 -8 l 700 154 l 722 154 q 749 80 736 107 q 788 36 763 53 q 856 19 813 19 z "},"¾":{"ha":1181,"x_min":31,"x_max":1147,"o":"m 197 464 q 273 492 247 464 q 299 585 299 519 q 276 676 299 644 q 200 708 253 708 l 157 708 l 157 739 l 201 739 q 266 763 246 739 q 286 842 286 788 q 193 938 286 938 q 120 927 153 938 q 49 896 88 917 l 32 919 q 258 981 128 981 q 409 947 353 981 q 465 851 465 914 q 338 725 465 756 q 442 686 404 718 q 481 596 481 654 q 415 472 481 508 q 218 436 349 436 q 31 468 106 436 l 42 599 l 64 599 q 91 524 78 551 q 129 481 104 497 q 197 464 154 464 m 944 972 l 389 0 l 347 0 l 903 972 l 944 972 m 647 119 l 642 147 l 999 528 l 1076 528 l 1076 150 l 1147 150 l 1147 119 l 1076 119 l 1076 51 q 1081 37 1076 42 q 1094 31 1085 32 l 1144 22 l 1144 0 l 822 0 l 822 22 l 876 31 q 893 38 889 33 q 897 53 897 42 l 897 119 l 647 119 m 897 150 l 897 374 l 686 150 l 897 150 z "},"⅜":{"ha":1181,"x_min":31,"x_max":1133,"o":"m 197 464 q 273 492 247 464 q 299 585 299 519 q 276 676 299 644 q 200 708 253 708 l 157 708 l 157 739 l 201 739 q 266 763 246 739 q 286 842 286 788 q 193 938 286 938 q 120 927 153 938 q 49 896 88 917 l 32 919 q 258 981 128 981 q 409 947 353 981 q 465 851 465 914 q 338 725 465 756 q 442 686 404 718 q 481 596 481 654 q 415 472 481 508 q 218 436 349 436 q 31 468 106 436 l 42 599 l 64 599 q 91 524 78 551 q 129 481 104 497 q 197 464 154 464 m 874 972 l 318 0 l 276 0 l 832 972 l 874 972 m 653 114 q 684 194 653 160 q 775 243 715 229 q 699 311 724 274 q 674 389 674 349 q 731 498 674 460 q 889 536 789 536 q 1039 506 979 536 q 1099 417 1099 475 q 972 306 1099 328 l 996 296 q 1102 228 1071 264 q 1133 140 1133 193 q 1065 26 1133 60 q 896 -8 996 -8 q 717 22 782 -8 q 653 114 653 53 m 790 440 q 803 394 790 411 q 834 367 817 376 q 897 339 851 358 l 939 321 q 982 426 982 358 q 886 507 982 507 q 790 440 790 507 m 818 222 q 788 126 788 192 q 813 47 788 72 q 899 21 839 21 q 1003 92 1003 21 q 979 142 1003 124 q 893 188 956 160 l 818 222 z "},"⅝":{"ha":1181,"x_min":33,"x_max":1133,"o":"m 478 596 q 413 474 478 511 q 218 436 347 436 q 33 468 108 436 l 44 599 l 67 599 q 93 524 81 550 q 130 481 106 497 q 197 464 154 464 q 272 493 247 464 q 296 589 296 522 q 273 692 296 658 q 181 726 250 726 q 83 708 135 726 l 53 708 l 72 972 l 439 972 l 439 854 l 92 854 l 83 739 q 246 761 158 761 q 422 719 367 761 q 478 596 478 678 m 874 972 l 318 0 l 276 0 l 832 972 l 874 972 m 653 114 q 684 194 653 160 q 775 243 715 229 q 699 311 724 274 q 674 389 674 349 q 731 498 674 460 q 889 536 789 536 q 1039 506 979 536 q 1099 417 1099 475 q 972 306 1099 328 l 996 296 q 1102 228 1071 264 q 1133 140 1133 193 q 1065 26 1133 60 q 896 -8 996 -8 q 717 22 782 -8 q 653 114 653 53 m 790 440 q 803 394 790 411 q 834 367 817 376 q 897 339 851 358 l 939 321 q 982 426 982 358 q 886 507 982 507 q 790 440 790 507 m 818 222 q 788 126 788 192 q 813 47 788 72 q 899 21 839 21 q 1003 92 1003 21 q 979 142 1003 124 q 893 188 956 160 l 818 222 z "},"⅞":{"ha":1181,"x_min":44,"x_max":1133,"o":"m 104 444 q 199 652 122 542 q 371 854 276 763 l 94 854 q 78 850 83 854 q 72 836 74 846 l 67 808 l 44 808 l 44 972 l 460 972 l 467 954 q 346 713 388 838 q 283 444 304 589 l 104 444 m 811 972 l 256 0 l 214 0 l 769 972 l 811 972 m 653 114 q 684 194 653 160 q 775 243 715 229 q 699 311 724 274 q 674 389 674 349 q 731 498 674 460 q 889 536 789 536 q 1039 506 979 536 q 1099 417 1099 475 q 972 306 1099 328 l 996 296 q 1102 228 1071 264 q 1133 140 1133 193 q 1065 26 1133 60 q 896 -8 996 -8 q 717 22 782 -8 q 653 114 653 53 m 790 440 q 803 394 790 411 q 834 367 817 376 q 897 339 851 358 l 939 321 q 982 426 982 358 q 886 507 982 507 q 790 440 790 507 m 818 222 q 788 126 788 192 q 813 47 788 72 q 899 21 839 21 q 1003 92 1003 21 q 979 142 1003 124 q 893 188 956 160 l 818 222 z "},"‰":{"ha":1689,"x_min":56,"x_max":1633,"o":"m 289 983 q 460 921 399 983 q 522 753 522 858 q 460 585 522 647 q 289 522 399 522 q 117 585 179 522 q 56 753 56 647 q 117 921 56 858 q 289 983 179 983 m 867 972 l 311 0 l 269 0 l 825 972 l 867 972 m 289 547 q 349 597 333 547 q 365 753 365 646 q 349 909 365 860 q 289 958 333 958 q 228 909 244 958 q 213 753 213 860 q 228 597 213 646 q 289 547 244 547 m 847 450 q 1019 388 957 450 q 1081 219 1081 325 q 1019 51 1081 114 q 847 -11 957 -11 q 676 51 738 -11 q 614 219 614 114 q 676 388 614 325 q 847 450 738 450 m 1400 450 q 1572 388 1510 450 q 1633 219 1633 325 q 1572 51 1633 114 q 1400 -11 1510 -11 q 1228 51 1290 -11 q 1167 219 1167 114 q 1228 388 1167 325 q 1400 450 1290 450 m 847 14 q 908 63 892 14 q 924 219 924 113 q 908 376 924 326 q 847 425 892 425 q 787 376 803 425 q 771 219 771 326 q 787 63 771 113 q 847 14 803 14 m 1400 14 q 1460 63 1444 14 q 1476 219 1476 113 q 1460 376 1476 326 q 1400 425 1444 425 q 1340 376 1356 425 q 1324 219 1324 326 q 1340 63 1324 113 q 1400 14 1356 14 z "},"−":{"ha":792,"x_min":103,"x_max":689,"o":"m 103 436 l 103 475 l 689 475 l 689 436 l 103 436 z "},"±":{"ha":792,"x_min":103,"x_max":689,"o":"m 417 436 l 417 163 l 375 163 l 375 436 l 103 436 l 103 475 l 375 475 l 375 749 l 417 749 l 417 475 l 689 475 l 689 436 l 417 436 m 103 0 l 103 36 l 689 36 l 689 0 l 103 0 z "},"×":{"ha":792,"x_min":144,"x_max":647,"o":"m 425 456 l 647 233 l 618 204 l 396 426 l 174 204 l 144 233 l 367 456 l 144 678 l 174 707 l 396 485 l 618 707 l 647 678 l 425 456 z "},"÷":{"ha":794,"x_min":103,"x_max":689,"o":"m 397 581 q 315 614 349 581 q 281 694 281 647 q 315 775 281 742 q 397 808 349 808 q 480 775 446 808 q 514 694 514 742 q 480 614 514 647 q 397 581 446 581 m 689 475 l 689 436 l 103 436 l 103 475 l 689 475 m 397 331 q 480 297 446 331 q 514 217 514 264 q 480 136 514 169 q 397 103 446 103 q 315 136 349 103 q 281 217 281 169 q 315 297 281 264 q 397 331 349 331 z "},"≠":{"ha":792,"x_min":103,"x_max":689,"o":"m 335 311 l 200 81 l 164 101 l 286 311 l 103 311 l 103 350 l 310 350 l 433 561 l 103 561 l 103 600 l 456 600 l 592 831 l 628 810 l 504 600 l 689 600 l 689 561 l 482 561 l 358 350 l 689 350 l 689 311 l 335 311 z "},"≈":{"ha":794,"x_min":106,"x_max":686,"o":"m 565 576 q 619 602 597 576 q 663 676 640 628 l 686 664 q 624 538 671 593 q 511 482 578 482 q 454 495 486 482 q 375 533 422 508 q 287 574 319 561 q 226 588 254 588 q 173 562 194 588 q 129 488 151 536 l 106 500 q 167 626 121 571 q 281 682 214 682 q 338 669 306 682 q 417 631 369 656 q 505 590 472 603 q 565 576 538 576 m 565 340 q 619 366 597 340 q 663 440 640 392 l 686 428 q 624 301 671 357 q 511 246 578 246 q 454 259 486 246 q 375 297 422 272 q 287 338 319 325 q 226 351 254 351 q 173 326 194 351 q 129 251 151 300 l 106 264 q 167 390 121 335 q 281 446 214 446 q 338 433 306 446 q 417 394 369 419 q 505 353 472 367 q 565 340 538 340 z "},"≤":{"ha":792,"x_min":119,"x_max":656,"o":"m 631 708 l 653 671 l 171 414 l 653 157 l 631 119 l 119 400 l 119 428 l 631 708 m 119 0 l 119 36 l 656 36 l 656 0 l 119 0 z "},"≥":{"ha":792,"x_min":136,"x_max":672,"o":"m 161 119 l 139 157 l 621 414 l 139 671 l 161 708 l 672 428 l 672 400 l 161 119 m 136 0 l 136 36 l 672 36 l 672 0 l 136 0 z "},"¬":{"ha":792,"x_min":103,"x_max":683,"o":"m 642 238 l 642 436 l 103 436 l 103 475 l 683 475 l 683 238 l 642 238 z "},"∆":{"ha":925,"x_min":58,"x_max":867,"o":"m 867 0 l 58 0 l 446 989 l 497 989 l 867 0 m 381 722 l 117 42 l 608 42 l 381 722 z "},"µ":{"ha":1042,"x_min":33,"x_max":1008,"o":"m 33 -289 l 82 -278 q 109 -268 103 -274 q 115 -247 115 -262 l 115 592 q 109 613 115 607 q 82 622 103 618 l 33 633 l 33 658 l 369 700 l 393 700 l 393 175 q 413 86 393 113 q 481 60 433 60 q 649 129 564 60 l 649 592 q 642 613 649 607 q 615 622 636 618 l 567 633 l 567 658 l 903 700 l 926 700 l 926 67 q 933 46 926 51 q 960 36 939 40 l 1008 25 l 1008 0 l 726 0 q 669 17 686 0 q 651 72 651 35 l 651 88 q 540 21 606 50 q 393 -15 474 -8 l 393 -247 q 399 -268 393 -262 q 426 -278 406 -274 l 475 -289 l 475 -314 l 33 -314 l 33 -289 z "},"π":{"ha":1031,"x_min":36,"x_max":994,"o":"m 994 650 l 946 639 q 919 629 925 635 q 913 608 913 624 l 913 67 q 919 46 913 51 q 946 36 925 40 l 994 25 l 994 0 l 561 0 l 561 25 l 607 36 q 634 46 628 40 q 640 67 640 51 l 640 639 l 390 639 l 390 67 q 397 46 390 51 q 424 36 403 40 l 469 25 l 469 0 l 36 0 l 36 25 l 85 36 q 112 46 106 40 q 118 67 118 51 l 118 608 q 112 629 118 624 q 85 639 106 635 l 36 650 l 36 675 l 994 675 l 994 650 z "},"°":{"ha":517,"x_min":67,"x_max":450,"o":"m 258 986 q 398 934 346 986 q 450 797 450 882 q 398 661 450 714 q 258 608 346 608 q 119 661 172 608 q 67 797 67 714 q 119 934 67 882 q 258 986 172 986 m 258 644 q 369 687 328 644 q 411 797 411 729 q 369 908 411 865 q 258 950 328 950 q 147 908 189 950 q 106 797 106 865 q 147 687 106 729 q 258 644 189 644 z "},"ℓ":{"ha":764,"x_min":22,"x_max":706,"o":"m 151 669 q 236 902 151 818 q 476 986 321 986 q 637 936 582 986 q 692 807 692 886 q 620 608 692 703 q 415 419 549 514 l 415 232 q 433 87 415 129 q 503 44 450 44 q 608 89 565 44 q 664 211 650 133 l 706 211 q 419 -14 669 -14 q 238 51 317 -14 q 151 257 158 115 l 43 199 l 22 232 l 151 303 l 151 669 m 415 474 q 639 800 639 647 q 611 897 639 863 q 535 932 583 932 q 459 911 485 932 q 424 844 433 890 q 415 714 415 799 l 415 474 z "}}}
